<svg width="672" height="546" viewBox="0 0 672 546" fill="none" xmlns="http://www.w3.org/2000/svg">
<g opacity="0.5" filter="url(#filter0_d)">
<path d="M131.414 170.758C88.4473 159.877 62.7858 152.327 19.8196 141.52C19.228 141.372 19.154 142.26 19.7456 142.409C62.49 154.104 88.5212 160.618 131.266 172.313C132.301 172.535 132.375 170.98 131.414 170.758Z" fill="#08C6A2"/>
<path d="M136.96 146.48C93.9937 135.599 68.3322 128.049 25.366 117.242C24.7743 117.093 24.7004 117.982 25.292 118.13C68.0364 129.825 94.0676 136.339 136.812 148.034C137.847 148.256 137.921 146.702 136.96 146.48Z" fill="#08C6A2"/>
<path d="M181.109 96.6638C138.809 83.4141 127.494 79.3429 85.1933 66.1672C84.6017 65.9452 84.5277 66.8334 85.0454 67.0555C127.124 81.1194 138.809 84.1543 180.888 98.2182C181.849 98.5143 181.997 96.9599 181.109 96.6638Z" fill="#08C6A2"/>
<path d="M187.987 72.7551C145.76 59.4314 134.372 55.4342 92.0709 42.1845C91.4792 41.9625 91.4053 42.8507 91.923 43.0728C134.002 57.1367 145.686 60.1716 187.765 74.2355C188.726 74.5316 188.948 72.9772 187.987 72.7551Z" fill="#08C6A2"/>
<path d="M120.617 92.5926C78.3158 79.3429 52.2846 71.0526 9.98395 57.8769C9.39233 57.6549 9.31838 58.5431 9.83605 58.7652C51.8409 72.8291 78.1679 80.0831 120.173 94.073C120.321 93.5549 120.469 93.1108 120.617 92.5926Z" fill="#08C6A2"/>
<path d="M81.0521 60.7637C38.7514 47.514 58.2748 53.1396 15.9741 39.9639C15.3824 39.7419 15.3085 40.6301 15.8262 40.8522C57.905 54.9161 38.7514 48.2542 80.7562 62.3182C81.7916 62.5402 82.0134 61.0598 81.0521 60.7637Z" fill="#08C6A2"/>
<path d="M124.832 78.9728C124.24 78.8248 123.722 78.6027 123.205 78.3807C121.06 83.6361 118.99 89.4097 117.88 94.8873C116.475 94.2211 114.774 93.925 113.221 93.7029C112.556 93.6289 112.334 94.4431 112.999 94.7392C114.552 95.4054 116.253 96.0716 117.954 96.1456C118.25 96.1456 118.324 95.9976 118.398 95.8495C118.472 95.8495 118.546 95.7755 118.62 95.6275C121.356 90.5941 123.427 84.5244 125.128 78.8988C124.98 78.9728 124.906 78.9728 124.832 78.9728Z" fill="#08C6A2"/>
<path d="M112.112 92.3706C71.2164 79.3429 46.8861 70.9046 5.32492 60.3936C4.80725 60.2456 4.65935 61.0598 5.10306 61.2079C45.5549 76.086 70.5508 82.6739 111.816 95.1093C113.665 95.6275 113.813 92.8887 112.112 92.3706Z" fill="#08C6A2"/>
<path d="M16.7135 39.4458C13.9773 46.1817 11.6108 53.0656 9.09642 59.8755C8.94852 60.3196 9.68804 60.7637 9.9099 60.2456C12.7201 53.5837 15.6782 46.9219 18.2665 40.186C18.6363 39.2977 17.0833 38.4835 16.7135 39.4458Z" fill="#08C6A2"/>
<path d="M17.0833 39.0757C15.5303 39.1497 13.9034 39.1497 12.3504 39.3718C12.4243 39.2237 12.4243 39.0017 12.4983 38.8536C12.6462 38.4095 11.9067 37.9654 11.6848 38.4835C9.09647 44.8493 6.13838 51.2151 4.06771 57.8769C3.624 59.2093 5.47281 60.3936 6.36023 59.6534C7.54347 59.8755 8.72671 60.0975 9.90994 60.0235C11.5369 59.8755 10.8713 57.8769 9.54018 57.7289C8.72671 57.6549 7.91323 57.7289 7.09976 57.8769C9.09647 52.1773 10.5016 46.2557 12.1285 40.4081C13.7555 40.8522 15.5303 41.1483 17.2312 41.3703C18.9321 41.6664 18.7842 39.0017 17.0833 39.0757Z" fill="#08C6A2"/>
<path d="M84.2319 42.4066C82.531 49.1425 79.5729 58.3951 77.872 65.1309C77.4283 66.9074 80.0906 68.0918 80.6083 66.0932L86.8203 43.2948C87.1161 42.0365 84.6017 41.0002 84.2319 42.4066Z" fill="#08C6A2"/>
<path d="M91.9969 40.408C91.849 40.186 91.5532 39.9639 91.2573 40.0379C89.6304 40.7041 88.0034 41.3703 86.4504 42.2586C85.9328 42.5546 86.5244 43.2948 86.9681 43.1468C88.0774 42.7767 89.1867 42.2586 90.296 41.8144C88.1513 49.6606 86.0067 57.5808 83.9361 65.501C82.0133 65.501 80.0166 65.501 78.0938 65.5751C76.319 65.6491 76.9846 68.0918 78.5376 68.1658C80.7561 68.2398 83.0486 68.3138 85.2672 68.2398H85.3412C85.4891 68.2398 85.7109 68.2398 85.8588 68.1658C85.8588 68.1658 85.8588 68.1658 85.9328 68.1658C86.0067 68.0918 86.0807 68.0178 86.1546 67.9437C86.3025 67.7957 86.3765 67.5736 86.4504 67.3516C88.743 58.9872 90.8876 50.6229 93.1062 42.2586C93.1801 41.4443 92.6624 40.7041 91.9969 40.408Z" fill="#08C6A2"/>
<path d="M166.911 94.1471C127.568 81.5635 118.99 78.6027 79.3511 66.7594C77.5763 66.2413 77.5023 68.832 79.0553 69.3501C118.176 82.7479 127.124 84.7464 166.467 97.404C168.685 98.1442 168.833 94.8132 166.911 94.1471Z" fill="#08C6A2"/>
<path d="M179.335 97.1079C174.75 96.7378 170.164 96.2937 165.653 96.2196C165.062 96.2196 165.136 97.1819 165.653 97.2559C170.238 97.7741 174.897 97.9961 179.556 98.2922C180.37 98.2922 180.074 97.1079 179.335 97.1079Z" fill="#08C6A2"/>
<path d="M23.5911 117.019C17.3052 116.427 10.9453 121.017 10.1318 127.456C9.46621 133.304 13.4596 139.078 19.08 140.706C19.6716 140.854 19.8195 139.966 19.3019 139.818C14.1992 138.041 10.4276 132.934 11.315 127.308C12.2764 121.461 18.0447 117.686 23.739 118.13C24.5525 118.204 24.3306 117.093 23.5911 117.019Z" fill="#08C6A2"/>
<path d="M175.933 96.5897C175.859 96.5897 175.785 96.5897 175.711 96.5157C176.007 96.2196 175.711 95.5534 175.119 95.4794C174.232 95.4794 173.418 95.4054 172.605 95.3314C172.753 95.0353 172.605 94.5172 172.161 94.4431C167.872 93.6289 163.583 92.7407 159.294 91.9264C158.554 91.7784 158.48 92.8887 159.146 93.0367C160.255 93.2588 161.364 93.4809 162.474 93.7029C162.326 93.999 162.4 94.4431 162.769 94.5912C162.843 94.5912 162.843 94.5912 162.917 94.6652C162.917 94.6652 162.917 94.6652 162.991 94.6652C163.953 95.0353 164.988 95.3314 165.949 95.5535C165.58 95.7755 165.875 96.4417 166.319 96.5897C167.946 97.1079 169.499 97.3299 171.052 97.2559C172.679 97.404 174.38 97.552 176.007 97.7C176.672 97.7741 176.524 96.6638 175.933 96.5897Z" fill="#08C6A2"/>
<path d="M185.768 74.6056C183.402 82.1557 181.405 89.8539 179.482 97.478C179.113 98.9584 181.849 100.069 182.293 98.4403C184.659 91.0382 186.804 83.5621 188.727 76.012C189.244 74.3095 186.36 72.6811 185.768 74.6056Z" fill="#08C6A2"/>
<path d="M138.661 148.7C138.217 148.034 137.33 148.626 137.773 149.292C142.137 156.324 139.622 165.503 132.819 169.944C132.301 170.314 132.967 171.055 133.41 170.758C141.027 166.613 143.32 155.88 138.661 148.7Z" fill="#08C6A2"/>
<path d="M23.2213 121.979C21.7423 126.124 20.2633 130.343 18.9321 134.488C18.4144 136.043 20.9288 137.449 21.5944 135.747C23.1474 131.602 24.7004 127.456 26.1055 123.311C26.6971 121.683 23.8869 120.128 23.2213 121.979Z" fill="#08C6A2"/>
<path d="M94.5114 134.784C93.6979 120.202 94.8072 105.546 97.9872 91.2603C96.73 91.1122 95.5467 90.9642 94.3635 90.5941C93.9937 92.1485 93.6979 93.7029 93.4021 95.1834C90.9617 107.989 90.1482 121.017 90.8138 133.97C92.1449 134.192 93.3282 134.414 94.5114 134.784Z" fill="#08C6A2"/>
<path d="M110.337 194.667C105.087 184.23 101.167 173.201 98.5048 161.95C98.3569 161.95 98.135 161.876 97.9871 161.876C97.6173 161.876 97.1736 161.802 96.7299 161.654C96.1383 161.506 95.4727 161.358 94.8811 161.136C97.6913 173.053 101.907 184.674 107.601 195.555C108.414 197.11 111.298 196.518 110.337 194.667Z" fill="#08C6A2"/>
<path d="M199.154 37.7433C197.601 23.3833 190.575 7.91296 176.007 2.50945C161.734 -2.74602 147.017 4.80409 136.442 14.1307C125.645 23.6053 116.845 35.3746 109.893 48.2542C111.298 48.5503 112.63 48.8464 114.035 49.1425C116.105 45.4414 118.324 41.8885 120.69 38.4095C128.603 26.8623 138.291 15.241 150.937 8.57915C168.242 -0.451377 185.99 7.02471 192.646 25.0117C198.34 40.408 196.048 58.6911 193.903 74.6056C191.758 90.298 187.987 105.768 182.736 120.72C176.82 137.375 169.129 153.364 159.589 168.242C151.307 181.195 136.072 206.807 117.141 196.518C114.922 195.333 113.739 198.59 115.809 199.701C129.86 207.399 143.394 197.036 151.75 186.229C162.473 172.387 171.422 157.065 178.669 141.224C185.916 125.236 191.389 108.359 194.938 91.1122C198.488 73.9394 201.076 55.3602 199.154 37.7433Z" fill="#08C6A2"/>
<path d="M175.859 24.7157C166.171 23.9014 156.483 23.1612 146.796 22.5691C145.021 22.495 145.317 25.3078 146.87 25.4559C156.705 26.4922 166.541 27.3064 176.45 28.0466C178.669 28.1946 177.856 24.8637 175.859 24.7157Z" fill="#08C6A2"/>
<path d="M176.303 31.3035C165.949 30.2672 155.522 29.1569 145.095 28.4907C143.394 28.3427 143.69 31.0814 145.169 31.2295C155.374 32.5619 165.653 33.5241 175.933 34.4864C178.225 34.7084 178.373 31.5256 176.303 31.3035Z" fill="#08C6A2"/>
<path d="M169.721 92.5926C150.567 86.5229 131.34 80.5272 112.112 74.5316C93.0323 68.5359 104.569 71.6448 85.1194 66.8334C83.3446 66.3893 82.9008 68.98 84.4538 69.5722C102.942 76.6782 91.7012 71.6448 110.559 77.6404C130.156 83.8582 149.754 90.0759 169.351 96.2196C171.865 96.9598 171.939 93.2588 169.721 92.5926Z" fill="#08C6A2"/>
<path d="M116.697 93.4069C93.6239 85.7827 101.093 88.2994 78.0199 80.6753C54.9468 72.9771 32.0216 64.6128 8.72668 57.8769C6.95183 57.3588 6.43416 60.0975 8.06111 60.6897C30.5426 69.2021 53.7636 76.086 76.5409 83.6361C100.058 91.4083 92.8844 89.1137 116.401 96.9599C118.768 97.8481 118.916 94.1471 116.697 93.4069Z" fill="#08C6A2"/>
<path d="M197.453 204.734C168.094 209.545 140.066 206.955 111.816 196.592C110.411 196.074 109.967 198.664 111.299 199.182C138.513 211.026 169.721 214.283 198.34 208.065C199.967 207.621 199.006 204.512 197.453 204.734Z" fill="#08C6A2"/>
<path d="M248.184 45.5155C229.844 17.4616 195.53 -1.2656 161.142 0.0667713C159.293 0.140792 159.885 2.6575 161.512 2.73152C195.53 3.47172 226.738 19.1641 245.522 47.1439C246.779 48.8464 249.367 47.292 248.184 45.5155Z" fill="#08C6A2"/>
<path d="M247.592 45.8856C247.001 43.887 243.303 43.739 243.969 46.0336C260.756 103.696 242.786 164.541 198.34 205.4C197.231 206.436 199.302 208.583 200.485 207.547C246.557 167.502 264.675 103.696 247.592 45.8856Z" fill="#08C6A2"/>
<path d="M138.957 149.218C139.992 148.478 139.622 146.332 137.995 145.888C119.063 140.854 99.9837 136.191 81.0519 131.305C62.1202 126.494 43.1884 120.869 24.0348 117.093C23.2952 116.945 22.8515 117.242 22.6297 117.686C16.6395 117.464 10.5755 121.535 9.24431 127.604C7.76527 134.414 12.5722 141.52 19.2279 143.001C19.3758 143.519 19.7455 144.037 20.4111 144.185C38.6034 149.589 57.0175 154.252 75.3576 159.137C93.6978 164.023 111.89 169.352 130.378 173.793C131.561 174.089 132.153 173.349 132.153 172.461C141.545 168.76 144.133 157.361 138.957 149.218ZM130.452 170.166C130.304 170.24 130.23 170.388 130.082 170.462C112.112 165.207 93.8457 160.692 75.6534 155.88C57.6091 151.069 39.6387 145.888 21.4464 141.594C21.2985 141.076 20.8548 140.558 20.2632 140.41C15.0865 138.856 10.8713 133.304 12.868 127.752C14.6428 122.719 20.0413 120.35 25.0701 121.387C25.8836 121.535 26.3273 121.239 26.6231 120.794C44.3716 126.198 62.6378 130.195 80.6082 134.858C98.7265 139.522 116.771 144.259 134.963 148.774C135.037 148.996 135.111 149.218 135.333 149.515C141.027 156.991 138.143 165.577 130.452 170.166Z" fill="#08C6A2"/>
<path d="M114.552 47.366C105.678 44.7012 96.656 42.0365 87.5598 40.0379C85.9329 39.6678 85.4152 42.1105 86.8943 42.6287C86.9682 42.6287 87.0422 42.7027 87.1161 42.7027C86.9682 42.8507 86.8943 43.0728 86.8203 43.3689C86.6724 44.0351 86.5245 44.7012 86.3766 45.3674C85.711 45.2194 85.0455 45.4414 84.8236 46.2557C83.6404 50.4749 82.4571 54.694 81.2 58.8392C81.052 58.173 80.5344 57.5808 79.7949 57.3588C58.4966 51.141 37.0505 44.8493 15.4564 39.4458C15.0127 39.0757 14.495 38.9276 14.0513 39.0757C12.7202 38.7796 12.3504 39.9639 12.7941 40.8522C12.0546 40.4821 11.2411 40.6301 10.9453 41.5924C9.54021 46.3297 8.28302 51.067 6.95188 55.8043C6.43422 57.6549 9.31835 59.3573 10.1318 57.5068C10.4276 57.3588 10.6495 57.1367 10.7974 56.6926C11.1672 55.2862 11.6109 53.8798 11.9806 52.4734C13.2378 49.1425 14.4211 45.8115 15.6043 42.4066C36.6807 49.0685 58.1268 54.9161 79.4251 60.7637C79.9428 60.9118 80.3865 60.8378 80.6083 60.6157C80.6083 60.6897 80.6083 60.6897 80.5344 60.7637C79.7209 60.9858 79.2032 61.652 79.647 62.7623C80.0167 63.7986 80.4604 64.7609 80.9041 65.7231C81.2739 66.5373 82.3832 67.0555 83.2706 66.9074C84.0841 67.1295 85.0455 66.9074 85.1934 65.7971C85.4892 63.9466 85.8589 62.0961 86.1547 60.3196C86.3766 60.0975 86.5985 59.8015 86.6724 59.4314C86.9682 58.247 87.264 57.0627 87.5598 55.8043C88.0775 54.3239 88.5212 52.8435 89.0389 51.3631C89.4087 51.2891 89.7045 50.993 89.8524 50.4749C90.37 48.4023 90.8877 46.2557 91.4054 44.1831C98.8745 46.6258 106.566 48.7724 114.109 50.845C116.549 51.4371 116.549 47.9582 114.552 47.366Z" fill="#08C6A2"/>
<path d="M248.702 191.854C235.242 193.261 221.709 194.815 208.324 196.592C207.806 197.702 207.215 198.738 206.623 199.775C219.195 198.664 231.767 197.258 244.339 195.703C245.818 194.519 247.223 193.187 248.702 191.854Z" fill="#08C6A2"/>
<path d="M277.839 74.0874C277.617 73.6433 277.247 73.4213 276.878 73.2732C276.878 72.8291 276.656 72.385 276.212 72.0149C266.45 64.3167 256.319 56.8406 246.039 49.6606C245.892 49.5866 245.744 49.5126 245.596 49.4386C246.113 50.845 246.557 52.2513 246.853 53.7318C255.801 60.8377 264.971 67.7217 274.215 74.3095C274.511 74.5316 274.807 74.6056 275.103 74.6796C275.103 74.7536 275.177 74.8277 275.177 74.9017C293.517 117.242 281.019 163.801 244.413 191.484C242.786 192.743 244.856 195.333 246.483 194.223C284.495 168.168 297.954 115.317 277.839 74.0874Z" fill="#08C6A2"/>
<path d="M261.052 62.3922C260.83 61.652 259.499 61.5039 259.647 62.4662C269.334 110.654 256.097 159.951 221.931 195.926C221.192 196.666 222.597 197.776 223.336 197.036C257.206 162.69 272.958 109.099 261.052 62.3922Z" fill="#08C6A2"/>
<path d="M216.828 47.9582C215.053 33.5241 212.687 13.1684 196.565 7.83894C195.53 7.46884 195.456 9.09729 196.418 9.39338C212.391 14.6488 214.166 36.781 215.645 50.993C217.198 65.427 216.976 80.0831 215.053 94.5172C211.282 123.311 200.707 151.365 184.215 175.274C174.897 188.745 163.583 201.477 147.757 206.955C146.87 207.251 147.535 208.509 148.349 208.287C162.547 203.772 173.344 192.965 182.071 181.269C191.389 168.686 199.08 154.844 204.848 140.336C216.385 111.172 220.674 79.0468 216.828 47.9582Z" fill="#08C6A2"/>
<path d="M164.84 0.140796C149.162 0.658941 137.995 12.5763 128.234 23.4573C127.642 24.0495 128.825 25.0117 129.343 24.4196C139.178 13.6866 149.754 2.87956 165.062 1.84327C166.171 1.62121 165.801 0.0667756 164.84 0.140796Z" fill="white" fill-opacity="0.5"/>
<path d="M121.948 199.404C121.578 199.404 121.208 199.404 120.838 199.404C121.06 198.96 120.838 198.294 120.247 198.072C112.186 195.481 106.344 189.19 104.273 181.047C104.051 180.233 102.646 180.159 102.868 181.121C103.681 184.97 105.382 188.449 107.749 191.484H107.675C107.231 191.04 106.27 191.336 106.566 192.15C106.639 192.372 106.787 192.595 106.861 192.817C106.344 192.817 105.974 193.261 106.344 193.779C110.115 198.738 116.031 201.477 122.243 201.033C123.279 200.959 122.909 199.404 121.948 199.404Z" fill="white" fill-opacity="0.5"/>
<path d="M458.209 209.545C450.148 215.245 445.489 224.127 445.711 233.676C445.711 234.86 447.855 235.379 447.855 234.12C447.781 224.942 451.849 216.799 459.392 211.026C460.279 210.36 459.096 208.953 458.209 209.545Z" fill="white"/>
<path d="M500.583 248.702C491.413 254.994 487.42 265.949 490.969 276.016C491.265 276.83 492.966 276.682 492.67 275.794C489.86 266.171 493.188 256.326 501.84 250.257C502.802 249.591 501.545 248.036 500.583 248.702Z" fill="#A6A9C3"/>
<path d="M624.157 230.641C608.923 236.489 554.642 259.361 539.482 265.357C532.161 268.244 524.914 271.131 517.592 274.017C510.419 276.83 500.731 282.53 493.188 278.459C492.375 278.014 491.931 279.273 492.67 279.643C498.217 282.752 504.207 280.901 509.753 278.755C518.184 275.498 526.614 272.093 534.971 268.762C551.832 262.1 607.962 238.858 624.675 231.974C625.636 231.603 624.971 230.271 624.157 230.641Z" fill="white"/>
<path d="M626.228 201.107C587.403 215.837 541.109 233.232 502.358 248.11C501.471 248.406 502.136 249.739 502.95 249.442C541.775 234.638 588.143 217.54 626.894 202.587C627.781 202.143 627.115 200.737 626.228 201.107Z" fill="white"/>
<path d="M573.204 172.239C535.415 184.378 497.625 196.37 459.836 208.583C458.948 208.879 459.614 210.137 460.427 209.915C498.291 197.924 536.006 185.785 573.87 173.719C574.831 173.349 574.092 171.943 573.204 172.239Z" fill="white"/>
<path d="M624.527 198.96C610.772 187.709 595.02 179.641 578.825 172.387C577.937 172.017 577.494 173.201 578.307 173.645C594.429 181.047 609.441 189.264 623.566 200.145C624.453 200.811 625.415 199.701 624.527 198.96Z" fill="white"/>
<path d="M625.119 203.624C625.045 212.062 625.045 220.574 625.045 229.013C624.675 229.235 624.453 229.679 624.823 230.197C624.971 230.345 625.119 230.567 625.267 230.715C625.71 231.233 626.746 231.159 626.746 230.345C626.672 221.537 626.598 212.654 626.524 203.846C626.524 202.957 625.119 202.661 625.119 203.624Z" fill="white"/>
<path d="M666.384 205.178C655.735 209.323 638.134 217.762 626.228 222.721C626.302 223.239 626.376 223.757 626.45 224.201C638.356 219.39 656.179 210.804 666.976 206.658C667.937 206.288 667.198 204.882 666.384 205.178Z" fill="white"/>
<path d="M621.791 161.58C608.923 165.799 595.982 170.018 583.188 174.459C582.301 174.756 582.966 176.014 583.78 175.792C596.721 171.721 609.589 167.428 622.457 163.134C623.418 162.764 622.678 161.284 621.791 161.58Z" fill="white"/>
<path d="M665.571 186.747C651.889 190.818 638.43 195.629 625.415 201.625C624.601 201.995 625.488 203.254 626.302 202.883C639.318 197.332 652.555 192.298 666.162 188.375C667.198 188.005 666.532 186.451 665.571 186.747Z" fill="white"/>
<path d="M666.902 187.117C666.828 186.895 666.68 186.673 666.458 186.525C652.111 178.457 637.543 170.536 622.9 162.986C622.013 162.542 621.643 163.801 622.383 164.171C636.729 172.387 651.298 180.307 665.866 187.931C666.014 188.005 666.088 188.005 666.236 188.005C665.645 194.297 665.201 200.663 664.831 206.955C664.757 207.917 666.384 208.361 666.458 207.325C666.976 200.885 667.345 194.371 667.641 187.931C667.641 187.487 667.272 187.117 666.902 187.117Z" fill="white"/>
<path d="M646.343 184.526C637.321 178.901 628.299 173.275 619.202 167.798C618.389 167.28 617.945 168.538 618.685 168.982C627.633 174.756 636.655 180.381 645.751 185.933C646.713 186.451 647.23 185.044 646.343 184.526Z" fill="white"/>
<path d="M645.825 185.341C643.977 186.303 642.128 187.413 640.279 188.523C640.205 188.449 640.205 188.375 640.057 188.301C631.109 182.306 621.939 176.606 612.769 171.055C614.618 170.684 616.54 170.388 618.389 169.87C619.351 169.648 618.611 168.316 617.798 168.464C615.653 168.834 613.508 169.352 611.364 169.87C610.476 170.092 611.142 171.351 611.955 171.203H612.029C611.881 171.499 611.807 171.869 612.177 172.165C621.051 178.087 630.074 183.934 639.17 189.486C639.022 190.004 639.761 190.596 640.353 190.3C642.572 189.116 644.716 187.931 646.861 186.673C647.6 186.155 646.639 184.896 645.825 185.341Z" fill="white"/>
<path d="M493.719 278.858C485.96 273.139 478.024 267.48 469.969 262.119C469.317 261.702 468.607 262.477 469.258 262.953C476.958 268.791 484.894 274.39 492.89 279.871C493.66 280.347 494.429 279.394 493.719 278.858Z" fill="white"/>
<path d="M602.637 191.854C595.316 187.709 587.995 183.564 580.673 179.493C579.786 178.975 579.268 180.233 580.082 180.751C587.403 184.97 594.65 189.116 601.972 193.335C602.933 193.853 603.599 192.373 602.637 191.854Z" fill="white"/>
<path d="M602.12 192.447C592.21 192.669 582.448 191.854 572.613 190.374C575.201 186.895 578.011 183.712 581.191 180.825C581.857 180.233 580.6 179.197 579.934 179.789C576.606 182.824 573.722 186.229 571.134 189.93C570.912 190.3 571.06 190.67 571.356 190.892C571.356 191.188 571.577 191.558 571.947 191.632C581.931 193.557 592.21 194.297 602.415 194.075C603.525 194.075 603.155 192.447 602.12 192.447Z" fill="white"/>
<path d="M482.539 226.57C478.841 223.831 475.07 221.019 471.372 218.28C470.632 217.762 469.819 218.724 470.559 219.242C474.256 221.981 477.954 224.794 481.725 227.532C482.465 228.199 483.278 227.162 482.539 226.57Z" fill="white"/>
<path d="M501.175 239.45C497.699 237.303 494.075 235.305 490.6 233.232C489.786 232.714 489.342 233.972 490.082 234.416C493.632 236.563 497.107 238.709 500.657 240.782C501.545 241.3 501.988 239.968 501.175 239.45Z" fill="white"/>
<path d="M189.244 330.199C158.184 389.86 127.716 449.89 97.0257 509.699C96.8038 510.143 96.9517 510.587 97.1736 510.884C94.6592 509.255 92.2188 507.627 89.7044 505.998C88.5211 505.258 87.4119 506.886 88.5951 507.701C91.1095 509.403 93.6238 511.106 96.1382 512.734C97.3215 513.474 98.3568 511.92 97.3954 511.106C97.9131 511.476 98.7266 511.55 99.0963 510.884C129.86 451.075 160.92 391.414 191.389 331.383C192.054 330.051 189.91 329.015 189.244 330.199Z" fill="#F55B7F"/>
<path d="M255.136 309.843C238.053 314.951 209.211 324.203 192.202 329.533C191.906 329.607 191.759 329.755 191.685 329.903C191.685 329.607 191.463 329.311 191.019 329.089C187.1 327.312 183.106 325.61 179.113 323.907C178.669 323.685 178.225 323.833 177.93 324.055C177.856 323.907 177.708 323.833 177.634 323.685C177.708 323.685 177.708 323.685 177.782 323.685C198.932 317.615 220.008 311.25 241.085 304.958C242.712 304.514 241.75 302.293 240.345 302.737C219.269 308.955 198.118 315.173 177.116 321.687C176.229 321.983 176.229 322.871 176.672 323.389C176.303 323.389 175.933 323.537 175.711 323.833C140.658 380.829 110.485 440.934 86.5985 503.481C86.3027 504.222 86.9683 504.666 87.6338 504.74C87.9296 505.184 88.5952 505.554 89.1868 505.258C92.6626 503.852 96.0644 502.371 99.5401 500.817C99.9838 500.965 100.428 501.113 100.871 501.187C101.241 501.261 101.537 501.187 101.759 501.039C102.128 501.039 102.572 500.891 102.794 500.521C103.016 500.225 103.238 499.928 103.386 499.558C103.608 499.188 103.608 498.892 103.46 498.67C103.608 498.374 103.755 498.078 103.903 497.708C103.977 497.338 104.051 497.042 104.051 496.672C104.643 495.191 105.308 493.637 105.9 492.156C106.048 492.082 106.122 491.934 106.196 491.786C115.07 475.798 123.944 459.883 132.745 443.895C133.114 443.229 132.745 442.562 132.227 442.266C136.22 434.494 140.214 426.722 144.207 418.876C144.503 418.358 144.355 417.839 143.985 417.469C150.567 405.774 157.297 394.227 164.248 382.754C164.766 381.939 164.174 381.199 163.361 380.977C163.583 380.533 163.879 380.089 164.1 379.645C164.47 379.645 164.84 379.423 165.062 379.053C169.055 370.984 173.123 362.916 177.116 354.848C182.071 347.52 186.138 339.6 189.244 331.161C189.318 331.013 189.318 330.865 189.318 330.717C189.466 330.791 189.614 330.865 189.836 330.939C190.501 331.235 191.167 330.939 191.463 330.495C191.537 331.087 192.128 331.679 192.868 331.457C209.951 326.35 238.792 317.171 255.875 311.842C257.354 311.472 256.541 309.399 255.136 309.843ZM184.068 328.867C151.972 383.938 119.581 439.38 97.0258 499.188C96.9518 499.336 96.9518 499.41 96.9518 499.558C94.3635 500.669 91.7752 501.779 89.2608 502.963C113.739 441.304 143.024 381.939 177.634 325.462C177.708 325.536 177.856 325.684 178.003 325.758C180.074 326.72 182.219 327.682 184.363 328.571C184.215 328.645 184.142 328.719 184.068 328.867Z" fill="#F55B7F"/>
<path d="M256.467 309.251C251.586 306.956 246.483 304.884 241.528 302.737C240.419 302.219 239.754 303.848 240.863 304.366C245.818 306.586 250.698 308.881 255.727 310.954C257.058 311.472 257.724 309.843 256.467 309.251Z" fill="#F55B7F"/>
<path d="M254.1 311.694C251.216 317.393 248.332 323.167 245.448 328.867C245.374 328.571 245.078 328.349 244.708 328.423C229.326 331.605 214.166 336.491 199.819 342.931C199.228 343.227 199.819 343.967 200.337 343.745C214.758 337.527 229.696 332.79 245.004 329.533C245.078 329.533 245.078 329.533 245.152 329.459C238.718 342.264 232.284 355.07 225.851 367.802C211.504 368.542 197.231 371.281 183.476 375.426C182.884 375.648 183.18 376.462 183.772 376.314C197.379 372.317 211.208 370.022 225.259 368.986C219.787 379.867 214.24 390.822 208.768 401.703C194.421 404.59 180.074 407.477 165.727 410.511C165.062 410.659 165.432 411.474 166.023 411.4C180.074 408.735 194.125 405.774 208.102 402.961C201.89 415.249 195.678 427.61 189.466 439.898C189.466 439.602 189.096 439.231 188.727 439.38C174.158 443.155 159.663 446.93 145.169 450.779C144.577 450.927 144.873 451.815 145.465 451.667C160.033 447.966 174.602 444.191 189.096 440.416C189.17 440.416 189.244 440.342 189.244 440.342C184.289 450.113 179.409 459.957 174.454 469.728C158.406 476.02 142.359 482.238 126.311 488.529C125.719 488.751 126.311 489.492 126.829 489.269C142.506 483.2 158.11 477.204 173.788 471.134C172.087 474.539 170.312 478.018 168.612 481.423C168.538 481.571 168.538 481.645 168.538 481.793C168.316 481.793 168.094 481.793 167.872 481.867C144.651 491.342 121.504 501.039 98.5788 511.032C97.0998 511.698 98.5788 513.474 99.836 512.956C123.057 503.555 146.204 493.859 169.203 483.866C169.647 483.644 169.795 483.348 169.795 483.052C170.091 483.052 170.46 482.904 170.608 482.534C199.302 426.056 227.699 369.43 256.319 312.878C257.058 311.546 254.766 310.436 254.1 311.694Z" fill="#F55B7F"/>
<path d="M176.007 491.194C171.644 488.899 167.28 486.679 162.917 484.458C161.66 483.866 160.477 485.494 161.808 486.235C166.097 488.529 170.46 490.824 174.898 493.044C176.229 493.637 177.412 491.934 176.007 491.194Z" fill="#F55B7F"/>
<path d="M270.296 302.737C238.275 365.507 205.218 427.906 174.232 491.268C173.64 492.452 175.637 493.489 176.229 492.378C209.359 430.127 240.567 366.839 272.588 303.996C273.402 302.589 271.035 301.405 270.296 302.737Z" fill="#F55B7F"/>
<path d="M238.57 288.673C235.612 294.225 232.802 299.851 229.992 305.476C229.4 306.66 231.397 307.697 231.989 306.586C235.021 301.035 237.905 295.483 240.715 289.858C241.454 288.525 239.236 287.415 238.57 288.673Z" fill="#F55B7F"/>
<path d="M273.328 301.701C262.679 297.038 252.03 292.448 241.233 288.007C239.975 287.489 238.792 289.118 240.123 289.71C250.698 294.521 261.348 299.11 272.071 303.626C273.55 304.292 274.881 302.367 273.328 301.701Z" fill="#F55B7F"/>
<path d="M291.224 273.721C274.437 278.162 257.502 282.456 240.789 287.415C239.31 287.859 240.123 289.784 241.455 289.414C258.39 285.268 275.103 280.531 291.89 275.868C293.517 275.424 292.629 273.351 291.224 273.721Z" fill="#F55B7F"/>
<path d="M315.481 286.527C301.282 291.19 287.157 296.001 273.032 300.813C271.553 301.331 272.293 303.181 273.698 302.737C287.896 298.074 302.021 293.337 316.146 288.525C317.699 288.007 316.886 286.083 315.481 286.527Z" fill="#F55B7F"/>
<path d="M316.442 286.379C308.973 282.9 301.504 279.569 293.961 276.312C292.703 275.794 291.52 277.422 292.925 278.014C300.395 281.493 307.864 284.898 315.333 288.155C316.59 288.747 317.847 287.045 316.442 286.379Z" fill="#F55B7F"/>
<path d="M315.703 287.119C281.093 345.891 252.843 401.555 223.632 463.214C223.41 463.658 223.558 464.028 223.78 464.325C207.806 473.059 191.906 481.941 176.007 490.898C174.75 491.638 176.081 493.341 177.19 492.674C193.016 484.236 208.768 475.65 224.445 466.915C225.111 465.361 225.851 463.806 226.59 462.326C255.801 401.555 283.755 346.558 317.921 288.377C318.809 287.045 316.442 285.861 315.703 287.119Z" fill="#F55B7F"/>
<path d="M287.009 297.482C259.203 357.957 228.069 417.099 198.71 476.834C198.045 478.24 200.337 479.425 201.003 478.092C230.584 418.506 258.611 357.735 289.671 298.962C290.633 297.334 287.749 295.927 287.009 297.482Z" fill="#F55B7F"/>
<path d="M287.379 295.483C277.987 291.264 268.521 287.119 259.055 283.048C257.798 282.53 256.615 284.158 257.946 284.824C267.338 289.118 276.73 293.337 286.122 297.408C287.601 298 288.858 296.15 287.379 295.483Z" fill="#F55B7F"/>
<path d="M178.521 455.516C162.769 461.512 147.018 467.655 131.266 473.725C129.861 474.243 131.266 476.02 132.449 475.502C148.275 469.506 164.1 463.584 179.926 457.589C181.479 456.996 179.926 454.998 178.521 455.516Z" fill="#F55B7F"/>
<path d="M196.713 420.578C179.704 425.612 162.621 430.423 145.612 435.382C144.133 435.827 144.947 437.751 146.278 437.381C163.361 432.57 180.37 427.61 197.453 422.873C199.154 422.355 198.192 420.134 196.713 420.578Z" fill="#F55B7F"/>
<path d="M216.902 382.828C200.855 386.751 184.807 390.6 168.759 394.597C167.28 394.967 168.094 396.892 169.425 396.596C185.547 392.82 201.594 388.971 217.642 385.122C219.343 384.752 218.455 382.532 216.902 382.828Z" fill="#F55B7F"/>
<path d="M235.243 345.595C219.639 349.814 204.109 354.182 188.579 358.697C187.174 359.141 187.913 360.992 189.244 360.696C204.848 356.55 220.452 352.257 235.982 347.89C237.609 347.372 236.722 345.151 235.243 345.595Z" fill="#F55B7F"/>
<path d="M244.412 307.401C228.513 312.138 212.613 316.801 196.713 321.613C195.308 322.057 196.122 323.981 197.379 323.611C213.353 319.022 229.252 314.359 245.152 309.695C246.853 309.177 245.892 306.957 244.412 307.401Z" fill="#F55B7F"/>
<path d="M242.046 294.595C241.972 294.817 241.824 295.113 241.75 295.335C241.159 297.038 244.043 297.704 244.708 296.075C244.782 295.853 244.93 295.557 245.004 295.335C245.596 293.707 242.638 292.893 242.046 294.595Z" fill="#F55B7F"/>
<path d="M262.013 303.404C261.422 303.478 261.126 303.626 260.534 303.848C258.759 304.588 260.534 307.031 262.161 306.216C262.679 305.994 262.975 305.772 263.344 305.402C264.528 304.514 263.122 303.181 262.013 303.404Z" fill="#F55B7F"/>
<path d="M170.904 484.902L170.386 485.124C168.612 485.865 170.386 488.307 172.013 487.493C172.161 487.419 172.383 487.345 172.531 487.271C174.232 486.309 172.383 484.236 170.904 484.902Z" fill="#F55B7F"/>
<path d="M476.401 260.101C466.713 265.283 455.546 264.839 445.711 270.982C436.245 276.978 428.702 285.194 422.564 294.595C409.326 315.025 403.484 340.488 397.642 363.656C390.986 390.674 385.883 418.136 382.408 445.671C380.928 456.848 379.819 468.026 378.932 479.351C378.562 482.311 378.34 485.198 378.118 488.159C377.527 496.598 380.263 519.692 378.118 534.496C364.363 535.977 350.608 537.013 336.705 537.531C335.152 530.203 335.596 520.358 335.67 515.251C335.522 504.37 335.522 493.415 335.522 482.46C335.522 471.875 335.374 461.364 335.374 450.705C335.226 432.422 337.519 412.658 333.895 394.523C331.159 380.977 319.252 376.462 306.237 378.46C288.192 381.421 276.582 395.781 260.312 401.925C258.611 402.591 257.058 402.813 255.358 402.739C263.123 387.565 270.74 372.243 276.582 356.18C284.938 352.257 293.591 349.518 302.983 348.63C317.33 347.298 332.638 351.221 344.174 359.955C347.354 365.359 349.573 371.503 351.274 377.35C354.749 388.749 356.672 400.519 357.56 412.362C357.781 413.916 360.296 413.694 360.148 411.992C358.817 395.189 356.007 372.317 345.579 356.772C345.357 350.925 344.988 345.151 344.692 339.378C342.769 309.917 339.145 280.309 333.747 251.293C329.014 226.57 322.432 200.441 306.68 180.381C299.877 171.943 291.298 164.689 281.611 159.729C279.54 158.693 277.469 157.731 275.177 156.769C278.431 150.107 281.167 143.297 282.646 136.191C282.868 136.191 283.09 136.339 283.459 136.413C296.105 140.854 307.716 148.182 317.403 157.509C338.628 177.938 350.016 205.178 356.894 233.528C364.437 264.839 368.431 297.334 370.649 329.459C370.279 349 371.684 368.542 369.54 388.083C369.392 389.638 371.906 390.082 372.128 388.453C374.273 368.098 372.794 347.594 373.237 327.09C379.449 305.18 387.214 283.492 401.339 265.431C416.204 246.334 447.19 224.868 472.186 234.712C481.504 238.265 486.754 254.55 476.401 260.101Z" fill="white" fill-opacity="0.5"/>
</g>
<defs>
<filter id="filter0_d" x="0" y="0" width="672" height="547" filterUnits="userSpaceOnUse" color-interpolation-filters="sRGB">
<feFlood flood-opacity="0" result="BackgroundImageFix"/>
<feColorMatrix in="SourceAlpha" type="matrix" values="0 0 0 0 0 0 0 0 0 0 0 0 0 0 0 0 0 0 127 0"/>
<feOffset dy="4"/>
<feGaussianBlur stdDeviation="2"/>
<feColorMatrix type="matrix" values="0 0 0 0 0 0 0 0 0 0 0 0 0 0 0 0 0 0 0.25 0"/>
<feBlend mode="normal" in2="BackgroundImageFix" result="effect1_dropShadow"/>
<feBlend mode="normal" in="SourceGraphic" in2="effect1_dropShadow" result="shape"/>
</filter>
</defs>
</svg>
