<svg width="437" height="560" viewBox="0 0 437 560" fill="none" xmlns="http://www.w3.org/2000/svg">
<g clip-path="url(#clip0)">
<path d="M171.544 328.107L181.937 285.387C181.812 282.13 178.556 279.624 175.301 280.877C175.176 280.877 175.05 281.002 174.925 281.002C170.417 282.631 165.409 283.132 160.4 281.879C143.371 277.745 134.856 257.074 147.628 241.163C150.884 237.154 155.517 234.398 160.525 233.521C170.668 231.642 179.183 235.15 184.692 241.414C184.692 241.414 184.692 241.414 184.692 241.539C187.071 244.17 191.078 243.418 192.706 240.537L202.973 198.067C204.977 189.673 199.843 181.154 191.454 179.025L61.3553 147.454C52.9659 145.45 44.4513 150.586 42.3226 158.98L10.8937 289.145C8.89026 297.539 14.0241 306.058 22.4135 308.188L63.6092 318.21C67.4908 319.213 68.8682 324.098 65.863 326.855C65.863 326.855 65.863 326.855 65.7378 326.855C59.6023 332.367 56.0963 341.011 57.8493 351.034C58.851 356.17 61.4805 360.805 65.4874 363.937C81.3897 376.716 102.05 368.072 106.182 351.159C107.434 346.148 106.934 341.137 105.306 336.626C105.306 336.501 105.181 336.376 105.181 336.251C103.928 332.492 107.309 328.734 111.191 329.736L152.261 339.758C160.901 341.763 169.416 336.626 171.544 328.107Z" fill="#93C3FC"/>
<path d="M64.9865 146.953C64.9865 144.823 63.6092 142.819 61.4805 142.192C58.851 141.441 56.0963 142.944 55.345 145.575C54.5937 148.206 56.0963 150.962 58.7258 151.714" stroke="#161F3D" stroke-width="2" stroke-miterlimit="10" stroke-linecap="round"/>
<path d="M191.704 178.022C191.704 175.893 190.327 173.888 188.198 173.262C185.568 172.51 182.814 174.013 182.062 176.644C181.311 179.275 182.814 182.031 185.443 182.783" stroke="#161F3D" stroke-width="2" stroke-miterlimit="10" stroke-linecap="round"/>
<path d="M60.7292 143.195L135.608 96.2148" stroke="#1F4483" stroke-width="2" stroke-miterlimit="10" stroke-linecap="round"/>
<path d="M142.745 94.962C141.368 96.4654 139.364 97.4676 137.11 97.7182C132.477 97.9687 128.47 94.4609 128.095 89.8256C127.844 85.1902 131.35 81.1813 135.983 80.8054C137.361 80.6801 138.613 80.9307 139.865 81.4318L141.242 73.915" stroke="#161F3D" stroke-width="2" stroke-miterlimit="10" stroke-linecap="round"/>
<path d="M144.373 71.4094C144.248 70.0314 143.121 69.0291 141.743 69.0291C140.366 69.1544 139.364 70.2819 139.364 71.66C139.489 73.0381 140.616 74.0403 141.994 74.0403C143.496 73.915 144.498 72.7875 144.373 71.4094Z" stroke="#161F3D" stroke-width="2" stroke-miterlimit="10" stroke-linecap="round"/>
<path d="M135.608 96.2148L186.57 173.888" stroke="#1F4483" stroke-width="2" stroke-miterlimit="10" stroke-linecap="round"/>
<path d="M208.483 385.736H164.658C161.527 386.613 159.899 390.371 161.778 393.253C161.903 393.378 161.903 393.503 162.028 393.629C164.658 397.638 166.285 402.398 166.285 407.535C166.285 424.949 148.254 438.228 129.723 429.584C125.09 427.329 121.333 423.571 119.205 418.81C115.072 409.414 116.45 400.269 121.083 393.503C121.083 393.503 121.083 393.503 121.083 393.378C123.086 390.497 121.333 386.738 118.203 385.736H74.6281C65.9883 385.736 58.851 392.752 58.851 401.521V535.445C58.851 544.09 65.863 551.231 74.6281 551.231H208.483C217.123 551.231 224.26 544.215 224.26 535.445V493.101C224.26 489.092 228.768 486.586 232.023 488.841C232.023 488.841 232.023 488.841 232.148 488.841C238.91 493.477 248.176 494.98 257.442 490.72C262.2 488.591 266.082 484.832 268.21 480.197C276.85 461.781 263.577 443.615 246.173 443.615C241.039 443.615 236.281 445.244 232.274 447.875C232.148 448 232.023 448 231.898 448.125C228.517 450.255 224.135 447.75 224.135 443.866V401.521C224.135 392.752 217.123 385.736 208.483 385.736Z" fill="#F55B7F"/>
<path d="M271.716 401.521V445.369C272.593 448.501 276.349 450.13 279.229 448.251C279.354 448.125 279.48 448.125 279.605 448C283.612 445.369 288.37 443.741 293.504 443.741C310.909 443.741 324.181 461.781 315.542 480.322C313.288 484.958 309.531 488.716 304.773 490.846C295.382 494.98 286.241 493.602 279.48 488.967C279.48 488.967 279.48 488.967 279.354 488.967C276.475 486.962 272.718 488.716 271.716 491.848V535.571C271.716 544.215 278.728 551.356 287.493 551.356H421.348C429.988 551.356 437.125 544.34 437.125 535.571V401.521C437.125 392.877 430.113 385.736 421.348 385.736H379.026C375.019 385.736 372.514 381.226 374.768 377.969C374.768 377.969 374.768 377.969 374.768 377.843C379.401 371.078 380.904 361.808 376.646 352.537C374.518 347.776 370.761 343.893 366.128 341.763C347.722 333.119 329.566 346.398 329.566 363.812C329.566 368.949 331.193 373.709 333.823 377.718C333.948 377.843 333.948 377.969 334.073 378.094C336.202 381.477 333.698 385.861 329.816 385.861H287.493C278.728 385.736 271.716 392.752 271.716 401.521Z" fill="#6D47A8"/>
<path d="M311.91 168.251C311.91 168.251 309.656 166.371 307.277 165.62C304.898 164.993 307.403 167.624 307.403 167.624C307.403 167.624 303.646 167.624 301.768 168.877C299.764 170.13 304.523 173.638 310.032 175.392L311.91 168.251Z" fill="#FFC13B"/>
<path d="M355.986 160.483C353.732 159.606 351.729 159.857 349.35 160.107C346.344 160.358 342.338 162.362 339.583 163.49C336.953 164.618 334.199 165.62 331.319 166.371C329.19 166.873 327.061 167.374 324.933 166.998C322.929 166.622 321.051 165.494 318.922 165.119C315.166 164.492 311.409 166.998 309.907 170.506C308.53 174.013 309.281 178.148 311.409 181.154C312.161 182.157 312.912 183.034 313.914 183.66C315.542 184.662 317.42 185.163 319.298 185.289C330.066 186.541 340.71 181.906 349.35 175.266C351.353 173.763 353.356 171.884 353.732 169.378" fill="#6D47A8"/>
<path d="M384.785 220.242C384.785 220.242 391.046 220.993 394.803 220.993C398.559 220.993 400.437 219.239 394.552 217.611C390.295 216.483 390.42 215.857 386.413 212.85C385.286 211.973 383.032 212.85 383.032 212.85C383.032 212.85 382.532 216.358 384.785 220.242Z" fill="#8091F4"/>
<path d="M341.336 216.859C341.336 216.859 343.214 220.242 340.334 220.242C337.454 220.242 325.058 220.367 323.681 220.367C322.178 220.367 323.681 216.984 332.571 216.984C345.844 216.859 341.336 216.859 341.336 216.859Z" fill="#8091F4"/>
<path d="M329.691 464.161L340.459 461.154C340.459 461.154 344.967 458.022 360.869 480.949C376.772 503.875 387.29 554.237 387.29 554.237H376.646C372.264 537.7 337.329 493.602 337.079 492.975C337.079 493.101 333.322 474.434 329.691 464.161Z" fill="#93C3FC"/>
<path d="M329.691 464.161C325.684 465.79 320.675 468.17 315.291 471.803C315.291 471.803 304.147 488.34 301.142 508.134C298.262 527.928 304.648 542.336 317.169 553.611H326.56C326.56 553.611 316.794 538.828 318.171 525.799C319.674 512.895 336.703 492.349 336.953 492.975C337.079 493.101 340.835 476.94 329.691 464.161Z" fill="#93C3FC"/>
<path d="M87.7756 461.28C87.7756 461.28 90.4052 460.027 92.9095 460.027C95.4138 460.027 92.2834 461.906 92.2834 461.906C92.2834 461.906 95.9146 462.908 97.4172 464.537C98.9198 466.166 93.5355 468.421 87.6504 468.671V461.28H87.7756Z" fill="#FFC13B"/>
<path d="M350.727 191.427C350.727 191.427 342.338 180.653 332.696 181.53C323.054 182.407 320.55 201.074 331.694 215.606L332.571 217.11H341.336C341.336 217.11 339.833 205.584 339.207 202.076C338.581 198.568 345.718 205.333 348.598 207.463C351.478 209.593 364.876 208.966 363.123 196.063C361.37 182.908 350.727 191.427 350.727 191.427Z" fill="#F55B7F"/>
<path opacity="0.7" d="M350.727 191.427C350.727 191.427 342.338 180.653 332.696 181.53C323.054 182.407 320.55 201.074 331.694 215.606L332.571 217.11H341.336C341.336 217.11 339.833 205.584 339.207 202.076C338.581 198.568 345.718 205.333 348.598 207.463C351.478 209.593 364.876 208.966 363.123 196.063C361.37 182.908 350.727 191.427 350.727 191.427Z" fill="#151F3D"/>
<path d="M381.154 191.427C381.154 191.427 385.787 195.562 387.916 200.949C390.044 206.336 384.66 210.971 383.408 211.848C382.156 212.725 385.537 220.743 385.537 220.743C385.537 220.743 367.13 223.248 351.103 221.494C335.075 219.741 339.583 210.971 344.591 207.338C349.6 203.705 368.883 195.436 368.883 195.436L381.154 191.427Z" fill="#F55B7F"/>
<path d="M48.8338 473.056L22.0378 470.676C22.0378 470.676 14.3997 485.584 14.9006 495.481C15.4014 505.378 18.1562 518.157 10.3928 535.696C2.62951 553.235 0.500859 557.62 0.500859 557.62C0.500859 557.62 5.38424 558.622 10.3928 557.62C10.3928 557.62 22.163 547.472 29.9264 532.063C36.4375 519.284 38.441 504.125 39.067 499.239" fill="#9F62D1"/>
<path d="M39.067 499.365C39.1923 498.362 39.1923 497.861 39.1923 497.861C39.1923 497.861 52.9659 509.262 57.4736 521.038C61.9814 532.814 53.8424 556.617 53.8424 556.617C53.8424 556.617 57.9745 557.62 63.2335 556.743C63.2335 556.743 72.4994 546.595 75.755 531.937C79.0106 517.28 76.7567 507.383 63.1083 489.593C49.4599 471.803 48.8338 473.056 48.8338 473.056" fill="#6D47A8"/>
<path d="M350.477 154.094C346.97 155.848 342.588 155.848 339.082 154.094C336.703 152.966 334.449 150.21 335.701 147.83C336.202 146.702 337.329 146.076 338.205 145.324C340.084 143.57 340.96 140.94 342.338 138.685C343.715 136.43 345.844 134.175 348.473 134.3C350.226 134.425 351.979 135.553 353.732 135.051C354.734 134.676 355.485 133.799 356.362 133.172C357.864 131.919 359.993 131.293 361.996 131.794C363.875 132.295 365.502 134.049 365.628 136.054C365.628 137.432 365.001 138.81 365.502 140.188C366.254 142.443 369.384 142.944 370.887 144.823C372.64 147.204 371.012 150.711 368.507 152.215C365.878 153.593 362.873 153.468 359.868 153.593C356.487 153.718 353.106 154.094 349.725 154.846" fill="#151F3D"/>
<path d="M298.137 419.812C298.137 419.812 294.005 422.443 295.132 427.454C296.258 432.465 297.511 434.846 300.766 435.096C304.022 435.347 309.656 433.718 310.533 428.957C311.409 424.197 304.272 416.054 298.137 419.812Z" fill="#FFC13B"/>
<path d="M37.5645 434.846C37.5645 434.846 42.3226 413.423 59.7275 404.653V417.557L45.2026 440.609L37.5645 434.846Z" fill="#8091F4"/>
<path opacity="0.7" d="M37.5645 434.846C37.5645 434.846 42.3226 413.423 59.7275 404.653V417.557L45.2026 440.609L37.5645 434.846Z" fill="#151F3D"/>
<path d="M48.0825 433.342C48.0825 433.342 55.2198 431.839 59.1014 439.982C63.1083 448.125 66.6143 452.761 72.249 455.642C77.8837 458.523 88.7774 457.145 89.4034 461.53C90.0295 465.915 90.0295 472.179 80.388 470.926C70.7464 469.673 66.2387 468.671 62.8579 466.291C62.8579 466.291 61.8562 471.678 61.3553 475.436C60.9797 479.195 62.357 483.955 50.712 486.711C39.0671 489.468 28.7994 488.34 20.0344 482.702C11.2693 477.065 29.4255 442.863 31.9298 439.481C34.4341 436.098 42.5731 426.076 51.0877 431.338L48.0825 433.342Z" fill="#7FA4F7"/>
<path d="M61.8562 421.19C59.3519 419.311 56.8476 419.186 53.4668 419.937C50.086 420.814 49.9607 426.953 49.9607 426.953C49.7103 425.7 46.5799 424.197 45.9539 427.705C45.3278 431.714 49.0842 431.338 49.0842 431.338C49.0842 431.839 49.2095 432.591 49.4599 433.342C50.3364 433.342 51.2129 433.342 51.9642 433.718C54.5937 434.72 56.3467 435.597 57.8493 437.852C62.4822 437.602 63.7344 434.595 64.3605 429.709C65.1118 423.069 61.8562 421.19 61.8562 421.19Z" fill="#FFC13B"/>
<path d="M48.0825 424.447C48.0825 425.074 48.0825 425.826 48.2077 426.452C48.4582 427.078 48.8338 427.705 49.5851 427.83C50.4616 427.955 51.2129 427.329 51.7137 426.577C52.0894 425.826 52.3398 424.949 52.8407 424.197C53.4668 423.195 54.7189 422.568 55.8458 422.694C56.7223 422.694 57.5989 423.069 58.3501 423.32C62.1066 424.322 66.3639 422.694 68.3673 419.436C69.1186 418.309 69.6195 416.805 69.2438 415.427C68.9934 414.049 67.7413 412.796 66.2387 412.922C64.7361 413.047 63.7344 414.425 62.2318 414.926C60.604 415.553 58.851 414.801 57.2232 414.676C54.3433 414.55 51.3381 415.928 49.8355 418.309C48.4582 420.689 48.4582 421.817 48.0825 424.447Z" fill="#151F3D"/>
<path d="M62.8579 466.416C59.8527 465.038 49.5851 456.77 48.0825 451.007C48.0825 451.007 51.3381 472.179 61.3553 475.562L62.8579 466.416Z" fill="#161F3D"/>
<path d="M355.36 410.291C355.36 410.291 355.61 407.409 356.862 405.154C358.115 403.025 358.115 406.658 358.115 406.658C358.115 406.658 360.744 404.027 362.998 403.526C365.252 403.025 364.375 408.913 361.621 413.924L355.36 410.291Z" fill="#FFC13B"/>
<path d="M261.323 453.011C261.323 453.011 259.32 450.881 257.066 449.879C254.812 448.877 256.941 451.884 256.941 451.884C256.941 451.884 253.31 451.383 251.181 452.385C249.052 453.387 253.31 457.521 258.569 459.902L261.323 453.011Z" fill="#FFC13B"/>
<path d="M314.665 431.087C314.665 431.087 307.152 431.714 302.018 432.841C296.885 433.969 293.504 435.723 289.121 442.864C284.739 450.005 278.603 453.262 275.473 453.638C269.963 454.389 265.706 452.385 263.703 451.884C259.32 450.882 253.811 458.774 259.57 463.535C265.33 468.295 283.236 473.557 295.758 458.148C295.758 458.148 297.761 465.79 306.526 464.537C306.526 464.537 311.284 469.924 315.166 471.803C315.166 471.803 325.308 464.161 340.334 461.154C340.334 461.154 338.331 452.009 334.574 446.371C334.574 446.371 349.35 446.371 357.488 431.338C365.627 416.304 361.996 410.166 357.113 409.414C352.229 408.662 349.725 419.436 345.844 422.944C341.962 426.452 337.579 429.96 325.809 428.707C314.039 427.454 314.665 431.087 314.665 431.087Z" fill="#EBE7FE"/>
<path d="M296.258 418.559C295.632 419.311 294.13 420.94 293.879 421.942C293.504 422.944 293.629 424.072 294.255 424.823C295.132 425.7 296.509 425.7 297.636 425.324C298.763 424.949 299.764 424.322 301.017 423.946C304.147 423.195 307.653 425.7 307.778 428.958C307.903 430.837 306.902 432.716 306.526 434.595C306.025 436.474 306.276 438.855 307.903 439.857C310.533 441.485 313.789 438.103 316.919 438.729C318.922 439.105 320.175 441.11 321.928 442.237C324.557 443.991 327.938 443.615 330.693 442.237C332.821 441.235 334.699 439.481 335.576 437.351C336.452 435.222 336.327 432.465 334.699 430.711C333.322 429.083 330.943 428.081 330.818 426.076C330.693 424.698 331.569 423.57 331.819 422.192C332.195 419.812 330.317 417.557 328.063 416.805C325.809 416.054 323.305 416.054 321.051 416.805C319.048 417.432 316.543 419.06 314.164 418.559C312.787 418.309 310.157 416.805 308.78 416.304C304.648 414.926 301.017 415.051 296.258 418.559Z" fill="#151F3D"/>
<path d="M355.61 159.982C362.247 154.971 372.139 156.349 378.525 161.611C384.911 166.873 388.041 175.266 388.542 183.535C388.667 185.414 388.667 187.544 387.665 189.172C386.914 190.425 385.662 191.427 384.284 192.179C378.65 195.562 372.264 197.441 365.753 198.067C360.494 198.568 354.734 198.192 350.602 194.81C345.969 191.051 344.591 184.412 344.717 178.524C344.717 174.515 345.343 170.506 347.096 166.873C348.849 163.239 352.104 160.233 355.986 159.356" fill="#9F62D1"/>
<path d="M347.597 200.573C347.597 200.573 344.717 200.949 342.588 202.327C340.459 203.705 344.091 203.579 344.091 203.579C344.091 203.579 341.586 206.336 341.211 208.591C340.835 210.846 346.595 209.718 351.603 206.586L347.597 200.573Z" fill="#FFC13B"/>
<path d="M327.813 554.362C327.813 554.362 328.439 557.119 325.559 557.119C322.679 557.119 310.283 557.119 308.905 557.119C307.403 557.119 308.905 553.861 317.921 553.736C328.188 553.485 327.813 554.362 327.813 554.362Z" fill="#F55B7F"/>
<path d="M53.3415 557.244C53.3415 557.244 52.7155 560 55.5954 560C58.4754 560 70.8716 560 72.249 560C73.7516 560 72.249 556.743 63.2335 556.617C52.8407 556.492 53.3415 557.244 53.3415 557.244Z" fill="#161F3D"/>
<path d="M0.125214 557.244C0.125214 557.244 -0.500861 560 2.37908 560C5.25903 560 17.6553 560 19.0327 560C20.5352 560 19.0327 556.743 10.0172 556.617C-0.375646 556.492 0.125214 557.244 0.125214 557.244Z" fill="#161F3D"/>
<path d="M387.665 554.362C387.665 554.362 388.291 557.119 385.411 557.119C382.532 557.119 370.135 557.119 368.758 557.119C367.381 557.119 368.758 553.861 377.773 553.736C388.166 553.485 387.665 554.362 387.665 554.362Z" fill="#F55B7F"/>
<path d="M320.425 476.188L328.94 472.304L332.32 479.32L329.566 485.333L323.18 482.828L320.425 476.188Z" fill="#93C3FC"/>
<path d="M338.706 469.548L347.221 465.539L350.602 472.68L347.972 478.694L341.461 476.188L338.706 469.548Z" fill="#7FA4F7"/>
<path d="M152.387 47.481C152.387 47.481 150.759 42.8456 149.757 40.9665C148.755 39.0873 148.63 43.7226 148.63 43.7226C148.63 43.7226 142.87 41.0917 140.491 43.2215C138.112 45.226 149.131 52.4922 149.131 52.4922L152.387 47.481Z" fill="#FFC13B"/>
<path d="M195.335 108.993L170.543 94.3356C170.543 94.3356 162.905 102.353 149.256 122.398C135.608 142.443 123.337 159.606 123.337 159.606C123.337 159.606 127.469 161.987 132.352 162.237C132.352 162.237 164.532 139.562 176.052 124.653" fill="#1F4483"/>
<path d="M190.702 106.738L196.462 109.494C196.462 109.494 197.213 119.266 196.963 128.286C196.838 137.307 196.087 146.076 188.699 154.219C181.311 162.488 166.786 170.004 166.786 170.004C160.15 170.506 157.019 167.374 157.019 167.374C181.937 149.584 176.177 124.653 176.177 124.653L190.702 106.738Z" fill="#1F4483"/>
<path d="M209.359 66.273C209.359 66.273 204.601 61.7629 191.078 60.7607C177.555 59.7584 169.416 53.9956 161.778 47.9821C154.14 41.9687 144.874 46.8546 149.757 56.1253C154.64 65.396 166.661 73.0381 178.056 74.5414C178.056 74.5414 172.045 84.4385 169.666 90.0761C167.287 95.7137 168.539 99.4721 173.673 103.481C178.807 107.49 190.201 113.503 195.586 114.881C200.97 116.26 211.989 109.244 219.251 93.9598C219.251 93.9598 224.761 98.8457 222.006 106.112C219.126 113.378 207.857 107.114 205.979 115.007C204.225 122.899 215.87 125.53 225.262 120.268C234.778 115.007 244.92 89.7003 223.634 74.0403L215.37 72.2864C215.495 72.4117 209.61 72.4117 209.359 66.273Z" fill="#F55B7F"/>
<path d="M206.98 70.2819C206.73 69.6555 213.742 62.6399 213.742 62.6399C213.742 62.6399 209.61 61.7629 212.364 58.0045C214.618 54.8725 216.371 58.8815 216.371 58.8815C216.371 58.8815 219.001 54.3714 222.507 54.9978C226.013 55.6242 231.648 58.5056 231.648 58.5056C231.648 58.5056 231.648 61.8882 230.145 64.7696C228.893 67.1499 226.013 73.5392 223.509 72.7875C221.004 72.1611 218.75 71.4094 218.75 71.4094L215.62 72.4117C215.495 72.4117 209.234 75.9195 206.98 70.2819Z" fill="#FFC13B"/>
<path d="M208.608 113.754C208.608 113.754 204.476 111.374 201.471 114.13C198.466 116.761 201.972 124.403 208.733 120.519L208.608 113.754Z" fill="#FFC13B"/>
<path d="M220.879 55.3736C221.505 54.3714 220.754 52.9933 219.627 52.6174C218.5 52.3669 217.248 52.868 216.497 53.8702C215.745 54.7472 215.37 55.8747 214.994 57.0022C214.243 59.3825 213.366 61.6376 212.615 64.0179C211.989 65.8971 211.363 68.0268 211.738 69.906C211.989 71.4094 212.865 72.7875 213.867 73.915C215.244 75.5436 217.123 77.047 219.251 77.5481C221.38 78.0492 223.884 77.5481 225.262 75.9194C226.013 74.9172 226.389 73.7897 226.764 72.5369C227.14 71.1588 227.515 69.906 228.016 68.528C225.387 68.528 222.757 67.651 220.754 66.1476C220.128 65.6465 219.502 65.0201 219.126 64.2684C218.5 62.6398 219.627 60.7606 220.503 59.2573C221.505 57.7539 222.382 55.8747 221.505 54.2461" fill="#151F3D"/>
<path d="M220.128 54.7472C220.128 53.6197 220.879 52.6175 221.881 51.9911C222.256 51.7405 222.757 51.6152 223.258 51.6152C224.385 51.6152 225.262 52.4922 226.263 52.9933C228.392 54.1208 230.896 53.8703 233.275 53.8703C234.653 53.8703 236.406 54.3714 236.907 55.7495C237.407 57.2528 236.03 58.6309 234.653 59.2573C232.274 60.3848 229.268 60.2595 226.889 59.132C224.385 57.8792 222.507 55.6242 220.003 54.6219" fill="#151F3D"/>
<path d="M156.894 167.499C156.894 167.499 153.263 171.007 157.52 171.007C161.652 171.007 165.785 174.89 171.044 175.016C176.303 175.141 172.296 172.886 169.165 172.26C166.035 171.633 166.661 170.13 166.661 170.13L156.894 167.499Z" fill="#6D47A8"/>
<path d="M123.337 159.606C123.337 159.606 119.956 163.114 123.838 163.114C127.719 163.114 131.601 166.998 136.359 166.998C141.242 167.123 137.611 164.868 134.606 164.242C131.726 163.615 132.352 162.112 132.352 162.112L123.337 159.606Z" fill="#6D47A8"/>
<path d="M195.711 115.007C195.711 115.007 175.301 109.745 168.915 94.2103L165.534 99.9732C165.409 99.9732 173.548 114.255 195.711 115.007Z" fill="#161F3D"/>
<path d="M219.377 94.085L221.255 90.7025C221.255 90.7025 224.886 95.4631 222.632 102.353C222.632 102.228 221.881 95.3378 219.377 94.085Z" fill="#161F3D"/>
<path d="M178.056 74.6667L180.184 71.5347C180.184 71.5347 166.786 71.2841 158.647 66.774C158.647 66.774 168.79 74.5414 178.056 74.6667Z" fill="#161F3D"/>
<path d="M350.351 141.691C350.351 141.691 344.967 142.192 345.343 147.83C345.844 153.468 346.845 159.356 353.106 158.228L353.732 162.362C353.732 162.362 358.741 162.738 362.622 157.727L361.12 151.087C361.245 150.962 361.996 138.434 350.351 141.691Z" fill="#FFC13B"/>
<path d="M342.463 142.819C342.838 144.573 344.591 145.7 346.47 146.076C348.223 146.327 350.101 145.951 351.854 145.7C353.607 145.324 355.485 145.074 357.238 145.575C358.615 145.951 359.993 147.204 359.617 148.582C359.492 149.083 359.116 149.584 358.991 150.085C358.741 151.213 359.993 152.34 361.12 152.591C362.748 152.966 364.501 152.34 365.628 151.087C366.754 149.834 367.13 148.081 366.754 146.452C366.379 145.324 365.753 144.447 365.001 143.57C362.122 140.438 357.989 138.434 353.607 138.309C349.35 138.183 344.967 139.812 341.962 142.694" fill="#151F3D"/>
<path d="M365.502 167.875C365.502 167.875 361.746 184.036 353.356 187.418C344.967 190.926 345.844 186.541 345.844 186.541C345.844 186.541 345.844 193.056 354.358 197.441C354.358 197.566 370.386 185.038 365.502 167.875Z" fill="#161F3D"/>
<path d="M378.775 194.81C378.775 194.81 380.904 184.161 377.398 174.139C377.398 174.139 374.393 196.063 370.386 197.691C370.386 197.691 375.019 196.689 378.775 194.81Z" fill="#161F3D"/>
<path d="M378.9 174.64C378.9 182.157 377.648 189.799 373.766 196.063C369.885 202.452 362.998 207.213 355.485 207.213C353.231 207.213 350.977 206.711 349.224 205.333C347.471 203.955 346.344 201.7 346.845 199.571C347.221 198.192 348.223 196.94 349.35 196.063C351.603 194.309 354.483 193.307 356.737 191.678C358.49 190.3 359.993 188.546 361.12 186.667C364.501 181.154 366.128 174.389 365.502 167.875" fill="#9F62D1"/>
<path d="M383.533 214.855L383.032 212.349C383.032 212.349 367.506 214.479 360.995 214.855C360.995 214.855 375.144 215.857 383.533 214.855Z" fill="#161F3D"/>
<path d="M287.493 385.736H331.319C334.449 384.859 336.077 381.101 334.199 378.219C334.073 378.094 334.073 377.969 333.948 377.843C331.319 373.834 329.691 369.074 329.691 363.937C329.691 346.524 347.722 333.244 366.254 341.888C370.887 344.143 374.643 347.902 376.772 352.662C380.904 362.058 379.526 371.204 374.893 377.969C374.893 377.969 374.893 377.969 374.893 378.094C372.89 380.975 374.643 384.734 377.773 385.736H421.473C430.113 385.736 437.25 378.72 437.25 369.951V236.152C437.25 227.508 430.238 220.367 421.473 220.367H287.493C278.854 220.367 271.716 227.383 271.716 236.152V278.497C271.716 282.506 267.209 285.011 263.953 282.756C263.953 282.756 263.953 282.756 263.828 282.756C257.066 278.121 247.8 276.617 238.534 280.877C233.776 283.007 229.895 286.765 227.766 291.401C219.126 309.817 232.399 327.982 249.804 327.982C254.938 327.982 259.696 326.354 263.703 323.723C263.828 323.597 263.953 323.597 264.078 323.472C267.459 321.342 271.842 323.848 271.842 327.732V370.076C271.716 378.72 278.728 385.736 287.493 385.736Z" fill="#FFC13B"/>
<path d="M158.647 1.00226L142.745 69.0291" stroke="#1F4483" stroke-width="1.5" stroke-miterlimit="10" stroke-linecap="round"/>
</g>
<defs>
<clipPath id="clip0">
<rect width="437" height="560" fill="white"/>
</clipPath>
</defs>
</svg>
