<svg width="40" height="40" viewBox="0 0 40 40" fill="none" xmlns="http://www.w3.org/2000/svg">
<path d="M26.875 9.375C21.4844 9.375 17.0312 13.3906 16.3438 18.5938H9.72656C9.17188 17.2188 7.82422 16.25 6.25 16.25C4.17969 16.25 2.5 17.9297 2.5 20C2.5 22.0703 4.17969 23.75 6.25 23.75C7.82422 23.75 9.17188 22.7812 9.72656 21.4062H16.3398C17.0312 26.6094 21.4844 30.625 26.875 30.625C32.7422 30.625 37.5 25.8672 37.5 20C37.5 14.1328 32.7422 9.375 26.875 9.375ZM31.875 21.0156C31.5625 21.3281 31.875 21.0156 31.5625 21.3281L28.2031 24.6875C27.8906 25 28.2031 24.6875 27.8906 25H25.8594C25.6875 25 25.5469 24.8594 25.5469 24.6875V21.3281H22.1875C22.0156 21.3281 21.875 21.1875 21.875 21.0156V18.9844C21.875 18.8125 22.0156 18.6719 22.1875 18.6719H25.5469V15.3125C25.5469 15.1406 25.6875 15 25.8594 15H27.8906L31.5625 18.6719C31.875 18.9844 31.5625 18.6719 31.875 18.9844V21.0156Z" fill="white"/>
</svg>
