<svg width="696" height="483" viewBox="0 0 696 483" fill="none" xmlns="http://www.w3.org/2000/svg">
<g opacity="0.1">
<path d="M215.32 64.5679H0V417.474H215.32V64.5679Z" fill="#99BBEB"/>
<path d="M208.27 71.7576H11.2983V404.028H208.27V71.7576Z" fill="white"/>
<path d="M70.1694 205.002C77.5926 189.035 90.1514 183.946 110.74 183.946C135.251 183.946 147.996 192.817 151.638 205.796C107.706 206.356 70.1694 205.002 70.1694 205.002Z" fill="#9BD6E8"/>
<path d="M102.197 106.353C91.8328 109.247 92.2529 115.083 88.7981 120.499C85.3433 125.914 77.8267 129.509 76.893 133.151C76.0059 136.746 79.2273 144.262 75.399 148.511C71.5707 152.713 70.2634 154.814 71.8041 159.062C73.2981 163.264 76.6128 169.893 76.9396 170.78C77.2198 171.668 81.4683 178.017 86.5571 178.904C91.6927 179.791 101.31 181.332 106.119 183.433C110.928 185.534 126.428 180.725 135.018 181.052C143.608 181.332 149.444 175.029 148.837 170.827C148.23 166.625 155.187 158.175 155.14 150.985C155.14 143.235 146.13 137.446 143.702 132.311C141.274 127.175 143.982 118.164 134.971 112.842C129.276 109.481 125.354 109.761 120.825 108.267C116.343 106.679 108.827 104.485 102.197 106.353Z" fill="#3A384D"/>
<path d="M114.803 196.645C112.468 200.1 110.741 200.24 108.173 196.645C106.165 193.797 102.15 187.261 102.15 183.946V150.939C102.15 147.624 104.858 144.916 108.173 144.916H114.803C118.117 144.916 120.825 147.624 120.825 150.939V183.993C120.825 187.261 116.95 193.564 114.803 196.645Z" fill="#F09959"/>
<path d="M114.803 144.916H108.173C104.858 144.916 102.15 147.624 102.15 150.939V180.398C109.574 182.779 116.39 178.064 120.825 172.741V150.939C120.825 147.624 118.117 144.916 114.803 144.916Z" fill="#E38540"/>
<path d="M111.534 172.508C122.596 172.508 131.563 160.301 131.563 145.243C131.563 130.185 122.596 117.978 111.534 117.978C100.473 117.978 91.5054 130.185 91.5054 145.243C91.5054 160.301 100.473 172.508 111.534 172.508Z" fill="#F09959"/>
<path d="M120.825 123.533C108.172 144.916 89.5444 142.768 89.5444 142.768C89.5444 142.768 90.0113 114.476 104.811 112.982C119.611 111.488 128.341 117.417 131.376 127.222C134.364 137.026 131.376 143.515 131.376 143.515C131.376 143.515 126.567 139.734 124.139 133.758C121.758 127.735 120.825 123.533 120.825 123.533Z" fill="#3A384D"/>
<path d="M93.5596 144.823C95.427 148.744 94.8201 152.946 92.2056 154.207C89.5912 155.467 85.9496 153.273 84.0821 149.351C82.2147 145.43 82.8216 141.228 85.436 139.967C88.0505 138.707 91.6921 140.854 93.5596 144.823Z" fill="#F09959"/>
<path d="M128.575 144.823C126.707 148.744 127.314 152.946 129.929 154.207C132.543 155.467 136.185 153.273 138.052 149.351C139.92 145.43 139.313 141.228 136.698 139.967C134.084 138.707 130.442 140.854 128.575 144.823Z" fill="#F09959"/>
<path d="M119.05 160.043C119.05 160.043 115.689 164.431 111.534 164.431C107.379 164.431 104.017 160.043 104.017 160.043H119.05Z" fill="white"/>
<path d="M135.345 248.234H84.7829C81.5615 248.234 78.9004 245.573 78.9004 242.351C78.9004 239.13 81.5615 236.469 84.7829 236.469H135.298C138.52 236.469 141.181 239.13 141.181 242.351C141.227 245.573 138.566 248.234 135.345 248.234Z" fill="#99BBEB"/>
<path d="M144.589 266.302H75.5388C72.3174 266.302 69.6562 263.641 69.6562 260.419C69.6562 257.198 72.3174 254.537 75.5388 254.537H144.589C147.81 254.537 150.471 257.198 150.471 260.419C150.471 263.641 147.81 266.302 144.589 266.302Z" fill="#99BBEB"/>
<path d="M194.03 331.197H26.0976C24.2301 331.197 22.6895 329.656 22.6895 327.788C22.6895 325.921 24.2301 324.38 26.0976 324.38H194.03C195.898 324.38 197.438 325.921 197.438 327.788C197.438 329.656 195.898 331.197 194.03 331.197Z" fill="#99BBEB"/>
<path d="M194.03 347.07H26.0976C24.2301 347.07 22.6895 345.529 22.6895 343.662C22.6895 341.795 24.2301 340.254 26.0976 340.254H194.03C195.898 340.254 197.438 341.795 197.438 343.662C197.438 345.529 195.898 347.07 194.03 347.07Z" fill="#99BBEB"/>
<path d="M194.03 362.897H26.0976C24.2301 362.897 22.6895 361.356 22.6895 359.489C22.6895 357.621 24.2301 356.081 26.0976 356.081H194.03C195.898 356.081 197.438 357.621 197.438 359.489C197.438 361.356 195.898 362.897 194.03 362.897Z" fill="#99BBEB"/>
<path d="M170.547 208.877H49.581C46.2196 208.877 43.5117 206.169 43.5117 202.808V91.3194C43.5117 87.958 46.2196 85.2501 49.581 85.2501H170.547C173.908 85.2501 176.616 87.958 176.616 91.3194V202.808C176.616 206.169 173.908 208.877 170.547 208.877ZM49.581 90.199C48.9741 90.199 48.4605 90.7125 48.4605 91.3194V202.808C48.4605 203.415 48.9741 203.928 49.581 203.928H170.547C171.154 203.928 171.667 203.415 171.667 202.808V91.3194C171.667 90.7125 171.154 90.199 170.547 90.199H49.581Z" fill="#99BBEB"/>
<path d="M67.0422 281.615L70.5437 288.712L78.3871 289.832L72.6913 295.388L74.0452 303.184L67.0422 299.496L60.0391 303.184L61.3931 295.388L55.6973 289.832L63.5407 288.712L67.0422 281.615Z" fill="#99BBEB"/>
<path d="M95.7084 281.615L99.2099 288.712L107.053 289.832L101.404 295.388L102.711 303.184L95.7084 299.496L88.7054 303.184L90.0593 295.388L84.4102 289.832L92.2069 288.712L95.7084 281.615Z" fill="#99BBEB"/>
<path d="M124.421 281.615L127.922 288.712L135.719 289.832L130.07 295.388L131.424 303.184L124.421 299.496L117.418 303.184L118.725 295.388L113.076 289.832L120.919 288.712L124.421 281.615Z" fill="#99BBEB"/>
<path d="M153.086 281.615L156.588 288.712L164.431 289.832L158.735 295.388L160.089 303.184L153.086 299.496L146.083 303.184L147.437 295.388L141.741 289.832L149.585 288.712L153.086 281.615Z" fill="#99BBEB"/>
</g>
<g opacity="0.1">
<path d="M695.354 64.5679H480.034V417.474H695.354V64.5679Z" fill="#99BBEB"/>
<path d="M688.258 71.7576H491.286V404.028H688.258V71.7576Z" fill="white"/>
<path d="M559.541 143.422C559.541 159.249 569.065 184.74 591.522 183.9C613.978 183.059 618.927 158.782 619.814 151.919C620.701 145.056 559.541 143.422 559.541 143.422Z" fill="#7A4E34"/>
<path d="M550.204 205.002C557.627 189.035 570.186 183.946 590.775 183.946C615.285 183.946 628.031 192.817 631.672 205.796C587.74 206.356 550.204 205.002 550.204 205.002Z" fill="#D54A41"/>
<path d="M594.837 196.645C592.502 200.1 590.775 200.24 588.207 196.645C586.2 193.797 582.185 187.261 582.185 183.946V150.939C582.185 147.624 584.892 144.916 588.207 144.916H594.837C598.151 144.916 600.859 147.624 600.859 150.939V183.993C600.859 187.261 596.938 193.564 594.837 196.645Z" fill="#F09959"/>
<path d="M594.837 144.916H588.207C584.892 144.916 582.185 147.624 582.185 150.939V180.398C589.608 182.779 596.424 178.064 600.859 172.741V150.939C600.859 147.624 598.151 144.916 594.837 144.916Z" fill="#E38540"/>
<path d="M611.551 145.243C611.551 160.323 602.587 172.508 591.522 172.508C580.457 172.508 571.493 160.323 571.493 145.243C571.493 130.163 580.457 117.978 591.522 117.978C602.587 117.978 611.551 130.163 611.551 145.243Z" fill="#F09959"/>
<path d="M602.54 124.514C600.159 132.917 594.93 132.824 587.693 135.532C580.41 138.286 576.955 141.041 574.574 146.41C571.54 153.273 575.928 173.208 575.928 173.208C575.928 173.208 557.534 159.436 559.681 137.773C561.829 116.11 574.574 107.753 586.573 107.753C598.571 107.753 603.147 115.083 603.147 115.083C603.147 115.083 609.543 115.13 615.612 122.273C623.736 131.89 621.261 155.327 615.612 163.684C609.963 172.088 606.228 174.702 606.368 174.329C606.508 173.955 611.644 154.674 608.889 142.768C606.088 130.91 602.54 124.514 602.54 124.514Z" fill="#7A4E34"/>
<path d="M599.038 160.043C599.038 160.043 595.677 164.431 591.521 164.431C587.366 164.431 584.005 160.043 584.005 160.043H599.038Z" fill="white"/>
<path d="M615.332 248.234H564.817C561.595 248.234 558.934 245.573 558.934 242.351C558.934 239.13 561.595 236.469 564.817 236.469H615.332C618.553 236.469 621.214 239.13 621.214 242.351C621.214 245.573 618.6 248.234 615.332 248.234Z" fill="#99BBEB"/>
<path d="M624.622 266.302H555.572C552.351 266.302 549.69 263.641 549.69 260.419C549.69 257.198 552.351 254.537 555.572 254.537H624.622C627.844 254.537 630.505 257.198 630.505 260.419C630.458 263.641 627.844 266.302 624.622 266.302Z" fill="#99BBEB"/>
<path d="M674.064 331.197H506.131C504.264 331.197 502.723 329.656 502.723 327.788C502.723 325.921 504.264 324.38 506.131 324.38H674.064C675.931 324.38 677.472 325.921 677.472 327.788C677.472 329.656 675.931 331.197 674.064 331.197Z" fill="#99BBEB"/>
<path d="M674.064 347.07H506.131C504.264 347.07 502.723 345.529 502.723 343.662C502.723 341.795 504.264 340.254 506.131 340.254H674.064C675.931 340.254 677.472 341.795 677.472 343.662C677.472 345.529 675.931 347.07 674.064 347.07Z" fill="#99BBEB"/>
<path d="M674.064 362.897H506.131C504.264 362.897 502.723 361.356 502.723 359.489C502.723 357.621 504.264 356.081 506.131 356.081H674.064C675.931 356.081 677.472 357.621 677.472 359.489C677.472 361.356 675.931 362.897 674.064 362.897Z" fill="#99BBEB"/>
<path d="M650.58 208.877H529.615C526.253 208.877 523.545 206.169 523.545 202.808V91.3194C523.545 87.958 526.253 85.2501 529.615 85.2501H650.58C653.942 85.2501 656.65 87.958 656.65 91.3194V202.808C656.65 206.169 653.942 208.877 650.58 208.877ZM529.615 90.199C529.008 90.199 528.494 90.7125 528.494 91.3194V202.808C528.494 203.415 529.008 203.928 529.615 203.928H650.58C651.187 203.928 651.701 203.415 651.701 202.808V91.3194C651.701 90.7125 651.187 90.199 650.58 90.199H529.615Z" fill="#99BBEB"/>
<path d="M547.076 281.615L550.577 288.712L558.374 289.832L552.725 295.388L554.079 303.184L547.076 299.496L540.073 303.184L541.38 295.388L535.731 289.832L543.574 288.712L547.076 281.615Z" fill="#99BBEB"/>
<path d="M575.742 281.615L579.243 288.712L587.087 289.832L581.391 295.388L582.745 303.184L575.742 299.496L568.739 303.184L570.093 295.388L564.397 289.832L572.24 288.712L575.742 281.615Z" fill="#99BBEB"/>
<path d="M604.408 281.615L607.909 288.712L615.753 289.832L610.103 295.388L611.411 303.184L604.408 299.496L597.405 303.184L598.758 295.388L593.109 289.832L600.906 288.712L604.408 281.615Z" fill="#99BBEB"/>
<path d="M633.12 281.615L636.621 288.712L644.465 289.832L638.769 295.388L640.123 303.184L633.12 299.496L626.117 303.184L627.424 295.388L621.775 289.832L629.618 288.712L633.12 281.615Z" fill="#99BBEB"/>
</g>
<path opacity="0.3" d="M494.18 0H200.1V482.042H494.18V0Z" fill="#99BBEB"/>
<path opacity="0.3" d="M484.516 9.80424H215.506V463.647H484.516V9.80424Z" fill="white"/>
<path d="M324.939 105.139C324.753 104.579 320.037 77.5469 319.477 67.0423C318.917 56.5378 336.378 55.0438 336.378 55.0438C336.378 55.0438 350.664 47.3405 360.982 51.3089C371.299 55.2306 378.349 61.9068 383.018 70.1237C387.733 78.3872 378.909 104.112 378.909 104.112L324.939 105.139Z" fill="#2E2D3D"/>
<path d="M292.586 191.976C292.539 191.51 293.8 180.912 293.846 180.445C296.227 158.035 323.819 151.732 351.411 151.732C383.765 151.732 405.755 157.662 409.256 180.958C409.35 181.659 411.217 192.303 411.124 193.003C351.084 193.891 292.586 191.976 292.586 191.976Z" fill="#D5E1E8"/>
<path d="M356.967 169.147C353.746 173.862 351.412 174.095 347.91 169.147C345.156 165.225 335.912 156.261 335.912 151.779L339.693 106.679C339.693 102.151 343.382 98.4626 347.91 98.4626H356.967C361.496 98.4626 365.184 102.151 365.184 106.679L366.958 151.779C366.912 156.308 359.815 164.898 356.967 169.147Z" fill="#F09959"/>
<path d="M356.967 98.4626H347.91C343.381 98.4626 339.693 102.151 339.693 106.679L336.378 146.69C346.509 149.912 360.235 143.375 366.304 136.092L365.137 106.679C365.184 102.151 361.449 98.4626 356.967 98.4626Z" fill="#E38540"/>
<path d="M321.392 155.047L335.865 181.845C335.865 181.845 343.615 175.449 344.362 176.71C345.109 177.97 343.008 193.75 343.008 193.75C343.008 193.75 360.282 193.984 361.029 193.237C361.776 192.49 357.527 176.103 359.255 176.103C361.029 176.103 366.258 180.865 366.258 180.865L382.458 155.094L378.91 154.207L352.392 168.493L324.006 154.534L321.392 155.047Z" fill="#BDCCD4"/>
<path d="M337.965 167.419L348.75 174.656L345.389 193.797L359.908 193.003L356.313 175.543L365.23 167.419L361.029 163.451H342.167L337.965 167.419Z" fill="#D54A41"/>
<path d="M336.658 141.928L323.353 154.58C323.353 154.58 336.938 178.717 337.685 178.717C338.432 178.717 349.217 165.412 349.217 165.412L356.127 165.272L367.005 176.71L379.657 154.347L366.678 140.668C366.678 140.668 355.66 161.957 353.652 162.424C351.645 162.937 351.645 163.171 350.011 161.91C348.423 160.696 336.658 141.928 336.658 141.928Z" fill="#D5E1E8"/>
<path d="M379.75 98.9295C379.75 119.518 367.518 136.186 352.438 136.186C337.358 136.186 325.126 119.518 325.126 98.9295C325.126 78.3406 337.358 61.6733 352.438 61.6733C367.518 61.6733 379.75 78.3406 379.75 98.9295Z" fill="#F09959"/>
<path d="M327.881 98.3692C330.449 103.738 329.608 109.481 326.014 111.208C322.419 112.936 317.423 109.948 314.902 104.532C312.334 99.1629 313.175 93.4204 316.769 91.693C320.364 90.0123 325.36 92.9535 327.881 98.3692Z" fill="#F09959"/>
<path d="M375.735 98.3692C373.167 103.738 374.007 109.481 377.602 111.208C381.197 112.936 386.192 109.948 388.713 104.532C391.281 99.1629 390.441 93.4204 386.846 91.693C383.251 90.0123 378.302 92.9535 375.735 98.3692Z" fill="#F09959"/>
<path d="M364.531 114.196C364.531 114.196 359.115 122.973 352.392 122.973C345.716 122.973 340.253 114.196 340.253 114.196H364.531Z" fill="white"/>
<path d="M336.378 73.5785C347.63 65.6884 352.719 66.9957 361.169 79.9746C369.619 92.9069 379.75 93.1403 379.75 93.1403L381.057 79.6945C381.057 79.6945 368.452 55.3706 351.598 58.5453C334.697 61.72 325.08 76.94 325.08 76.94C325.08 76.94 324.24 105.419 326.621 106.399C328.955 107.38 329.235 97.2021 330.916 95.1478C332.597 93.0936 329.235 83.3361 331.476 78.8074C333.764 74.3722 336.378 73.5785 336.378 73.5785Z" fill="#2E2D3D"/>
<path d="M372.607 88.2382C376.529 92.5334 375.035 109.621 377.136 109.434C379.19 109.247 379.937 93.0936 379.377 91.4129C378.817 89.7322 372.607 88.2382 372.607 88.2382Z" fill="#2E2D3D"/>
<path d="M413.225 250.895H287.684C283.249 250.895 279.654 247.3 279.654 242.865C279.654 238.43 283.249 234.835 287.684 234.835H413.225C417.66 234.835 421.255 238.43 421.255 242.865C421.255 247.254 417.614 250.895 413.225 250.895Z" fill="#19B29F" fill-opacity="0.24"/>
<path d="M397.585 275.546H303.278C298.842 275.546 295.248 271.951 295.248 267.516C295.248 263.08 298.842 259.486 303.278 259.486H397.585C402.02 259.486 405.615 263.08 405.615 267.516C405.615 271.904 402.02 275.546 397.585 275.546Z" fill="#19B29F" fill-opacity="0.24"/>
<path d="M465.141 364.204H235.768C233.201 364.204 231.1 362.103 231.1 359.536C231.1 356.968 233.201 354.867 235.768 354.867H465.141C467.709 354.867 469.81 356.968 469.81 359.536C469.81 362.103 467.709 364.204 465.141 364.204Z" fill="#19B29F" fill-opacity="0.24"/>
<path d="M465.141 385.867H235.768C233.201 385.867 231.1 383.766 231.1 381.198C231.1 378.631 233.201 376.53 235.768 376.53H465.141C467.709 376.53 469.81 378.631 469.81 381.198C469.81 383.766 467.709 385.867 465.141 385.867Z" fill="#19B29F" fill-opacity="0.24"/>
<path d="M465.141 407.483H235.768C233.201 407.483 231.1 405.382 231.1 402.814C231.1 400.247 233.201 398.146 235.768 398.146H465.141C467.709 398.146 469.81 400.247 469.81 402.814C469.81 405.382 467.709 407.483 465.141 407.483Z" fill="#19B29F" fill-opacity="0.24"/>
<g opacity="0.3">
<path d="M433.067 196.225H267.842C263.734 196.225 260.419 192.91 260.419 188.802V36.5558C260.419 32.4941 263.734 29.1326 267.842 29.1326H433.067C437.175 29.1326 440.49 32.4474 440.49 36.5558V188.802C440.443 192.91 437.129 196.225 433.067 196.225ZM267.842 34.1281C266.488 34.1281 265.368 35.2486 265.368 36.6025V188.848C265.368 190.202 266.488 191.323 267.842 191.323H433.067C434.421 191.323 435.541 190.202 435.541 188.848V36.5558C435.541 35.2019 434.421 34.0814 433.067 34.0814H267.842V34.1281Z" fill="#99BBEB"/>
</g>
<path d="M271.764 296.462L276.573 306.172L287.264 307.713L279.514 315.276L281.335 325.921L271.764 320.879L262.24 325.921L264.061 315.276L256.311 307.713L267.002 306.172L271.764 296.462Z" fill="#AC3B61" fill-opacity="0.541667"/>
<path d="M310.981 296.462L315.743 306.172L326.434 307.713L318.684 315.276L320.552 325.921L310.981 320.879L301.41 325.921L303.231 315.276L295.481 307.713L306.172 306.172L310.981 296.462Z" fill="#AC3B61" fill-opacity="0.541667"/>
<path d="M350.151 296.462L354.913 306.172L365.605 307.713L357.901 315.276L359.722 325.921L350.151 320.879L340.581 325.921L342.401 315.276L334.651 307.713L345.343 306.172L350.151 296.462Z" fill="#AC3B61" fill-opacity="0.541667"/>
<path d="M389.322 296.462L394.084 306.172L404.776 307.713L397.072 315.276L398.893 325.921L389.322 320.879L379.752 325.921L381.572 315.276L373.822 307.713L384.514 306.172L389.322 296.462Z" fill="#AC3B61" fill-opacity="0.541667"/>
<path d="M429.099 296.462L433.908 306.172L444.599 307.713L436.849 315.276L438.67 325.921L429.099 320.879L419.528 325.921L421.396 315.276L413.646 307.713L424.337 306.172L429.099 296.462Z" fill="#AC3B61" fill-opacity="0.541667"/>
</svg>
