<svg width="275" height="275" viewBox="0 0 275 275" fill="none" xmlns="http://www.w3.org/2000/svg">
<path fill-rule="evenodd" clip-rule="evenodd" d="M83.4281 71.2584C84.2284 72.0567 84.8634 73.005 85.2966 74.0491C85.7299 75.0931 85.9529 76.2124 85.9529 77.3428C85.9529 78.4731 85.7299 79.5924 85.2966 80.6365C84.8634 81.6805 84.2284 82.6289 83.4281 83.4271L29.3391 137.499L83.4281 191.571C85.0418 193.185 85.9484 195.373 85.9484 197.655C85.9484 199.937 85.0418 202.126 83.4281 203.74C81.8145 205.353 79.6258 206.26 77.3438 206.26C75.0617 206.26 72.8731 205.353 71.2594 203.74L11.1031 143.583C10.3028 142.785 9.66788 141.837 9.23464 140.793C8.8014 139.749 8.5784 138.629 8.5784 137.499C8.5784 136.369 8.8014 135.249 9.23464 134.205C9.66788 133.161 10.3028 132.213 11.1031 131.415L71.2594 71.2584C72.0577 70.4581 73.006 69.8231 74.0501 69.3899C75.0941 68.9566 76.2134 68.7336 77.3438 68.7336C78.4741 68.7336 79.5934 68.9566 80.6375 69.3899C81.6815 69.8231 82.6299 70.4581 83.4281 71.2584ZM191.572 71.2584C190.772 72.0567 190.137 73.005 189.703 74.0491C189.27 75.0931 189.047 76.2124 189.047 77.3428C189.047 78.4731 189.27 79.5924 189.703 80.6365C190.137 81.6805 190.772 82.6289 191.572 83.4271L245.661 137.499L191.572 191.571C190.773 192.37 190.139 193.318 189.707 194.362C189.274 195.406 189.052 196.525 189.052 197.655C189.052 198.785 189.274 199.904 189.707 200.948C190.139 201.992 190.773 202.941 191.572 203.74C192.371 204.539 193.319 205.172 194.363 205.605C195.407 206.037 196.526 206.26 197.656 206.26C198.786 206.26 199.905 206.037 200.949 205.605C201.993 205.172 202.942 204.539 203.741 203.74L263.897 143.583C264.697 142.785 265.332 141.837 265.765 140.793C266.199 139.749 266.422 138.629 266.422 137.499C266.422 136.369 266.199 135.249 265.765 134.205C265.332 133.161 264.697 132.213 263.897 131.415L203.741 71.2584C202.942 70.4581 201.994 69.8231 200.95 69.3899C199.906 68.9566 198.787 68.7336 197.656 68.7336C196.526 68.7336 195.407 68.9566 194.363 69.3899C193.319 69.8231 192.37 70.4581 191.572 71.2584ZM174.402 17.5646C176.578 18.2379 178.397 19.7476 179.461 21.7618C180.524 23.7761 180.745 26.1302 180.073 28.3068L111.323 251.744C110.587 253.84 109.069 255.568 107.086 256.569C105.103 257.569 102.81 257.762 100.687 257.109C98.5646 256.455 96.7774 255.006 95.7003 253.064C94.6232 251.121 94.3397 248.838 94.9094 246.691L163.659 23.2537C164.333 21.0777 165.842 19.258 167.857 18.1945C169.871 17.1309 172.225 16.9106 174.402 17.5818V17.5646Z" fill="#1F4483" fill-opacity="0.03"/>
</svg>
