<svg width="0" height="0" class="hidden">
  <symbol viewBox="0 0 24 20" fill="none" xmlns="http://www.w3.org/2000/svg" id="mail">
    <path d="M4 3.333h16c1.1 0 2 .75 2 1.667v10c0 .917-.9 1.667-2 1.667H4c-1.1 0-2-.75-2-1.667V5c0-.917.9-1.667 2-1.667z" stroke="#1F4483" stroke-width="1.5" stroke-linecap="round" stroke-linejoin="round"></path>
    <path d="M22 5l-10 5.833L2 5" stroke="#1F4483" stroke-width="1.5" stroke-linecap="round" stroke-linejoin="round"></path>
  </symbol>
  <symbol viewBox="0 0 20 20" fill="none" xmlns="http://www.w3.org/2000/svg" id="smartphone-small">
    <path d="M14.167 1.667H5.833c-.92 0-1.666.746-1.666 1.666v13.334c0 .92.746 1.666 1.666 1.666h8.334c.92 0 1.666-.746 1.666-1.666V3.333c0-.92-.746-1.666-1.666-1.666zM10 15h.008" stroke="#1F4483" stroke-width="1.5" stroke-linecap="round" stroke-linejoin="round"></path>
  </symbol>
</svg>