<svg width="600" height="443" viewBox="0 0 600 443" fill="none" xmlns="http://www.w3.org/2000/svg">
<g opacity="0.2" clip-path="url(#clip0)">
<path d="M508.778 96.3129L22.2938 97.3102L265.779 248.622L508.778 96.3129Z" fill="#94C1FF"/>
<path d="M6.27002 107.226L6.80275 420.846L462.837 419.957C497.345 419.834 525.303 389.857 525.203 352.976L524.752 106.235L265.729 268.458L6.27002 107.226Z" fill="#94C1FF"/>
<path d="M421.507 96.4712C420.889 100.644 420.58 104.84 420.571 109.214C420.532 122.492 423.667 135.066 429.245 146.256L508.779 96.3168L421.507 96.4712Z" fill="#353E93"/>
<path d="M504.197 192.695C511.373 192.753 518.319 191.701 524.833 190.148L524.741 106.395L438.178 160.661C453.611 180.075 477.498 192.766 504.197 192.695Z" fill="#353E93"/>
<path d="M579.319 161.953C614.273 131.755 618.155 78.9168 587.988 43.9365C557.822 8.95616 505.031 5.07979 470.076 35.2784C435.122 65.477 431.241 118.315 461.407 153.295C491.574 188.276 544.365 192.152 579.319 161.953Z" fill="#AC3B61"/>
<path d="M538.725 145.546L519.082 145.197L520.081 80.5865L507.758 80.4626L508.109 60.8019L539.919 61.2635L538.725 145.546Z" fill="white"/>
</g>
<defs>
<clipPath id="clip0">
<rect width="600" height="443" fill="white"/>
</clipPath>
</defs>
</svg>
