<svg id="Layer_1" data-name="Layer 1" xmlns="http://www.w3.org/2000/svg" xmlns:xlink="http://www.w3.org/1999/xlink" viewBox="0 0 1080 1080"><defs><style>.cls-1{fill:#fff;}.cls-2{fill:url(#linear-gradient);}.cls-3{fill:url(#linear-gradient-2);}.cls-4{fill:url(#linear-gradient-3);}</style><linearGradient id="linear-gradient" x1="334.52" y1="713.01" x2="746.44" y2="713.01" gradientUnits="userSpaceOnUse"><stop offset="0" stop-color="#825906"/><stop offset="0.1" stop-color="#875e08"/><stop offset="0.22" stop-color="#976b0e"/><stop offset="0.36" stop-color="#b08017"/><stop offset="0.5" stop-color="#d49e25"/><stop offset="0.59" stop-color="#ecb22e"/><stop offset="0.7" stop-color="#ecb331"/><stop offset="0.77" stop-color="#edb639"/><stop offset="0.83" stop-color="#eebb48"/><stop offset="0.88" stop-color="#f0c35c"/><stop offset="0.93" stop-color="#f2cd77"/><stop offset="0.98" stop-color="#f5d997"/><stop offset="1" stop-color="#f7e0ab"/></linearGradient><linearGradient id="linear-gradient-2" x1="638.36" y1="606.9" x2="663.49" y2="785.74" gradientUnits="userSpaceOnUse"><stop offset="0" stop-color="#ff4d96"/><stop offset="0.11" stop-color="#fc4b91"/><stop offset="0.25" stop-color="#f44383"/><stop offset="0.39" stop-color="#e6386b"/><stop offset="0.54" stop-color="#d32749"/><stop offset="0.68" stop-color="#bd1524"/><stop offset="0.88" stop-color="#ba131f"/><stop offset="1" stop-color="#e01e5a"/></linearGradient><linearGradient id="linear-gradient-3" x1="255.93" y1="562.1" x2="774.34" y2="498.44" gradientUnits="userSpaceOnUse"><stop offset="0" stop-color="#82d3b1"/><stop offset="0.4" stop-color="#58c597"/><stop offset="1" stop-color="#0c2e1f"/></linearGradient></defs><title>Logo with black fill</title><path class="cls-1" d="M725.51,762.9c-46.64-10.38-139.24-55.27-185.49-61-46.59-5.73-135,53.36-186.92,61.34h0c-41.83,11-84.41-33.22-61.92-76.58.43-.84.87-1.65,1.37-2.49l196-339.48c22.87-39.64,80-39.64,102.92,0l196,339.48c.5.84.93,1.65,1.37,2.49C811.59,730.56,767.76,775.3,725.51,762.9Z"/><path class="cls-2" d="M746.44,773.37a88.76,88.76,0,0,1-14-2.16C684.05,760.45,588,713.88,540,708c-48.33-5.94-140.09,55.35-193.89,63.63h0a71,71,0,0,1-11.59.91l161.79-100,.1-.06,16.91-11.6a47,47,0,0,1,53.14,0Z"/><path class="cls-3" d="M732.43,771.22a58,58,0,0,1-16.53-7.93l-30.55-21L566.46,660.85a47,47,0,0,0-53.14,0l-16.91,11.6c3.07-2.58,76.93-64.19,139.19-64.19,64.64,0,162.52,83.88,162.52,83.88C821.72,737.67,776.26,784.08,732.43,771.22Z"/><path class="cls-4" d="M796.7,689.59,593.38,337.45c-23.72-41.12-83-41.12-106.76,0L283.3,689.59c-.52.87-1,1.71-1.42,2.58-23.33,45,20.84,90.86,64.23,79.44h0a57.84,57.84,0,0,0,18-8.36l30.25-20.78,101.92-69.91a.44.44,0,0,1,.1-.07c3.07-2.58,76.93-64.19,139.19-64.19,64.64,0,162.52,83.88,162.52,83.88C797.67,691.3,797.22,690.46,796.7,689.59ZM609,480.05l-.28.45,0,.87.11.65.12.35-.63.13-.18,1.88-.67.87-.55,1.2-.79,1-.93,1.79-.57,1.49L604,492l-1.33,1.91-1.14,1.6-.94.87-1.22,1.34-1.36,1-.93.59-1.22.81-1.75,1.44-1.4,1.31-1.14,1.2-.93,1-.77,1.16-.49.79-1.07.51-.11.46-.65.5-.72.45-.23,1-.54,1.24-.88,1.44-.59,1-.41,1.12-.06,1.58.5.48.68.57,0,1-.27.2.05.91.28.23-.22.48.06.67.31.47.22.77.24.83.39.83.87.57.33,1-.39.93,0,.77.22,1,.16,1,0,1.34-.11.54.2.51-.08.65.16,1.32-.07,1.56-.65.85-.89.85-1.18,1.2-.85.51-1.26.15-1.09.75-1,.55-1.16,1.62-.53.69-1,.25-1.06,1.13-.5.49h-.51l-.2.77v1l.77.72.18,1,.28,1,.09.91h.44l0,.9-.13,1.24-.32,1.08.16.67-.11.57-.5.69-.9.42-1.4.53-1.53.71-.91.74-.29.68.23.61h.34l0,.85-.24,1.38-.35,1.66-.34,1.07-.9,1-.72.49-.61.7-.9,1.38-.53,1.32-.69,1.07-.92,1.29-1,.55-.69,1-1.36,1.27-1.14,1-1.09.91-1.06.49h-.81l-.76.12-.53.24-.18.39-.46-.1-.35-.11-.35.22-.2.47-.61-.13-.79-.24-.83-.16-1.58.24-.85-.2-.75.13-.48.61-1.32.22-1.48.11-.92.74-.72-.1-.63-.41-.25-.35-.83-.11-.12-.63-.57-.3-.16-.81-.59-.83-.16-.59-.15-.68.48-.1.22-.68,0-1-.24-.91-.42-.75-.77-1.11-.51-1-.37-1.12-.36-1-.37-1.2-.49-.71-.74-.61-1-1-.39-.87-.43-.77-.24-.94-.3-1.4-.44-1.82.2-.81-.35-.85-.44-1.29v-2.32l.2-.73-.37-.7-.83-1.34-.66-1.2-.69-1.38-.57-1.35-.79-1.56-.81-1.18-.61-.92-.39-1.18.11-1.13,0-1.6-.13-.9.44-.5.59-1.73L531,532l.22-1.09,1.2-1.62.73-.24.48-1.06.2-1.42,0-1.18-.57-1-.63-1.52-.09-.68-.28-.39.67-.78.07-.64-.41-.81-.77-1.46v-.83l-.92-1.24-.26-1-.16-1-.53-1-.44-.68-1.22-1.18-.72-.83-.47-.59-.89-.59-.63-.85-.64-.85-.28-1-.35-1.16.51-1.07,0-1.3.5.2v-.5l-.41-.37.57-.1-.31-.84.35-1.18.31-1.42.24-1.29-.47-1.44-.15-.55-.51-.13-.3.13-.55-.55-.31-.79-.48.27-.22-.42-.33.19-.72.07-1.12.06-1,.16-1,.3-.72.09-.61-.53-.57-1-.63-1.29-1-1.1-.88-.78-.78.1-1.77.31-1.6.15-1.51.27-.91.1-.51.73-1.16-.11-1.35.66-1.26.7-.81,0-.93.75-.79-.48-.86-.16-.79-.53H499l-.61.31-.85-.11-1.36.18-1.24,0-1.07.37-1.38.41-.94.39-1,.48-.87-.41-1.09-.61-1.6-1-1.4-1.28-1.47-1-1.16-.79-.69-.72-1.24-.45-1.4-1.6-.09-.93-.63-1.54-.46-1-1.27-.65-.82-.65-.19-1-.35-.06-.33.28-.63-.92v-.61l.18-.72-.65.2-1.23-.07-.32-.79-.73-.34v-1.93l.53.29,1-.23,0-.54h-1l-.53-.49-.3-1.18-.83-.72.65-.59.77-1.14.24-.89.39-2,.48-1.28.14-1.4-.29-1.31-.59-.92,0-.59.42-1-.05-.89-1-1-.48-.9.1-1.33.39-.66.68-.17.18-1.16.48-.75.61-1,0-.63.86-.9,1-1,.41-2.32.41-.81,1.29-.78.71-.66.39-1.4.58-1.09,1.6-.2,1.34-.51.61-.83.85-.63,1.1-.81.69-1.07.53-1.34-.33-1.56.05-1.27.52-.77.68-1.24.12-.77.73-.87L489,432l1.27-.51,1.42-.77.77-1,.59-1.22.57-1.38.34-1,.37-.17.51.1.44.63.73.53.67.35.94,0,1.84-.12.53.08.38.31.68,0,1.27-.16,1-.46.63-.9.73-.32h1.2l.41-.53.83-.68.94-.41,1.33-.24,1.47-.16h.65l.44-.46h1.38l.48-.26.81.16,1,0,.81.34.22.22.54-.32,1.26-.37.59-.18.67.13.73-.13.5-.11.51.25,1,0,.53.26.92-.53.93-.5.63-.24.64.26.3.65.33.66.48-.37L528,423l.13.3-.22.41-.49.51-.39.41,0,1,.46.26.44.51,0,.79v.61l-.59.77-.5.63-.81.52-.25.36,0,.4.36.68.71.12.59-.24,0,.35,0,.24.35-.08.35-.2,0,.46.06.37.63.06.55.26.61.39.75.35H532l1.18,0,1,.29.77.5,1.27.26.53.51.18,1,.48.67.94.41,1.54.2,1.46.47,1.2.59.83.72.89.51.77-.27,1.08-1,.46-.76-.37-1.3,0-1,.71-.79.89-.55,1.24-.36.84-.27,1.29.22,1,.39.11.77.42.31,1.09.12.51.39,1.79.05.24.3.16.59.89,0,.41-.13.71.13,1.46.18,1.09.59.86,0,.18.35,1.27.1,1.34.55.87-.51,1.07-.74.47-.31.76.18.55-.46.92.28.89-.1.13.63.7.08.47.29,1-.11,1.32-.2.61-.08.33-.17,1.28,4.26-.64,1.86v1.59l-1,.47-1.63-1.7v-1.09l-.74-.66-.31-.92-.5-.2-.27.49.54.67,0,.82.73.92,1.22,1.67.22,1.28.61.78-.19.43.58.89.43,1.12.5.47.58,1.47,1.17,2.21v1.12l.3,1,1.16.73,1,1.2.43,1,.62,1-.27.27.27,1-.24.5.24,1.43.19,1.56,2.41,1.94.85,1.32.42,1.66.2,1.24.5,1.12.31.66.37-.53.43.26.26.79h.91l.55.48.51.16.54.75.49.67.81.57.94.89.44.73h.48l.65.87v.88l-.76.5-.59.47.17.22.51-.25.53.25.52.44.35.67.46.53.47.16.52.46h.49l.65-.18.81-.28.59-.31.89,0,1,.1.53-.28.55-.5,2.1-.05.73-.32,2-.13L607,480l1.53-.59.46.28Z"/></svg>