<svg width="168" height="286" viewBox="0 0 168 286" fill="none" xmlns="http://www.w3.org/2000/svg">
<path d="M116.058 151.816C110.628 147.873 107.378 141.614 107.378 135.112V117.545C107.378 108.346 100.772 100.634 92.0231 98.9395C91.6427 93.5793 88.7378 89.5331 85.0721 89.5331H78.6052V0H75.6311V89.5331H69.1989C65.5332 89.5331 62.5937 93.5793 62.2479 98.9395C54.294 100.461 48.1038 106.997 47.0663 115.089C47.0663 115.124 47.0663 115.124 47.0663 115.159C46.9626 115.954 46.928 116.749 46.928 117.545V135.112C46.928 141.614 43.6772 147.873 38.2479 151.816C20.196 164.922 9.95967 186.086 10.928 208.427C11.6196 224.68 18.3631 240.104 29.9136 251.862C41.464 263.654 56.7493 270.709 72.9683 271.712C74.3862 271.816 75.8041 271.85 77.2219 271.85C78.6398 271.85 80.0577 271.816 81.4755 271.712C97.6945 270.709 112.98 263.654 124.53 251.862C136.081 240.069 142.824 224.646 143.516 208.427C144.346 186.121 134.144 164.957 116.058 151.816ZM49.8675 117.545C49.8675 117.337 49.8675 117.13 49.8675 116.888H104.369C104.369 117.095 104.369 117.303 104.369 117.545V129.303H49.8675V117.545ZM69.1989 92.5418H85.1066C86.8012 92.5418 88.634 94.9625 89.049 98.6283C88.8761 98.6283 88.6686 98.6283 88.4957 98.6283H65.879C65.7061 98.6283 65.4986 98.6283 65.3257 98.6283C65.6715 94.9625 67.5043 92.5418 69.1989 92.5418ZM65.8098 101.602H88.4611C96 101.602 102.329 106.859 103.988 113.914H50.2824C51.9424 106.859 58.2709 101.602 65.8098 101.602ZM140.403 208.288C139.746 223.781 133.314 238.513 122.282 249.787C111.251 261.026 96.6571 267.769 81.1989 268.738C78.5015 268.911 75.7695 268.911 73.0721 268.738C57.5793 267.769 42.9856 261.026 31.9885 249.787C20.9568 238.548 14.5245 223.816 13.8674 208.288C12.9683 186.986 22.7205 166.755 39.977 154.236C46.2017 149.741 49.902 142.582 49.902 135.112V132.311H104.438V135.112C104.438 142.582 108.138 149.741 114.363 154.236C131.585 166.79 141.337 186.986 140.403 208.288Z" fill="#FFDE56"/>
<path d="M125.118 215.758C125.222 215.758 125.291 215.793 125.36 215.793C126.086 215.793 126.709 215.274 126.847 214.548C127.366 211.677 127.608 208.738 127.608 205.798C127.608 204.553 127.574 203.308 127.47 202.098C127.401 201.268 126.709 200.646 125.879 200.715C125.049 200.784 124.427 201.476 124.496 202.305C124.565 203.447 124.634 204.622 124.634 205.798C124.634 208.565 124.392 211.331 123.908 214.029C123.769 214.859 124.323 215.62 125.118 215.758Z" fill="#FFDE56"/>
<path d="M121.28 223.331C116.957 234.19 108.795 243.078 98.317 248.3C97.5908 248.68 97.2796 249.579 97.66 250.305C97.9366 250.824 98.4554 251.135 99.0087 251.135C99.2162 251.135 99.4582 251.101 99.6657 250.963C110.801 245.395 119.481 235.954 124.046 224.403C124.357 223.643 123.977 222.778 123.216 222.467C122.455 222.19 121.591 222.571 121.28 223.331Z" fill="#FFDE56"/>
<path d="M130.375 143.965C129.994 143.965 129.614 143.827 129.337 143.55C128.784 142.997 128.784 142.063 129.337 141.475L137.637 133.176C138.19 132.622 139.124 132.622 139.712 133.176C140.265 133.729 140.265 134.663 139.712 135.251L131.412 143.55C131.135 143.827 130.755 143.965 130.375 143.965Z" fill="#FFDE56"/>
<path d="M138.674 143.965C138.294 143.965 137.913 143.827 137.637 143.55L129.337 135.251C128.784 134.697 128.784 133.764 129.337 133.176C129.89 132.622 130.824 132.622 131.412 133.176L139.712 141.475C140.265 142.029 140.265 142.962 139.712 143.55C139.401 143.827 139.055 143.965 138.674 143.965Z" fill="#FFDE56"/>
<path d="M161.741 156.45C158.282 156.45 155.481 153.648 155.481 150.19C155.481 146.732 158.282 143.931 161.741 143.931C165.199 143.931 168 146.732 168 150.19C168 153.648 165.199 156.45 161.741 156.45ZM161.741 146.836C159.908 146.836 158.386 148.323 158.386 150.19C158.386 152.023 159.873 153.545 161.741 153.545C163.573 153.545 165.095 152.058 165.095 150.19C165.095 148.323 163.573 146.836 161.741 146.836Z" fill="#FFDE56"/>
<path d="M15.2161 144.104L7.36594 136.254C6.98553 135.873 6.8472 135.354 6.98553 134.836C7.12386 134.317 7.50426 133.937 8.023 133.798L18.7435 130.928C19.2622 130.79 19.7809 130.928 20.1613 131.308C20.5417 131.689 20.6801 132.207 20.5417 132.726L17.6714 143.447C17.5331 143.965 17.1527 144.346 16.634 144.484C16.1152 144.588 15.5619 144.45 15.2161 144.104ZM11.2046 135.942L15.4927 140.231L17.0489 134.386L11.2046 135.942Z" fill="#FFDE56"/>
<path d="M150.501 267.873L158.352 275.723C158.732 276.104 158.87 276.623 158.732 277.141C158.594 277.66 158.213 278.04 157.695 278.179L146.974 281.049C146.455 281.187 145.937 281.049 145.556 280.669C145.176 280.288 145.037 279.769 145.176 279.251L148.046 268.53C148.184 268.012 148.565 267.631 149.084 267.493C149.602 267.354 150.121 267.527 150.501 267.873ZM154.513 276L150.225 271.712L148.669 277.556L154.513 276Z" fill="#FFDE56"/>
<path d="M156.968 173.499C156.968 174.328 156.311 174.986 155.481 174.986C154.651 174.986 153.994 174.328 153.994 173.499C153.994 172.669 154.651 172.011 155.481 172.011C156.311 172.011 156.968 172.703 156.968 173.499Z" fill="#FFDE56"/>
<path d="M28.0807 274.617C28.4611 274.617 28.8415 274.755 29.1181 275.032C29.6714 275.585 29.6714 276.519 29.1181 277.107L20.8184 285.406C20.2651 285.96 19.3314 285.96 18.7435 285.406C18.1902 284.853 18.1902 283.919 18.7435 283.331L27.0432 275.032C27.3198 274.755 27.7002 274.617 28.0807 274.617Z" fill="#FFDE56"/>
<path d="M19.7809 274.617C20.1613 274.617 20.5417 274.755 20.8184 275.032L29.1181 283.331C29.6714 283.885 29.6714 284.818 29.1181 285.406C28.5648 285.96 27.6311 285.96 27.0432 285.406L18.7435 277.107C18.1902 276.553 18.1902 275.62 18.7435 275.032C19.0547 274.755 19.4005 274.617 19.7809 274.617Z" fill="#FFDE56"/>
<path d="M2.07489 257.464C2.07489 256.634 2.73195 255.977 3.56192 255.977C4.39189 255.977 5.04896 256.634 5.04896 257.464C5.04896 258.294 4.39189 258.951 3.56192 258.951C2.73195 258.951 2.07489 258.294 2.07489 257.464Z" fill="#FFDE56"/>
<path d="M74.3516 270.813C72.9337 270.813 71.5158 270.778 70.098 270.674C53.8789 269.671 38.5936 262.617 27.0432 250.824C15.4928 239.032 8.74925 223.608 8.0576 207.389C7.0893 185.084 17.3256 163.919 35.3775 150.778C40.8069 146.836 44.0576 140.576 44.0576 134.075V116.507C44.0576 106.063 52.5648 97.5562 63.0086 97.5562H85.6253C96.0691 97.5562 104.576 106.063 104.576 116.507V134.075C104.576 140.576 107.827 146.836 113.256 150.778C131.308 163.885 141.545 185.049 140.576 207.389C139.885 223.643 133.141 239.066 121.591 250.824C110.04 262.617 94.755 269.671 78.536 270.674C77.1873 270.778 75.7694 270.813 74.3516 270.813ZM11.0662 207.251C11.7233 222.743 18.1556 237.475 29.1873 248.749C40.219 259.988 54.8126 266.732 70.2709 267.7C72.9683 267.873 75.7003 267.873 78.3977 267.7C93.8559 266.732 108.484 259.988 119.481 248.749C130.513 237.51 136.945 222.778 137.602 207.251C138.501 185.948 128.749 165.718 111.493 153.199C105.268 148.703 101.568 141.545 101.568 134.075V116.507C101.568 107.723 94.4092 100.565 85.6253 100.565H63.0086C54.2248 100.565 47.0663 107.723 47.0663 116.507V134.075C47.0663 141.545 43.366 148.703 37.1412 153.199C19.9193 165.752 10.1671 185.948 11.0662 207.251Z" fill="white"/>
<path d="M102.986 115.884H45.7521C44.9221 115.884 44.2651 115.227 44.2651 114.397C44.2651 113.567 44.9221 112.91 45.7521 112.91H102.986C103.816 112.91 104.473 113.567 104.473 114.397C104.473 115.193 103.816 115.884 102.986 115.884Z" fill="white"/>
<path d="M102.986 131.274H45.7521C44.9221 131.274 44.2651 130.617 44.2651 129.787C44.2651 128.957 44.9221 128.3 45.7521 128.3H102.986C103.816 128.3 104.473 128.957 104.473 129.787C104.473 130.582 103.816 131.274 102.986 131.274Z" fill="white"/>
<path d="M87.804 100.565C86.9741 100.565 86.317 99.9078 86.317 99.0778C86.317 94.6167 84.2075 91.5043 82.3055 91.5043H66.3977C64.4957 91.5043 62.3862 94.6167 62.3862 99.0778C62.3862 99.9078 61.7291 100.565 60.8991 100.565C60.0692 100.565 59.4121 99.9078 59.4121 99.0778C59.4121 93.1643 62.4899 88.5303 66.3977 88.5303H82.3055C86.2133 88.5303 89.2911 93.1643 89.2911 99.0778C89.2911 99.9078 88.634 100.565 87.804 100.565Z" fill="white"/>
<path d="M122.628 214.755C122.559 214.755 122.455 214.755 122.386 214.72C121.556 214.582 121.037 213.821 121.176 212.991C121.66 210.294 121.902 207.527 121.902 204.761C121.902 203.585 121.867 202.444 121.764 201.268C121.694 200.438 122.317 199.746 123.147 199.677C123.977 199.608 124.669 200.23 124.738 201.06C124.841 202.271 124.876 203.516 124.876 204.761C124.876 207.7 124.634 210.64 124.115 213.51C123.977 214.236 123.32 214.755 122.628 214.755Z" fill="white"/>
<path d="M96.2421 250.098C95.6888 250.098 95.17 249.787 94.8934 249.268C94.513 248.542 94.8242 247.643 95.5504 247.262C106.029 242.04 114.19 233.153 118.513 222.294C118.824 221.533 119.689 221.153 120.45 221.464C121.21 221.775 121.591 222.64 121.28 223.4C116.68 234.951 108.035 244.392 96.8991 249.96C96.6916 250.063 96.4496 250.098 96.2421 250.098Z" fill="white"/>
<path d="M72.8645 90.0173C72.8645 90.8473 73.5216 91.5043 74.3515 91.5043C75.1815 91.5043 75.8386 90.8473 75.8386 90.0173V0H72.8645V90.0173Z" fill="white"/>
<path d="M128.3 141.545C127.919 141.545 127.539 141.406 127.262 141.13C126.709 140.576 126.709 139.643 127.262 139.055L135.562 130.755C136.115 130.202 137.049 130.202 137.637 130.755C138.19 131.308 138.19 132.242 137.637 132.83L129.337 141.13C129.061 141.406 128.68 141.545 128.3 141.545Z" fill="white"/>
<path d="M136.599 141.545C136.219 141.545 135.839 141.406 135.562 141.13L127.262 132.83C126.709 132.277 126.709 131.343 127.262 130.755C127.816 130.202 128.749 130.202 129.337 130.755L137.637 139.055C138.19 139.608 138.19 140.542 137.637 141.13C137.326 141.406 136.98 141.545 136.599 141.545Z" fill="white"/>
<path d="M159.666 154.029C156.208 154.029 153.406 151.228 153.406 147.77C153.406 144.311 156.208 141.51 159.666 141.51C163.124 141.51 165.925 144.311 165.925 147.77C165.925 151.228 163.124 154.029 159.666 154.029ZM159.666 144.415C157.833 144.415 156.311 145.902 156.311 147.77C156.311 149.602 157.798 151.124 159.666 151.124C161.499 151.124 163.02 149.637 163.02 147.77C163.02 145.902 161.499 144.415 159.666 144.415Z" fill="white"/>
<path d="M13.1412 141.683L5.29105 133.833C4.91064 133.453 4.77231 132.934 4.91064 132.415C5.04897 131.896 5.42937 131.516 5.9481 131.378L16.6686 128.507C17.1873 128.369 17.706 128.507 18.0864 128.888C18.4668 129.268 18.6052 129.787 18.4668 130.306L15.5965 141.026C15.4582 141.545 15.0778 141.925 14.5591 142.063C14.0403 142.167 13.487 142.029 13.1412 141.683ZM9.12966 133.522L13.4178 137.81L14.974 131.965L9.12966 133.522Z" fill="white"/>
<path d="M148.427 265.453L156.277 273.303C156.657 273.683 156.795 274.202 156.657 274.721C156.519 275.239 156.138 275.62 155.62 275.758L144.899 278.628C144.38 278.767 143.862 278.628 143.481 278.248C143.101 277.868 142.963 277.349 143.101 276.83L145.971 266.11C146.11 265.591 146.49 265.21 147.009 265.072C147.527 264.934 148.046 265.107 148.427 265.453ZM152.438 273.579L148.15 269.291L146.594 275.136L152.438 273.579Z" fill="white"/>
<path d="M154.859 171.078C154.859 171.908 154.202 172.565 153.372 172.565C152.542 172.565 151.885 171.908 151.885 171.078C151.885 170.248 152.542 169.591 153.372 169.591C154.202 169.591 154.859 170.282 154.859 171.078Z" fill="white"/>
<path d="M26.0058 272.196C26.3862 272.196 26.7666 272.334 27.0432 272.611C27.5965 273.164 27.5965 274.098 27.0432 274.686L18.7435 282.986C18.1902 283.539 17.2565 283.539 16.6686 282.986C16.1153 282.432 16.1153 281.499 16.6686 280.911L24.9683 272.611C25.245 272.334 25.6254 272.196 26.0058 272.196Z" fill="white"/>
<path d="M17.7061 272.196C18.0865 272.196 18.4669 272.334 18.7435 272.611L27.0432 280.911C27.5965 281.464 27.5965 282.398 27.0432 282.986C26.4899 283.539 25.5562 283.539 24.9683 282.986L16.6686 274.686C16.1153 274.133 16.1153 273.199 16.6686 272.611C16.9452 272.334 17.3256 272.196 17.7061 272.196Z" fill="white"/>
<path d="M0 255.043C0 254.213 0.657062 253.556 1.48703 253.556C2.317 253.556 2.97407 254.213 2.97407 255.043C2.97407 255.873 2.317 256.53 1.48703 256.53C0.657062 256.53 0 255.873 0 255.043Z" fill="white"/>
</svg>
