<svg width="30" height="30" viewBox="0 0 30 30" fill="none" xmlns="http://www.w3.org/2000/svg">
<path d="M15 8.99111C11.6748 8.99111 8.99121 11.6747 8.99121 14.9999C8.99121 18.3251 11.6748 21.0087 15 21.0087C18.3252 21.0087 21.0088 18.3251 21.0088 14.9999C21.0088 11.6747 18.3252 8.99111 15 8.99111ZM15 18.9052C12.8496 18.9052 11.0947 17.1503 11.0947 14.9999C11.0947 12.8495 12.8496 11.0946 15 11.0946C17.1504 11.0946 18.9053 12.8495 18.9053 14.9999C18.9053 17.1503 17.1504 18.9052 15 18.9052ZM21.2549 7.34462C20.4785 7.34462 19.8516 7.97157 19.8516 8.74794C19.8516 9.52431 20.4785 10.1513 21.2549 10.1513C22.0313 10.1513 22.6582 9.52724 22.6582 8.74794C22.6584 8.56359 22.6223 8.381 22.5519 8.21064C22.4814 8.04028 22.3781 7.88548 22.2477 7.75513C22.1173 7.62477 21.9626 7.52141 21.7922 7.45097C21.6218 7.38053 21.4392 7.34439 21.2549 7.34462V7.34462ZM26.7129 14.9999C26.7129 13.3827 26.7275 11.7802 26.6367 10.1659C26.5459 8.29091 26.1182 6.62685 24.7471 5.25575C23.3731 3.88173 21.7119 3.45693 19.8369 3.36611C18.2197 3.27529 16.6172 3.28993 15.0029 3.28993C13.3857 3.28993 11.7832 3.27529 10.1689 3.36611C8.29395 3.45693 6.62988 3.88466 5.25879 5.25575C3.88477 6.62978 3.45996 8.29091 3.36914 10.1659C3.27832 11.7831 3.29297 13.3856 3.29297 14.9999C3.29297 16.6142 3.27832 18.2196 3.36914 19.8339C3.45996 21.7089 3.8877 23.3729 5.25879 24.744C6.63281 26.1181 8.29395 26.5429 10.1689 26.6337C11.7861 26.7245 13.3887 26.7099 15.0029 26.7099C16.6201 26.7099 18.2227 26.7245 19.8369 26.6337C21.7119 26.5429 23.376 26.1151 24.7471 24.744C26.1211 23.37 26.5459 21.7089 26.6367 19.8339C26.7305 18.2196 26.7129 16.6171 26.7129 14.9999V14.9999ZM24.1348 21.9081C23.9209 22.4413 23.6631 22.8397 23.25 23.2499C22.8369 23.663 22.4414 23.9208 21.9082 24.1347C20.3672 24.747 16.708 24.6093 15 24.6093C13.292 24.6093 9.62989 24.747 8.08887 24.1376C7.55567 23.9237 7.15723 23.6659 6.74707 23.2528C6.33399 22.8397 6.07617 22.4442 5.86231 21.911C5.25293 20.3671 5.39063 16.7079 5.39063 14.9999C5.39063 13.2919 5.25293 9.62978 5.86231 8.08876C6.07617 7.55556 6.33399 7.15712 6.74707 6.74697C7.16016 6.33681 7.55567 6.07607 8.08887 5.8622C9.62989 5.25282 13.292 5.39052 15 5.39052C16.708 5.39052 20.3701 5.25282 21.9111 5.8622C22.4443 6.07607 22.8428 6.33388 23.2529 6.74697C23.666 7.16005 23.9238 7.55556 24.1377 8.08876C24.7471 9.62978 24.6094 13.2919 24.6094 14.9999C24.6094 16.7079 24.7471 20.3671 24.1348 21.9081Z" fill="#1F4483"/>
</svg>
