<svg width="632" height="611" viewBox="0 0 632 611" fill="none" xmlns="http://www.w3.org/2000/svg">
<g opacity="0.1">
<path d="M624.125 370.297L568.795 336.98C564.234 334.154 561.606 328.997 562.052 323.643C562.598 316.801 562.895 309.91 562.895 302.919C562.895 289.929 562.003 277.287 560.019 264.942C559.127 259.141 561.705 253.439 566.713 250.514L624.522 215.611C630.719 211.942 633.049 204.059 629.826 197.515L602.558 142.135C599.435 135.888 592.196 132.963 585.652 135.293L527.248 156.513C521.596 158.694 515.2 156.81 511.383 151.853C495.319 131.079 475.934 112.884 454.02 98.01C448.715 94.4403 446.534 87.4993 448.715 81.5003L461.705 46.0018C464.085 39.2591 461.159 31.624 454.665 28.4014L399.632 1.48009C398.492 0.934727 397.401 0.488521 396.162 0.290206C390.51 -0.899684 384.511 1.62884 381.486 6.78503L356.548 48.0841L350.5 58.1486C339.146 56.5125 327.445 55.6697 315.695 55.6697C299.83 55.6697 284.262 57.1571 269.339 59.9831C263.638 61.0242 257.837 58.5948 254.912 53.5874L226.85 6.98334C222.983 0.637257 214.951 -1.74252 208.308 1.57926L165.967 22.3528L153.87 28.3518C147.227 31.5744 144.054 39.3583 146.632 46.2497L164.331 95.0848C166.463 100.737 164.778 107.083 160.117 110.752C146.384 121.957 133.84 134.55 122.834 148.382C121.793 149.522 120.95 150.613 120.008 151.853C119.71 152.299 119.363 152.646 119.016 152.993C115.149 157.157 109.15 158.496 103.796 156.513L46.086 135.591C45.4414 135.293 44.7473 135.145 44.1028 135.045C37.9055 133.756 31.4106 136.88 28.5351 142.68L1.61377 197.515C-1.60885 204.158 0.721366 212.091 7.01787 215.958L64.7276 250.713C69.6854 253.588 72.2139 259.24 71.2719 264.892C69.388 277.287 68.3964 290.029 68.3964 303.068C68.3964 309.959 68.6939 316.801 69.2392 323.593C69.6854 329.097 67.0082 334.352 62.2486 337.178L6.72041 370.743C0.572642 374.412 -1.7576 382.245 1.41544 388.69L28.3863 443.425C31.6089 450.069 39.2937 453.242 46.3339 450.664L92.5413 433.906C98.7386 431.675 105.58 433.906 109.249 439.31C123.429 460.827 140.881 479.915 160.91 496.028C165.72 499.747 167.554 506.242 165.422 512.042L146.533 564.05C144.004 571.041 147.177 578.775 153.771 582.097L208.407 608.969C214.951 612.191 222.933 609.812 226.602 603.614L228.09 601.235L257.044 553.242C260.167 548.086 266.017 545.508 271.917 546.549H271.967C286.146 549.078 300.723 550.416 315.646 550.416C323.628 550.416 331.412 549.97 339.245 549.276C344.649 548.731 349.905 551.309 352.681 555.969L381.139 603.267C385.006 609.762 393.286 612.142 399.979 608.82L454.516 581.948C456.053 581.155 457.391 580.114 458.532 578.974C462.101 575.156 463.44 569.455 461.655 564.298L447.426 525.329C445.74 520.52 446.732 515.166 449.905 511.398C450.748 510.406 451.739 509.514 452.88 508.721C480.346 490.376 503.847 466.777 522.092 439.261C525.116 434.551 530.768 432.27 536.172 433.212C536.965 433.361 537.709 433.559 538.502 433.857L585.206 450.862C591.948 453.341 599.534 450.317 602.756 443.822L603.401 442.533L629.678 389.137C632.95 382.196 630.521 374.164 624.125 370.297ZM187.435 264.942C190.112 255.423 193.781 245.755 198.59 236.136C207.762 217.743 230.37 194.986 248.814 185.913C250.797 184.922 252.78 184.029 254.713 183.087C375.487 128.848 491.997 247.44 433.445 368.264C425.76 384.03 408.804 402.572 392.195 414.075C388.328 416.702 384.511 418.983 380.941 420.718C364.084 428.899 347.327 433.708 330.966 435.493C237.807 445.855 161.158 360.232 187.435 264.942Z" fill="#AFCDFB"/>
</g>
<path d="M279.899 531.031C281.04 532.32 281.189 533.807 280.643 535.344C279.602 538.22 276.131 541.442 272.116 544.665C271.62 545.062 271.124 545.458 270.727 545.805C270.628 545.905 270.529 546.004 270.43 546.103C270.331 546.152 270.281 546.252 270.182 546.301C266.464 549.772 267.852 550.515 261.159 557.506C253.524 565.488 248.219 565.637 246.731 564.893C245.442 564.298 248.02 560.035 250.896 555.275C251.045 555.027 251.193 554.829 251.292 554.581C251.689 553.936 252.036 553.292 252.433 552.697C255.804 546.995 254.912 544.318 254.118 535.79C253.474 528.899 243.36 497.169 243.36 497.169L258.035 494.64C258.035 494.64 262.448 519.876 267.306 523.792C269.934 525.875 272.81 525.875 275.338 527.412C275.536 527.511 275.685 527.61 275.834 527.759C277.321 528.75 278.759 529.742 279.899 531.031Z" fill="#E49963"/>
<path d="M279.9 531.031C281.04 532.32 281.189 533.807 280.643 535.344C279.354 538.22 275.983 541.442 272.116 544.665C271.62 545.062 271.174 545.458 270.777 545.855C270.678 545.954 270.579 546.053 270.48 546.152C270.381 546.202 270.331 546.301 270.232 546.351C266.513 549.821 267.902 550.565 261.208 557.556C253.573 565.538 248.268 565.686 246.781 564.943C245.492 564.348 248.07 560.084 250.946 555.325C252.433 554.779 259.374 551.953 264.58 545.26C269.191 539.36 272.265 531.824 275.388 527.461C275.586 527.56 275.735 527.66 275.884 527.808C277.322 528.75 278.759 529.742 279.9 531.031Z" fill="#C65447"/>
<path d="M161.605 521.908C160.712 526.42 154.217 525.676 147.028 523.941C139.839 522.156 141.525 524.288 131.262 523.148C120.999 522.008 117.876 518.19 117.579 516.653C117.281 515.314 122.388 514.819 127.792 514.174C128.486 514.075 129.18 514.025 129.874 513.926C136.022 513.133 140.534 509.216 146.086 505.944C151.391 502.87 159.274 490.277 159.274 490.277L173.355 491.417C173.355 491.417 165.967 502.622 163.092 507.531C161.406 510.406 161.505 514.174 161.704 517.149C161.803 518.686 161.902 520.272 161.605 521.908Z" fill="#E49963"/>
<path d="M147.028 523.892C139.839 522.107 141.525 524.239 131.262 523.098C120.999 521.958 117.876 518.14 117.579 516.604C117.281 515.265 122.388 514.769 127.792 514.125L127.841 514.224C127.841 514.224 133.989 518.587 142.566 518.785C149.507 518.934 156.895 516.951 161.704 517.05C161.803 518.636 161.902 520.272 161.605 521.859C160.712 526.42 154.217 525.676 147.028 523.892Z" fill="#C65447"/>
<path d="M192.938 315.115C192.938 315.115 189.567 306.885 185.898 306.538C182.229 306.191 170.479 304.357 169.636 306.042C168.794 307.728 169.636 313.777 172.165 315.958C174.693 318.14 190.261 321.66 190.261 321.66L192.938 315.115Z" fill="#E49963"/>
<path d="M215.546 431.873L245.888 513.53C245.888 513.53 250.549 513.976 255.011 512.687C259.126 511.497 263.836 508.373 263.836 508.373C263.836 508.373 256.3 429.989 242.517 413.678C228.734 397.366 215.546 431.873 215.546 431.873Z" fill="#AA413E"/>
<path d="M335.577 398.804C335.577 398.804 248.368 369.305 228.933 375.601C209.498 381.898 151.094 498.012 151.094 498.012C151.094 498.012 152.433 499.747 156.002 501.135C159.324 502.374 167.455 502.325 167.455 502.325C167.455 502.325 220.157 457.159 226.404 443.971C232.701 430.783 235.18 418.239 241.476 419.528C247.773 420.768 322.389 450.267 339.345 432.716C356.301 415.165 351.838 392.31 351.838 392.31L335.577 398.804Z" fill="#C65447"/>
<path d="M282.279 261.669C280.891 258.794 279.354 253.687 278.561 244.565C278.66 245.457 280.247 256.959 284.659 263.454C302.805 275.353 337.56 315.115 336.866 322.651C336.866 322.651 349.111 301.878 349.31 301.779C349.31 301.779 371.868 273.073 345.145 256.612C331.561 248.234 331.61 237.525 332.205 228.204C332.8 218.883 328.487 178.774 301.268 189.235C301.268 189.235 296.905 187.301 294.922 187.599C294.922 187.599 296.508 187.896 297.351 188.739C294.178 188.541 289.667 188.789 285.899 190.921C275.884 196.622 266.959 247.539 282.279 261.669Z" fill="#B5453C"/>
<path d="M285.75 264.049C285.651 264.099 294.525 268.66 301.169 266.875C307.416 265.19 311.531 257.059 311.432 257.059C308.804 256.513 308.011 252.894 308.06 237.227L306.87 237.475L286.741 241.441C286.741 241.441 287.188 247.787 287.237 253.737C287.188 258.794 286.89 263.553 285.75 264.049Z" fill="#E49963"/>
<path d="M286.741 241.441C286.741 241.441 287.188 247.787 287.237 253.737C298.492 253.439 304.491 243.127 306.92 237.425L286.741 241.441Z" fill="#D68D5D"/>
<path d="M308.953 235.244C308.953 235.244 314.853 225.923 316.29 217.941C317.282 212.239 314.406 191.119 293.187 194.143C293.187 194.143 287.039 194.738 281.238 198.655C276.627 201.778 269.984 208.471 277.421 226.915L279.354 233.162L308.953 235.244Z" fill="#B5453C"/>
<path d="M282.973 247.093C282.973 247.093 309.647 247.539 309.647 230.931C309.647 214.322 313.117 203.166 296.112 202.175C279.106 201.183 275.785 207.529 274.396 213.082C273.058 218.635 276.032 246.548 282.973 247.093Z" fill="#E49963"/>
<path d="M283.965 201.778C283.965 201.778 291.253 221.263 302.458 224.138C313.663 227.014 318.521 224.039 318.521 224.039C318.521 224.039 309.944 217.197 308.159 205.298C308.159 205.298 289.468 192.507 283.965 201.778Z" fill="#B5453C"/>
<path d="M285.75 203.365C285.75 203.365 280.296 207.728 278.958 211.942C277.619 216.156 277.024 224.882 274.495 224.585C274.495 224.585 268.992 211.347 275.19 203.861C281.734 195.928 285.75 203.365 285.75 203.365Z" fill="#B5453C"/>
<path d="M345.145 335.839C347.773 324.783 338.849 303.415 329.478 285.666C321 269.602 312.225 256.563 311.432 257.059C289.072 270.346 287.039 259.29 287.039 259.29C287.039 259.29 266.712 261.967 260.96 271.883C253.028 285.566 244.352 326.667 235.824 326.023C231.907 325.725 192.591 310.951 192.591 310.951C192.591 310.951 186.047 317.098 187.286 324.634C187.286 324.634 206.672 337.624 223.132 345.904C231.808 350.267 239.641 353.341 243.36 352.498C250.846 350.713 262.497 333.41 268.843 323.197L268.893 323.147C276.925 368.76 266.017 379.122 271.521 383.931C277.371 388.988 285.75 381.501 304.144 389.484C316.191 394.739 332.949 402.275 344.253 403.613C350.153 404.308 354.565 403.266 356.003 399.3C360.217 387.699 340.138 356.861 345.145 335.839Z" fill="#699DEE"/>
<path d="M288.873 237.029C288.873 237.029 288.378 239.161 283.122 238.814C283.122 238.814 278.71 238.566 278.858 236.236C278.858 236.236 283.122 234.55 288.873 237.029Z" fill="white"/>
<path d="M356.003 399.3C354.565 403.316 350.153 404.308 344.253 403.613C336.469 400.193 302.755 387.153 303.102 378.328C303.648 365.24 309.597 364.793 305.383 348.631C302.012 335.641 333.197 311.496 338.154 306.241C347.475 323.94 347.773 324.783 345.145 335.839C340.138 356.861 360.217 387.699 356.003 399.3Z" fill="#4A75CB"/>
<path d="M268.843 323.197C262.547 333.41 250.846 350.713 243.36 352.498C239.691 353.39 231.808 350.316 223.132 345.904C229.478 347.54 235.626 347.49 241.625 346.895C248.12 346.251 250.003 338.318 260.217 326.419C266.91 318.735 268.546 320.668 268.843 323.197Z" fill="#4A75CB"/>
<path d="M300.078 348.284C300.078 348.284 294.426 343.871 289.121 344.962C283.767 346.003 281.189 349.672 281.387 351.357C281.585 353.043 284.411 357.753 288.477 358.15C292.542 358.546 304.144 355.621 304.144 355.621L300.078 348.284Z" fill="#E49963"/>
<path d="M311.432 257.059C311.432 257.059 333.197 258.397 340.683 268.908C351.293 283.682 369.687 344.02 364.679 357.803L298.541 357.505C298.541 357.505 296.955 350.019 299.186 346.4C301.417 342.78 337.659 336.93 339.344 335.244C341.03 333.559 318.422 302.621 318.422 297.614C318.373 292.557 311.432 257.059 311.432 257.059Z" fill="#699DEE"/>
<path d="M279.85 327.51H199.879L214.356 377.833H294.426L279.85 327.51Z" fill="#1C468A"/>
<path d="M319.315 375.849H214.604V377.833H319.315V375.849Z" fill="#163560"/>
<path d="M246.186 351.853C245.69 350.068 243.856 348.631 242.071 348.631C240.286 348.631 239.295 350.068 239.79 351.853C240.286 353.638 242.121 355.076 243.906 355.076C245.641 355.026 246.682 353.638 246.186 351.853Z" fill="#163560"/>
</svg>
