<svg width="627" height="540" viewBox="0 0 627 540" fill="none" xmlns="http://www.w3.org/2000/svg">
<path d="M605.32 287.05C550.3 174.58 392.94 9.85 188.48 9.42C-24.88 8.98 -45.52 220.59 69.48 279.42C184.48 338.25 16.33 411.55 136.53 485.22C258.19 559.78 518.2 552.78 582.2 494.78C646.2 436.78 629.08 335.64 605.32 287.05Z" fill="url(#paint0_linear)"/>
<path opacity="0.5" d="M483.91 144.52C483.91 144.52 461.76 112 421.72 108.12C421.72 80.97 422.94 5.06 422.94 5.06C422.94 5.06 485.41 9.96 485.07 28.29C484.73 46.62 483.91 144.52 483.91 144.52Z" fill="url(#paint1_linear)"/>
<path d="M229.64 489.48V504.73L203.39 507.48L202.82 500.77L205.89 491.3L229.64 489.48Z" fill="url(#paint2_linear)"/>
<path d="M264 526.73V530.35C263.996 532.064 263.341 533.712 262.168 534.962C260.995 536.211 259.39 536.968 257.68 537.08C251.999 537.424 246.298 537.139 240.68 536.23C230.049 534.486 219.592 531.809 209.43 528.23C204.18 526.48 201.68 526.48 200.93 523.48C200.18 520.48 201.11 513.4 201.11 513.4L232.32 520.52L264 526.73Z" fill="#1F1844"/>
<path d="M281.91 470.02L287.03 483.84L285.07 498.11L281.24 501.51L265.16 496.68L261.21 490.58L265.32 468.94L281.91 470.02Z" fill="url(#paint3_linear)"/>
<path d="M259 500.77V506.92C259 507.978 259.382 509 260.077 509.798C260.772 510.596 261.732 511.115 262.78 511.26C267.1 511.86 274.05 512.87 277.78 513.61C283.52 514.73 297.24 519.72 304.97 520.22C312.7 520.72 321.43 520.84 325.3 518.35C329.17 515.86 328.3 509.99 328.3 509.99L259 500.77Z" fill="#1F1844"/>
<path d="M261.26 484.31C261.26 484.31 257.26 499.53 259.51 501.77C261.76 504.01 278.59 505.14 283.08 508.01C287.57 510.88 305.9 515.37 315.63 514.62C325.36 513.87 328.1 512.62 328.35 510.01C328.6 507.4 309.02 503.77 305.53 501.15C302.04 498.53 299.92 489.3 295.05 486.15C290.18 483 293.93 477.42 288.81 477.15C283.69 476.88 285.07 485.15 277.46 485.63C272.027 485.835 266.588 485.392 261.26 484.31Z" fill="url(#paint4_linear)"/>
<path d="M229.89 231.23C229.89 231.23 219.89 241.23 220.39 264.23C220.89 287.23 226.89 344.73 222.89 362.23C218.89 379.73 209.39 405.73 207.39 435.23C205.39 464.73 203.39 494.73 203.39 494.73H232.39C232.39 494.73 226.89 464.23 235.39 443.23C243.89 422.23 253.89 388.23 257.89 377.73C260.001 372.371 261.837 366.907 263.39 361.36C263.39 361.36 255.89 437.24 255.89 454.74C255.89 472.24 256.89 487.74 261.41 487.24C265.93 486.74 280.89 480.24 282.89 478.74C284.89 477.24 287.39 452.24 286.89 443.24C286.39 434.24 290.89 384.74 290.89 384.74C290.89 384.74 303.39 346.74 306.89 330.24C310.39 313.74 309.39 245.24 309.39 245.24L303.89 234.24L229.89 231.23Z" fill="#1F1844"/>
<path d="M280.89 293.73C271.39 303.73 263.39 362.98 263.39 362.98" stroke="white" stroke-miterlimit="10"/>
<path d="M221.14 498.27C221.52 497.95 221.97 497.53 222.46 497.06C225.52 494.11 230.46 489.01 234.14 492.47C238.39 496.47 236.9 508.35 249.64 514.71C253.45 516.61 266.89 525.49 263.39 528.24C259.89 530.99 260.89 530.49 242.39 529.74C223.89 528.99 200.89 514.74 200.89 514.74C200.89 514.74 201.76 495.99 203.39 495.99C205.02 495.99 203.14 502.99 208.39 503.77C213.64 504.55 221.14 498.27 221.14 498.27Z" fill="url(#paint5_linear)"/>
<path d="M414.14 52.61C414.01 53.35 411.39 53.48 407.64 54.11C403.89 54.74 403.01 56.61 401.64 57.48C400.27 58.35 399.39 60.3501 400.41 60.8501C401.43 61.3501 406.14 57.48 407.27 57.48C408.4 57.48 409.64 59.11 409.77 59.73C409.9 60.35 411.77 62.4801 412.14 64.3501C412.189 64.5989 412.184 64.8553 412.126 65.1022C412.069 65.3491 411.959 65.581 411.805 65.7823C411.651 65.9837 411.456 66.1501 411.232 66.2704C411.009 66.3906 410.763 66.4621 410.51 66.48V69C410.51 70.75 407.89 72.8701 407.51 73.1301C407.13 73.39 405.64 72.63 405.01 71.37C404.38 70.11 402.27 74.37 402.27 74.37C402.27 74.37 398.27 79 396.77 82.1301C395.77 84.32 392.37 87.2 390.31 88.72C385.508 87.7551 380.843 86.2034 376.42 84.1001C376.96 81.3201 378.08 75.2201 377.89 73.1001C377.881 71.8302 378.175 70.5765 378.747 69.4427C379.32 68.309 380.153 67.3277 381.18 66.58C381.18 66.58 382.56 59.5801 382.9 59.3801C383.24 59.18 383.65 53.7 382.9 51.83C382.15 49.96 383.62 49.45 384.35 49.54C386.087 50.3944 387.518 51.7632 388.45 53.4601C389.29 52.3401 390.97 50.08 391.34 49.34C391.84 48.34 397.59 42.34 398.09 41.6C398.59 40.86 402.6 36.33 405.09 38.1C406.41 39.04 403.59 42.1 402.09 43.97C400.59 45.84 393.46 56.3401 394.59 56.6001C395.72 56.8601 400.09 51.84 401.44 50.97C402.403 50.1699 403.591 49.6909 404.84 49.6001C407.537 49.2799 410.263 49.2799 412.96 49.6001C414.89 49.8501 414.27 51.85 414.14 52.61Z" fill="url(#paint6_linear)"/>
<path d="M391.39 88.9C390.06 106.23 380.72 145.23 372.06 155.23C363.4 165.23 314.06 148.23 314.06 148.23C314.06 148.23 318.82 244.91 306.15 245.23C293.48 245.55 226.39 237.23 226.39 237.23C226.39 237.23 230.72 208.56 231.61 192.9C232.5 177.24 214.61 125.9 212.06 115.73C209.51 105.56 212.39 93.73 217.06 89.4C221.73 85.07 245.8 79.8801 249.69 79.4901C280.69 76.3801 299.01 98.6501 303.8 101.72C313.04 99.9601 323.14 97.7201 323.14 97.7201L323.34 98.7201L326.34 113.19L327.34 118.19C338.5 123.29 355.05 127.52 355.05 127.52L362.18 112.09L364.54 106.99L372.29 90.2201L375.38 83.5201C375.38 83.5201 375.74 83.72 376.38 84.04L377.38 84.5201C381.506 86.3742 385.826 87.7628 390.26 88.6601L391.39 88.9Z" fill="#2D1582"/>
<path d="M376.14 85.48C375.39 85.48 379.64 86.85 376.39 89.11C375.136 89.809 373.735 90.2029 372.3 90.26C368.22 90.65 363.01 89.99 361.77 90.35C360.01 90.85 347.77 99.35 348.89 105.11C352.1 105.11 361.37 104.59 364.55 107.03C364.878 107.252 365.148 107.55 365.338 107.897C365.528 108.245 365.631 108.634 365.64 109.03C365.7 111.13 364.14 111.94 362.19 112.18C359.999 112.297 357.801 112.162 355.64 111.78C353.27 111.53 349.01 110.86 347.51 112.26C346.01 113.66 340.64 115.53 336.64 113.78C333.92 112.59 329.1 112.9 326.31 113.23L323.31 98.76C327.07 96.98 333.61 93.87 335.31 92.9C337.81 91.53 346.69 87.4 348.93 86.28C351.17 85.16 359.93 81.66 361.43 81.16C362.93 80.66 378.19 78.9 379.81 79.78C380.98 80.42 378.88 83.15 377.35 84.61C377.018 84.9877 376.604 85.2852 376.14 85.48Z" fill="url(#paint7_linear)"/>
<path d="M252.86 84.24C252.64 82.42 252.16 77.71 251.35 72.24C250.79 68.48 250.2 64.59 249.75 61.58C249.75 61.32 249.67 61.07 249.63 60.83C249.4 59.2003 249.066 57.587 248.63 56L248.38 55.75C241.15 48.6 240.38 42.75 243.1 39.94C243.465 39.5682 243.883 39.2515 244.34 39C244.34 39 239.9 28.53 241.8 18.52C244.33 5.29002 261 0.350019 272 0.380019C283 0.410019 295.48 10.1 295.24 22.38C295.15 27.27 294.24 31.95 294.9 36.2C295.56 40.45 299.21 46.77 297.97 54.34C296.22 65.19 286.63 70.72 280.3 72.51C279.491 72.7391 278.67 72.9194 277.84 73.05L278.05 74.85L278.23 76.31L278.42 77.89C278.686 79.3541 278.764 80.8463 278.65 82.33C278.208 84.8539 276.947 87.1618 275.061 88.897C273.176 90.6322 270.772 91.6982 268.22 91.93C258.94 93.07 253.4 88.66 252.86 84.24Z" fill="url(#paint8_linear)"/>
<path d="M249 43.62C249 43.62 246.26 40.79 245 43.42C243.74 46.05 246.84 49.8 246.84 49.8L249 43.62Z" fill="url(#paint9_linear)"/>
<path d="M253.62 48.55L254.04 51.55C261.71 53.41 279.84 59.8701 282.8 59.4901C286.56 59.0101 286.56 54.49 288.8 54.89C291.04 55.29 291.46 57.89 292.8 57.51C293.5 57.31 297.33 53.3101 298.32 51.0701C298.32 51.0701 298.03 58.84 297.88 60.23C297.55 63.46 292.45 71.23 292.45 71.23C292.191 71.6574 291.842 72.0235 291.428 72.3032C291.013 72.5828 290.543 72.7694 290.05 72.8501L281.27 74.3501L276.27 73.12C269.39 71.65 251.98 63.12 251.44 61.37C250.473 58.1896 249.879 54.9076 249.67 51.59L253.62 48.55Z" fill="#1F1844"/>
<path d="M249.82 62.11C253.223 66.4743 257.533 70.048 262.451 72.5842C267.37 75.1205 272.781 76.5589 278.31 76.8L278.13 75.34L277.92 73.54C269.92 71.75 260.15 66.93 248.45 56.27L248.7 56.52C249.136 58.107 249.47 59.7203 249.7 61.35C249.74 61.6 249.79 61.85 249.82 62.11Z" fill="url(#paint10_linear)"/>
<path d="M246.88 142.38C241.45 142.71 216.54 125.46 216.54 125.46C216.54 125.46 235.79 145.71 245.11 147.96C254.43 150.21 327.75 118.71 327.75 118.71C327.75 118.71 252.31 142 246.88 142.38Z" fill="url(#paint11_linear)"/>
<path d="M247.27 103.21C247.27 103.21 249.53 110.21 251.78 110.96C254.03 111.71 288.48 104.96 298.63 103.21C300.38 102.91 302.27 102.56 304.19 102.21L254.48 107.39L247.27 102.21" fill="url(#paint12_linear)"/>
<path opacity="0.5" d="M303.9 51.09V153.34C303.9 153.34 398.78 180.34 483.9 144.52C483.9 87.76 485.06 28.29 485.06 28.29C457.25 75.38 303.9 51.09 303.9 51.09Z" fill="url(#paint13_linear)"/>
<path opacity="0.5" d="M199.02 217.47L75.89 196.78V76.8L199.02 84.56V217.47Z" fill="url(#paint14_linear)"/>
<path opacity="0.5" d="M391.39 290.12L334.53 304.63V223.68L391.39 213.62V290.12Z" fill="url(#paint15_linear)"/>
<path opacity="0.5" d="M512.19 290.12L455.33 304.63V223.68L512.19 213.62V290.12Z" fill="url(#paint16_linear)"/>
<path d="M100.87 189.22L86.22 186.68V109.74L100.87 111.2V189.22Z" fill="#E9E8EE"/>
<path d="M127.82 193.91L112.41 191.23V137.63L127.82 139.53V193.91Z" fill="#E9E8EE"/>
<path d="M156.18 198.84L139.96 196.02V124.16L156.18 125.91V198.84Z" fill="#E9E8EE"/>
<path d="M186.07 204.04L168.97 201.07V100.99L186.07 102.44V204.04Z" fill="#E9E8EE"/>
<path d="M312.94 139.53L326.12 115.39L346.27 139.53L374.48 96.27L393.44 139.53L404.27 117.9L417.6 128.64L438.94 77.31" stroke="#E8E7ED" stroke-width="4" stroke-miterlimit="10" stroke-linecap="round"/>
<path d="M504 234.36L495 236.55C492.57 237.14 490.71 234.72 490.87 231.13C491.03 227.54 493.14 224.21 495.56 223.68L504.56 221.74C506.87 221.24 508.56 223.64 508.45 227.09C508.3 230.55 506.32 233.8 504 234.36Z" fill="#E9E8EE"/>
<path opacity="0.5" d="M507.81 227.24C507.67 230.41 505.81 233.4 503.73 233.91C501.65 234.42 499.95 232.24 500.09 229.01C500.23 225.78 502.09 222.79 504.24 222.32C506.39 221.85 508 224.07 507.81 227.24Z" fill="url(#paint17_linear)"/>
<path d="M503.06 256.13L494.06 258.75C491.63 259.46 489.76 257.13 489.92 253.54C490.08 249.95 492.19 246.54 494.62 245.88L503.62 243.51C505.93 242.9 507.67 245.21 507.52 248.67C507.36 252.12 505.38 255.46 503.06 256.13Z" fill="#E9E8EE"/>
<path opacity="0.5" d="M506.87 248.84C506.73 252.01 504.87 255.08 502.78 255.69C500.69 256.3 498.99 254.2 499.13 250.98C499.27 247.76 501.13 244.68 503.29 244.11C505.45 243.54 507 245.67 506.87 248.84Z" fill="url(#paint18_linear)"/>
<path d="M429.88 32.44C429.883 36.2822 431.41 39.9663 434.127 42.6831C436.844 45.3999 440.528 46.9274 444.37 46.93V42.93C441.972 42.9504 439.64 42.1481 437.763 40.657C435.886 39.1659 434.576 37.0761 434.053 34.7363C433.53 32.3965 433.825 29.9481 434.889 27.7996C435.953 25.651 437.722 23.9323 439.9 22.93L438.64 19.1C436.035 20.223 433.817 22.0853 432.26 24.4565C430.702 26.8276 429.875 29.6034 429.88 32.44Z" fill="#E8E7ED"/>
<path d="M454.83 31.89C454.83 32.07 454.83 32.26 454.83 32.44C454.83 33.544 454.654 34.641 454.31 35.69L458.25 36.49C458.595 35.3026 458.786 34.076 458.82 32.84L454.83 31.89Z" fill="#E8E7ED"/>
<path d="M458.85 32.44C458.834 28.6082 457.302 24.9385 454.589 22.2328C451.876 19.527 448.202 18.0053 444.37 18V22C447.053 22.0038 449.632 23.0353 451.577 24.8822C453.523 26.7291 454.687 29.2512 454.83 31.93L458.83 32.93C458.84 32.7 458.85 32.57 458.85 32.44Z" fill="#E8E7ED"/>
<path d="M341.54 231.23L385.2 224.12" stroke="#E8E7ED" stroke-width="4" stroke-miterlimit="10" stroke-linecap="round"/>
<path d="M341.54 243.73L385.2 236.18" stroke="#E8E7ED" stroke-width="4" stroke-miterlimit="10" stroke-linecap="round"/>
<path d="M341.54 256.23L385.2 248.25" stroke="#E8E7ED" stroke-width="4" stroke-miterlimit="10" stroke-linecap="round"/>
<path d="M341.54 268.73L385.2 260.32" stroke="#E8E7ED" stroke-width="4" stroke-miterlimit="10" stroke-linecap="round"/>
<path d="M341.54 281.23L385.2 272.38" stroke="#E8E7ED" stroke-width="4" stroke-miterlimit="10" stroke-linecap="round"/>
<path d="M341.54 293.73L385.2 284.45" stroke="#E8E7ED" stroke-width="4" stroke-miterlimit="10" stroke-linecap="round"/>
<path d="M461.2 229.78L474.93 227.67" stroke="#E8E7ED" stroke-width="4" stroke-miterlimit="10" stroke-linecap="round"/>
<path d="M461.2 238.92L478.4 236.03" stroke="#E8E7ED" stroke-width="4" stroke-miterlimit="10" stroke-linecap="round"/>
<path d="M461.2 248.05L481.86 244.39" stroke="#E8E7ED" stroke-width="4" stroke-miterlimit="10" stroke-linecap="round"/>
<path d="M461.2 257.19L485.33 252.75" stroke="#E8E7ED" stroke-width="4" stroke-miterlimit="10" stroke-linecap="round"/>
<path d="M461.2 266.32L488.79 261.1" stroke="#E8E7ED" stroke-width="4" stroke-miterlimit="10" stroke-linecap="round"/>
<path d="M461.2 275.46L492.25 269.46" stroke="#E8E7ED" stroke-width="4" stroke-miterlimit="10" stroke-linecap="round"/>
<path d="M461.2 284.6L495.72 277.82" stroke="#E8E7ED" stroke-width="4" stroke-miterlimit="10" stroke-linecap="round"/>
<path d="M461.2 293.73L499.18 286.18" stroke="#E8E7ED" stroke-width="4" stroke-miterlimit="10" stroke-linecap="round"/>
<defs>
<linearGradient id="paint0_linear" x1="0.199972" y1="274.57" x2="626.71" y2="274.57" gradientUnits="userSpaceOnUse">
<stop stop-color="#F0F2F5"/>
<stop offset="0.99" stop-color="#F5F7F8"/>
</linearGradient>
<linearGradient id="paint1_linear" x1="421.72" y1="74.79" x2="485.07" y2="74.79" gradientUnits="userSpaceOnUse">
<stop stop-color="#A7A5EE"/>
<stop offset="0.44" stop-color="#9D9CE8"/>
<stop offset="0.89" stop-color="#8988D5"/>
</linearGradient>
<linearGradient id="paint2_linear" x1="202.82" y1="498.48" x2="229.64" y2="498.48" gradientUnits="userSpaceOnUse">
<stop stop-color="#753200"/>
<stop offset="1" stop-color="#A04400"/>
</linearGradient>
<linearGradient id="paint3_linear" x1="65649.5" y1="195.375" x2="65393.2" y2="-848.607" gradientUnits="userSpaceOnUse">
<stop stop-color="#753200"/>
<stop offset="1" stop-color="#A04400"/>
</linearGradient>
<linearGradient id="paint4_linear" x1="27231.2" y1="22072.1" x2="32065.5" y2="22072.1" gradientUnits="userSpaceOnUse">
<stop stop-color="#A7A5EE"/>
<stop offset="0.44" stop-color="#9D9CE8"/>
<stop offset="0.89" stop-color="#8988D5"/>
</linearGradient>
<linearGradient id="paint5_linear" x1="13881.4" y1="23506.1" x2="17859.6" y2="23506.1" gradientUnits="userSpaceOnUse">
<stop stop-color="#A7A5EE"/>
<stop offset="0.44" stop-color="#9D9CE8"/>
<stop offset="0.89" stop-color="#8988D5"/>
</linearGradient>
<linearGradient id="paint6_linear" x1="15256.2" y1="7293.75" x2="16694" y2="7293.75" gradientUnits="userSpaceOnUse">
<stop stop-color="#753200"/>
<stop offset="1" stop-color="#A04400"/>
</linearGradient>
<linearGradient id="paint7_linear" x1="19611.5" y1="6229.6" x2="22845.2" y2="6229.6" gradientUnits="userSpaceOnUse">
<stop stop-color="#753200"/>
<stop offset="1" stop-color="#A04400"/>
</linearGradient>
<linearGradient id="paint8_linear" x1="34216.4" y1="33181.1" x2="29803.2" y2="33199.7" gradientUnits="userSpaceOnUse">
<stop stop-color="#753200"/>
<stop offset="1" stop-color="#A04400"/>
</linearGradient>
<linearGradient id="paint9_linear" x1="1917.77" y1="2558.17" x2="1939.54" y2="2563.23" gradientUnits="userSpaceOnUse">
<stop stop-color="#753200"/>
<stop offset="1" stop-color="#A04400"/>
</linearGradient>
<linearGradient id="paint10_linear" x1="250.262" y1="59.674" x2="279.279" y2="75.2316" gradientUnits="userSpaceOnUse">
<stop stop-color="#A04400"/>
<stop offset="1" stop-color="#753200"/>
</linearGradient>
<linearGradient id="paint11_linear" x1="216.53" y1="133.4" x2="327.74" y2="133.4" gradientUnits="userSpaceOnUse">
<stop offset="0.01" stop-color="#2D1582"/>
<stop offset="1" stop-color="#4822D1"/>
</linearGradient>
<linearGradient id="paint12_linear" x1="15232.6" y1="1737.05" x2="18472.5" y2="1737.05" gradientUnits="userSpaceOnUse">
<stop offset="0.01" stop-color="#2D1582"/>
<stop offset="1" stop-color="#4822D1"/>
</linearGradient>
<linearGradient id="paint13_linear" x1="58257" y1="23579.4" x2="91077.7" y2="23579.4" gradientUnits="userSpaceOnUse">
<stop stop-color="#A7A5EE"/>
<stop offset="0.44" stop-color="#9D9CE8"/>
<stop offset="0.89" stop-color="#8988D5"/>
</linearGradient>
<linearGradient id="paint14_linear" x1="11390.3" y1="31886.5" x2="26551.3" y2="31886.5" gradientUnits="userSpaceOnUse">
<stop stop-color="#A7A5EE"/>
<stop offset="0.44" stop-color="#9D9CE8"/>
<stop offset="0.89" stop-color="#8988D5"/>
</linearGradient>
<linearGradient id="paint15_linear" x1="20265.7" y1="30985.9" x2="23498.7" y2="30985.9" gradientUnits="userSpaceOnUse">
<stop stop-color="#A7A5EE"/>
<stop offset="0.44" stop-color="#9D9CE8"/>
<stop offset="0.89" stop-color="#8988D5"/>
</linearGradient>
<linearGradient id="paint16_linear" x1="27255.2" y1="30985.9" x2="30488.2" y2="30985.9" gradientUnits="userSpaceOnUse">
<stop stop-color="#A7A5EE"/>
<stop offset="0.44" stop-color="#9D9CE8"/>
<stop offset="0.89" stop-color="#8988D5"/>
</linearGradient>
<linearGradient id="paint17_linear" x1="4196.24" y1="3490.96" x2="4255.4" y2="3493.32" gradientUnits="userSpaceOnUse">
<stop stop-color="#A7A5EE"/>
<stop offset="0.44" stop-color="#9D9CE8"/>
<stop offset="0.89" stop-color="#8988D5"/>
</linearGradient>
<linearGradient id="paint18_linear" x1="4189.67" y1="3783.13" x2="4248.93" y2="3785.5" gradientUnits="userSpaceOnUse">
<stop stop-color="#A7A5EE"/>
<stop offset="0.44" stop-color="#9D9CE8"/>
<stop offset="0.89" stop-color="#8988D5"/>
</linearGradient>
</defs>
</svg>
