<svg width="647" height="552" viewBox="0 0 647 552" fill="none" xmlns="http://www.w3.org/2000/svg">
<path d="M188.736 36.3926H290.369H292.813V38.8369V107.277H374.282H376.726V109.721V144.28H371.838V112.165H290.369H287.925V109.721V41.2133H188.736V36.3926Z" fill="#FEFEFE" fill-opacity="0.1"/>
<path d="M108.422 71.2915H54.8559V163.563H50.0356V68.9151V66.4708H52.4118H108.422V71.2915Z" fill="#FEFEFE" fill-opacity="0.1"/>
<path fill-rule="evenodd" clip-rule="evenodd" d="M135.782 188.345H541.158C549.373 188.345 556.162 195.067 556.162 203.351V480.301H120.778V203.351C120.778 195.067 127.499 188.345 135.782 188.345Z" fill="#FEFEFE" fill-opacity="0.1"/>
<path fill-rule="evenodd" clip-rule="evenodd" d="M53.2945 530.952H338.436H623.578C625.139 530.952 624.8 529.73 622.899 528.304L561.661 481.252C559.76 479.758 556.909 478.604 555.348 478.604H338.504H121.593C120.031 478.604 117.18 479.826 115.279 481.252L53.9734 528.236C52.0725 529.73 51.733 530.952 53.2945 530.952Z" fill="#FEFEFE" fill-opacity="0.1"/>
<path fill-rule="evenodd" clip-rule="evenodd" d="M55.6026 527.557C244.135 527.557 432.736 527.557 621.337 527.557C625.614 527.557 626.022 531.02 622.288 535.365L614.616 544.056C610.814 548.401 604.161 551.864 599.952 551.864C425.608 551.864 251.4 551.864 77.124 551.864C72.7789 551.864 66.1935 548.401 62.4595 544.056L54.7879 535.365C50.8502 531.02 51.3254 527.557 55.6026 527.557Z" fill="#FEFEFE" fill-opacity="0.1"/>
<path fill-rule="evenodd" clip-rule="evenodd" d="M294.036 504.744H318.069H358.939H382.905L396.279 519.41H345.565H331.376H280.661L294.036 504.744Z" fill="#FEFEFE" fill-opacity="0.1"/>
<path d="M542.448 207.085H134.424V465.432H542.448V207.085Z" fill="#FEFEFE" fill-opacity="0.1"/>
<path fill-rule="evenodd" clip-rule="evenodd" d="M583.522 139.731C586.712 134.503 588.817 128.732 589.7 122.757L607.759 119.634L602.87 91.5926L584.744 94.7838C583.318 92.1358 581.621 89.6236 579.652 87.2472C577.683 84.8708 575.443 82.7661 573.202 80.9328L579.516 63.6871L552.835 53.8421L546.521 71.0878C540.479 70.8841 534.436 71.9026 528.734 74.1432L516.989 60.0207L495.128 78.2849L506.873 92.3395C503.682 97.5675 501.577 103.339 500.695 109.314L482.636 112.505L487.524 140.546L505.583 137.423C507.009 140.071 508.706 142.583 510.675 144.892C512.643 147.268 514.884 149.373 517.124 151.206L510.81 168.452L537.559 178.229L543.873 160.983C549.916 161.187 555.958 160.168 561.661 157.928L573.406 172.05L595.267 153.786L583.522 139.731Z" fill="#FEFEFE" fill-opacity="0.1"/>
<path fill-rule="evenodd" clip-rule="evenodd" d="M554.329 127.035C560.371 122.01 561.186 113.048 556.094 107.005C551.07 100.962 542.109 100.148 535.998 105.172C529.956 110.196 529.142 119.227 534.233 125.269C539.325 131.244 548.287 132.059 554.329 127.035ZM563.155 137.559C575.036 127.646 576.597 109.993 566.685 98.1107C556.773 86.2288 539.121 84.6672 527.241 94.5801C515.428 104.493 513.798 122.214 523.71 134.028C533.622 145.978 551.274 147.539 563.155 137.559Z" fill="#FEFEFE" fill-opacity="0.1"/>
<path fill-rule="evenodd" clip-rule="evenodd" d="M467.972 80.797C466.274 76.859 463.762 73.3963 460.775 70.5447L466.071 59.0022L448.08 50.7188L442.784 62.2613C440.747 62.0576 438.643 62.0576 436.47 62.1934C434.366 62.397 432.261 62.8044 430.292 63.4155L422.892 52.9594L406.734 64.5018L414.134 74.9579C411.69 78.2849 409.857 82.155 408.907 86.3646L396.211 87.5188L398.044 107.209L410.74 105.987C412.505 109.925 414.949 113.387 418.004 116.239L412.708 127.849L430.632 136.065L435.927 124.523C437.964 124.726 440.136 124.726 442.241 124.59C444.414 124.387 446.45 123.979 448.419 123.368L455.819 133.756L471.909 122.35L464.509 111.894C467.021 108.567 468.786 104.697 469.737 100.555L482.432 99.3328L480.599 79.6428L467.972 80.797Z" fill="#FEFEFE" fill-opacity="0.1"/>
<path fill-rule="evenodd" clip-rule="evenodd" d="M449.234 92.4753C448.759 87.0435 443.938 83.0376 438.439 83.5808C433.008 84.0561 429.002 88.8767 429.545 94.3085C430.021 99.7402 434.841 103.746 440.272 103.271C445.771 102.728 449.777 97.9749 449.234 92.4753ZM458.739 91.5926C457.72 80.8649 448.283 73.0568 437.557 74.0074C426.83 75.0258 419.022 84.4635 419.973 95.1911C420.991 105.919 430.496 113.795 441.223 112.776C451.882 111.758 459.757 102.32 458.739 91.5926Z" fill="#FEFEFE" fill-opacity="0.1"/>
<path fill-rule="evenodd" clip-rule="evenodd" d="M150.175 0C130.418 0 113.853 12.6967 109.169 29.8745C89.9555 31.9114 75.0195 47.2561 75.0195 65.7919C75.0195 85.8214 92.3317 102.049 113.649 102.049H212.363C212.431 102.049 212.566 102.049 212.634 102.049C231.033 102.049 245.969 88.062 245.969 70.7483C245.969 57.9159 237.686 46.8487 225.873 42.028C225.873 41.8244 225.873 41.6207 225.873 41.417C225.873 29.1956 215.282 19.3506 202.315 19.3506C197.291 19.3506 192.539 20.8443 188.737 23.4244C182.083 9.57343 167.283 0 150.175 0Z" fill="#FEFEFE" fill-opacity="0.1"/>
<path fill-rule="evenodd" clip-rule="evenodd" d="M285.073 83.1055C274.754 83.1055 266.132 89.6915 263.688 98.6539C253.708 99.7402 245.9 107.752 245.9 117.461C245.9 127.917 254.93 136.337 266.064 136.337H317.593C317.661 136.337 317.661 136.337 317.729 136.337C327.302 136.337 335.109 129.004 335.109 120.041C335.109 113.32 330.764 107.548 324.586 105.104C324.586 104.968 324.586 104.9 324.586 104.765C324.586 98.4502 319.155 93.2221 312.298 93.2221C309.65 93.2221 307.206 93.969 305.169 95.3269C301.775 88.062 294.035 83.1055 285.073 83.1055Z" fill="#FEFEFE" fill-opacity="0.1"/>
<path d="M641.026 313.751H504.497V489.331H641.026V313.751Z" fill="#6B5F8D"/>
<path fill-rule="evenodd" clip-rule="evenodd" d="M641.908 313.751H572.796H503.683C500.899 313.751 498.727 311.51 498.727 308.794V301.461C498.727 298.745 500.899 296.505 503.683 296.505H553.582C553.515 295.826 553.447 295.147 553.447 294.468C553.447 283.74 562.137 275.117 572.796 275.117C583.454 275.117 592.144 283.808 592.144 294.468C592.144 295.147 592.077 295.826 592.077 296.505H641.976C644.692 296.505 646.932 298.745 646.932 301.461V308.794C646.864 311.51 644.624 313.751 641.908 313.751ZM572.796 286.931C568.654 286.931 565.328 290.258 565.328 294.4C565.328 298.474 568.654 301.869 572.796 301.869C576.869 301.869 580.264 298.542 580.264 294.4C580.264 290.258 576.869 286.931 572.796 286.931Z" fill="#FEFEFE" fill-opacity="0.1"/>
<path fill-rule="evenodd" clip-rule="evenodd" d="M641.908 313.751H572.796H503.683C500.899 313.751 498.727 311.51 498.727 308.794V308.726H646.864V308.794C646.864 311.51 644.624 313.751 641.908 313.751Z" fill="#FEFEFE" fill-opacity="0.1"/>
<path fill-rule="evenodd" clip-rule="evenodd" d="M618.758 489.399L641.026 467.061L618.758 467.401V489.399Z" fill="#FEFEFE" fill-opacity="0.1"/>
<path d="M620.93 338.669H524.661V346.816H620.93V338.669Z" fill="#FEFEFE" fill-opacity="0.1"/>
<path d="M620.93 370.173H524.661V378.32H620.93V370.173Z" fill="#FEFEFE" fill-opacity="0.1"/>
<path d="M620.93 401.813H524.661V409.96H620.93V401.813Z" fill="#FEFEFE" fill-opacity="0.1"/>
<path d="M620.93 433.317H524.661V441.464H620.93V433.317Z" fill="#FEFEFE" fill-opacity="0.1"/>
<path fill-rule="evenodd" clip-rule="evenodd" d="M11.6093 144.009H471.434C477.816 144.009 482.976 149.237 482.976 155.619V417.293C482.976 423.675 477.816 428.903 471.434 428.903H11.6093C5.2276 428.903 0 423.675 0 417.293V155.619C0 149.237 5.2276 144.009 11.6093 144.009Z" fill="#5B6394"/>
<path fill-rule="evenodd" clip-rule="evenodd" d="M10.1836 144.009H472.86C478.495 144.009 483.044 148.626 483.044 154.193V185.494C483.044 185.969 482.704 186.308 482.229 186.308H0V154.193C0 148.626 4.61658 144.009 10.1836 144.009Z" fill="#FEFEFE" fill-opacity="0.1"/>
<path fill-rule="evenodd" clip-rule="evenodd" d="M23.8976 174.019C28.7858 174.019 32.7913 169.81 32.7913 164.717C32.7913 159.557 28.8536 155.415 23.8976 155.415C19.0095 155.415 15.0039 159.557 15.0039 164.717C15.0039 169.81 19.0095 174.019 23.8976 174.019Z" fill="#FEFEFE" fill-opacity="0.1"/>
<path fill-rule="evenodd" clip-rule="evenodd" d="M48.6779 174.019C53.566 174.019 57.5716 169.81 57.5716 164.717C57.5716 159.557 53.566 155.415 48.6779 155.415C43.7897 155.415 39.7842 159.557 39.7842 164.717C39.7842 169.81 43.7897 174.019 48.6779 174.019Z" fill="#FEFEFE" fill-opacity="0.1"/>
<path fill-rule="evenodd" clip-rule="evenodd" d="M73.4577 174.019C78.3458 174.019 82.3514 169.81 82.3514 164.717C82.3514 159.557 78.3458 155.415 73.4577 155.415C68.5695 155.415 64.564 159.557 64.564 164.717C64.564 169.81 68.5695 174.019 73.4577 174.019Z" fill="#FEFEFE" fill-opacity="0.1"/>
<path d="M469.329 156.909H95.7939V174.494H469.329V156.909Z" fill="#FEFEFE" fill-opacity="0.1"/>
<path d="M142.503 202.875H38.8335V216.59H142.503V202.875Z" fill="#FEFEFE" fill-opacity="0.1"/>
<path d="M289.08 202.875H185.41V216.59H289.08V202.875Z" fill="#FEFEFE" fill-opacity="0.1"/>
<path d="M436.199 202.875H332.529V216.59H436.199V202.875Z" fill="#FEFEFE" fill-opacity="0.1"/>
<path opacity="0.8" d="M285.345 239.064H35.9819V352.587H285.345V239.064Z" fill="#FFDB79"/>
<path opacity="0.8" d="M382.226 239.064H305.849V311.714H382.226V239.064Z" fill="#F77B55"/>
<path d="M224.651 365.827H34.1494V373.635H224.651V365.827Z" fill="#FEFEFE" fill-opacity="0.1"/>
<path d="M261.04 380.493H70.5386V388.369H261.04V380.493Z" fill="#FEFEFE" fill-opacity="0.1"/>
<path d="M230.218 396.177H39.7163V404.053H230.218V396.177Z" fill="#FEFEFE" fill-opacity="0.1"/>
<path fill-rule="evenodd" clip-rule="evenodd" d="M359.55 275.389L344.071 284.759L328.592 294.128V275.389V256.649L344.071 266.019L359.55 275.389Z" fill="white"/>
<path opacity="0.8" d="M458.671 329.435H305.849V402.084H458.671V329.435Z" fill="#08C6A2"/>
<path d="M458.739 239.064H382.294V311.714H458.739V239.064Z" fill="#FEFEFE" fill-opacity="0.1"/>
<path opacity="0.8" fill-rule="evenodd" clip-rule="evenodd" d="M93.2142 305.603L78.7534 299.153L95.4546 292.703L96.1335 288.968L74.2726 297.387L73.6616 301.054L92.6032 309.405L93.2142 305.603ZM125.802 301.461L122.204 322.17H127.363L135.307 276.136H130.147L126.549 296.844H115.279L118.877 276.136H113.717L105.774 322.17H110.934L114.532 301.461H125.802ZM144.336 322.238L151.532 280.889H159.951L160.766 276.272H138.701L137.886 280.889H146.373L139.176 322.238H144.336ZM186.971 285.166L180.59 322.17H185.478L193.421 276.136H186.225L172.579 312.868L171.357 276.136H164.16L156.149 322.17H160.63L167.012 285.506L168.301 322.17H173.19L186.971 285.166ZM208.968 322.238L209.783 317.553H196.68L203.808 276.204H198.717L190.705 322.238H208.968ZM225.262 309.405L247.055 301.054L247.666 297.387L228.792 288.968L228.181 292.703L242.642 299.153L225.941 305.603L225.262 309.405Z" fill="#353F49"/>
<path opacity="0.8" fill-rule="evenodd" clip-rule="evenodd" d="M346.176 371.395L334.634 366.303L347.737 361.21L348.145 358.291L331.036 364.877L330.629 367.796L345.769 374.382L346.176 371.395ZM361.791 348.106L356.36 384.499H364.846C370.549 384.499 373.672 381.104 374.486 375.469L377.202 357.137C378.085 351.501 375.98 348.106 370.345 348.106H361.791ZM360.976 380.833L365.321 351.841H369.666C372.585 351.841 373.74 353.674 373.264 357.001L370.481 375.74C370.006 379.067 368.308 380.9 365.389 380.9H360.976V380.833ZM382.362 348.106L376.931 384.499H381.004L386.435 348.106H382.362ZM389.558 348.106L390.916 384.499H396.958L409.179 348.106H405.445L394.854 379.746L393.632 348.106H389.558ZM416.443 374.382L433.551 367.796L434.027 364.877L418.887 358.291L418.412 361.21L429.953 366.303L416.85 371.395L416.443 374.382Z" fill="#FEFEFE"/>
</svg>
