<svg width="714" height="516" viewBox="0 0 714 516" fill="none" xmlns="http://www.w3.org/2000/svg">
<path d="M553.764 0.317291L512.094 25.5791L547.102 59.5021L549.15 41.3424C587.965 45.7308 615.966 80.8952 611.583 119.755C607.199 158.615 572.075 186.648 533.26 182.26C494.445 177.872 466.444 142.707 470.827 103.847L447.988 101.278C442.163 152.725 479.277 199.322 530.665 205.125C582.082 210.928 628.625 173.801 634.422 122.325C640.218 70.8482 603.133 24.2799 551.716 18.448L553.764 0.317291Z" fill="white" fill-opacity="0.1"/>
<path d="M293.017 481.706C262.622 481.706 233.121 475.73 205.351 463.98C178.532 452.633 154.453 436.379 133.777 415.679C113.1 394.979 96.8649 370.872 85.5318 344.022C73.795 316.22 67.8257 286.685 67.8257 256.255C67.8257 225.826 73.795 196.291 85.5318 168.489C96.8649 141.639 113.1 117.532 133.777 96.8318C154.453 76.1316 178.532 59.8774 205.351 48.5312C233.121 36.7809 262.622 30.8047 293.017 30.8047C323.411 30.8047 352.912 36.7809 380.682 48.5312C407.501 59.8774 431.58 76.1316 452.257 96.8318C472.933 117.532 489.168 141.639 500.502 168.489C512.238 196.291 518.208 225.826 518.208 256.255C518.208 286.685 512.238 316.22 500.502 344.022C489.168 370.872 472.933 394.979 452.257 415.679C431.58 436.379 407.501 452.633 380.682 463.98C352.912 475.759 323.411 481.706 293.017 481.706ZM293.017 78.7299C195.229 78.7299 115.667 158.384 115.667 256.284C115.667 354.185 195.229 433.839 293.017 433.839C390.804 433.839 470.366 354.185 470.366 256.284C470.366 158.384 390.804 78.7299 293.017 78.7299Z" fill="#546193"/>
<path d="M650.888 437.975V485.871H527.925C535.538 470.426 542.229 454.431 547.881 437.975H650.888Z" fill="white" fill-opacity="0.1"/>
<path d="M547.881 437.975C542.229 454.431 535.538 470.426 527.925 485.871H173.601V437.975H547.881Z" fill="white" fill-opacity="0.1"/>
<path d="M713.898 461.678L644.544 408.181V515.204L713.898 461.678Z" fill="white" fill-opacity="0.1"/>
<path d="M293.016 437.975H0V485.871H293.016V437.975Z" fill="white" fill-opacity="0.1"/>
<path d="M223.115 177.843H167.949V183.501H223.115V177.843Z" fill="white" fill-opacity="0.1"/>
<path d="M278.367 220.427H238.543V226.086H278.367V220.427Z" fill="white" fill-opacity="0.1"/>
<path d="M310.982 220.427H284.567V226.086H310.982V220.427Z" fill="white" fill-opacity="0.1"/>
<path d="M364.966 391.341H338.551V397H364.966V391.341Z" fill="white" fill-opacity="0.1"/>
<path d="M194.998 327.479H168.583V333.138H194.998V327.479Z" fill="white" fill-opacity="0.1"/>
<path d="M380.019 220.427H316.202V226.086H380.019V220.427Z" fill="white" fill-opacity="0.1"/>
<path d="M209.59 306.057H168.583V311.716H209.59V306.057Z" fill="white" fill-opacity="0.1"/>
<path d="M319.748 348.786H278.742V354.444H319.748V348.786Z" fill="white" fill-opacity="0.1"/>
<path d="M250.741 348.786H225.71V354.444H250.741V348.786Z" fill="white" fill-opacity="0.1"/>
<path d="M218.183 348.786H168.583V354.444H218.183V348.786Z" fill="white" fill-opacity="0.1"/>
<path d="M195.921 370.063H168.583V375.722H195.921V370.063Z" fill="white" fill-opacity="0.1"/>
<path d="M273.003 177.843H233.842V183.501H273.003V177.843Z" fill="white" fill-opacity="0.1"/>
<path d="M273.003 241.705H233.842V247.363H273.003V241.705Z" fill="white" fill-opacity="0.1"/>
<path d="M230.987 263.011H214.262V268.67H230.987V263.011Z" fill="white" fill-opacity="0.1"/>
<path d="M235.111 284.606H197.536V290.265H235.111V284.606Z" fill="white" fill-opacity="0.1"/>
<path d="M292.67 284.606H240.792V290.265H292.67V284.606Z" fill="white" fill-opacity="0.1"/>
<path d="M207.744 263.155H168.583V268.814H207.744V263.155Z" fill="white" fill-opacity="0.1"/>
<path d="M191.826 284.606H168.583V290.265H191.826V284.606Z" fill="white" fill-opacity="0.1"/>
<path d="M260.776 263.155H238.86V268.814H260.776V263.155Z" fill="white" fill-opacity="0.1"/>
<path d="M191.134 391.341H169.218V397H191.134V391.341Z" fill="white" fill-opacity="0.1"/>
<path d="M207.571 220.427H168.41V226.086H207.571V220.427Z" fill="white" fill-opacity="0.1"/>
<path d="M242.205 327.479H203.044V333.138H242.205V327.479Z" fill="white" fill-opacity="0.1"/>
<path d="M242.695 370.063H203.534V375.722H242.695V370.063Z" fill="white" fill-opacity="0.1"/>
<path d="M312.251 370.063H273.09V375.722H312.251V370.063Z" fill="white" fill-opacity="0.1"/>
<path d="M224.239 241.705H168.41V247.363H224.239V241.705Z" fill="white" fill-opacity="0.1"/>
<path d="M329.64 391.341H290.479V397H329.64V391.341Z" fill="white" fill-opacity="0.1"/>
<path d="M333.417 177.843H283.529V183.501H333.417V177.843Z" fill="white" fill-opacity="0.1"/>
<path d="M249.299 391.341H199.41V397H249.299V391.341Z" fill="white" fill-opacity="0.1"/>
<path d="M423.275 391.341H373.386V397H423.275V391.341Z" fill="white" fill-opacity="0.1"/>
<path d="M415.575 348.786H365.687V354.444H415.575V348.786Z" fill="white" fill-opacity="0.1"/>
<path d="M401.647 241.705H351.758V247.363H401.647V241.705Z" fill="white" fill-opacity="0.1"/>
<path d="M269.341 348.786H258.585V354.444H269.341V348.786Z" fill="white" fill-opacity="0.1"/>
<path d="M420.189 177.843H370.301V183.501H420.189V177.843Z" fill="white" fill-opacity="0.1"/>
<path d="M342.645 241.705H313.404V247.363H342.645V241.705Z" fill="white" fill-opacity="0.1"/>
<path d="M319.72 327.797H290.479V333.455H319.72V327.797Z" fill="white" fill-opacity="0.1"/>
<path d="M360.9 177.843H342.646V183.501H360.9V177.843Z" fill="white" fill-opacity="0.1"/>
<path d="M301.783 241.705H283.529V247.363H301.783V241.705Z" fill="white" fill-opacity="0.1"/>
<path d="M196.527 199.149H167.949V204.808H196.527V199.149Z" fill="white" fill-opacity="0.1"/>
<path d="M266.717 306.202H244.166V311.86H266.717V306.202Z" fill="white" fill-opacity="0.1"/>
<path d="M212.762 199.149H203.534V204.808H212.762V199.149Z" fill="white" fill-opacity="0.1"/>
<path d="M395.994 370.063H319.749V375.722H395.994V370.063Z" fill="white" fill-opacity="0.1"/>
<path d="M228.94 199.149H219.539V204.808H228.94V199.149Z" fill="white" fill-opacity="0.1"/>
<path d="M385.844 199.149H360.899V204.808H385.844V199.149Z" fill="white" fill-opacity="0.1"/>
<path d="M410.788 220.427H385.844V226.086H410.788V220.427Z" fill="white" fill-opacity="0.1"/>
<path d="M355.103 348.786H330.159V354.444H355.103V348.786Z" fill="white" fill-opacity="0.1"/>
<path d="M282.52 391.341H257.576V397H282.52V391.341Z" fill="white" fill-opacity="0.1"/>
<path d="M354.296 199.149H301.235V204.808H354.296V199.149Z" fill="white" fill-opacity="0.1"/>
<path d="M282.837 327.797H251.836V333.455H282.837V327.797Z" fill="white" fill-opacity="0.1"/>
<path d="M265.332 370.063H249.818V375.722H265.332V370.063Z" fill="white" fill-opacity="0.1"/>
<path d="M293.68 199.149H275.426V204.808H293.68V199.149Z" fill="white" fill-opacity="0.1"/>
<path d="M232.227 220.427H213.973V226.086H232.227V220.427Z" fill="white" fill-opacity="0.1"/>
<path d="M235.861 306.202H217.607V311.86H235.861V306.202Z" fill="white" fill-opacity="0.1"/>
<path d="M268.476 199.149H236.668V204.808H268.476V199.149Z" fill="white" fill-opacity="0.1"/>
<path d="M160.97 413.398C160.941 413.398 160.941 413.398 160.97 413.398C161.028 413.456 161.057 413.456 160.97 413.398Z" fill="white" fill-opacity="0.1"/>
<path d="M387.228 131.823H396.283L393.514 126.078H384.459L387.228 131.823Z" fill="white" fill-opacity="0.1"/>
<path d="M382.989 131.823H385.152L382.383 126.078H380.221L382.989 131.823Z" fill="white" fill-opacity="0.1"/>
<path d="M351.672 124.952H388.382L387.142 122.094H350.46L351.672 124.952Z" fill="white" fill-opacity="0.1"/>
<path d="M533.336 276.217H562.202V274.196H533.336V276.217Z" fill="white" fill-opacity="0.1"/>
<path d="M533.336 286.534H562.202V278.017H533.336V286.534Z" fill="white" fill-opacity="0.1"/>
<path d="M519.754 290.677H536.797V289.407H519.754V290.677Z" fill="white" fill-opacity="0.1"/>
<path d="M519.754 294.692H536.797V291.256H519.754V294.692Z" fill="white" fill-opacity="0.1"/>
<path d="M528.414 285.061H529.683V261.185H528.414V285.061Z" fill="white" fill-opacity="0.1"/>
<path d="M163.758 102.705H186.511V98.5766H163.758V102.705Z" fill="white" fill-opacity="0.1"/>
<path d="M163.758 97.4425H186.511V96.6629H163.758V97.4425Z" fill="white" fill-opacity="0.1"/>
<path d="M389.247 179.835L418.776 150.271H540.124V148.77H418.171L388.18 178.767L389.247 179.835Z" fill="white" fill-opacity="0.1"/>
<path d="M463.878 418.941H124.375V486.181H463.878V418.941Z" fill="#6A6996"/>
<path d="M201.573 247.421L202.64 246.353L146.205 189.853H39.4204V191.354H145.6L201.573 247.421Z" fill="white" fill-opacity="0.1"/>
<path d="M314.039 179.46L315.077 178.391L267.467 130.697H200.478V132.198H266.832L314.039 179.46Z" fill="white" fill-opacity="0.1"/>
<path d="M463.878 486.21V418.941H340.309L273.897 485.43L463.878 486.21Z" fill="white" fill-opacity="0.1"/>
<path d="M484.987 109.795H474.288V142.361H484.987V109.795Z" fill="white" fill-opacity="0.1"/>
<path d="M521.178 125.471H438.097C435.502 125.471 433.397 123.364 433.397 120.766V64.872C433.397 62.2736 435.502 60.1661 438.097 60.1661H521.178C523.773 60.1661 525.878 62.2736 525.878 64.872V120.766C525.907 123.364 523.773 125.471 521.178 125.471Z" fill="#546193"/>
<path d="M522.274 63.8904H437.03V115.251H522.274V63.8904Z" fill="white" fill-opacity="0.1"/>
<path d="M455.569 143.589H503.756V141.135H455.569V143.589Z" fill="white" fill-opacity="0.1"/>
<path d="M490.352 111.163H517.748V79.4632H490.352V111.163Z" fill="white" fill-opacity="0.1"/>
<path d="M457.895 83.4081H486.127V79.4528H457.895V83.4081Z" fill="white" fill-opacity="0.1"/>
<path d="M457.895 91.5271H486.127V87.5718H457.895V91.5271Z" fill="white" fill-opacity="0.1"/>
<path d="M457.895 111.178H486.127V94.8662H457.895V111.178Z" fill="white" fill-opacity="0.1"/>
<path d="M441.924 111.185H453.892V78.5613H441.924V111.185Z" fill="white" fill-opacity="0.1"/>
<path d="M442.222 75.9709L518.036 75.9709V67.8294L442.222 67.8294V75.9709Z" fill="white" fill-opacity="0.1"/>
<path d="M214.579 123.624H252.529C255.009 123.624 257.028 121.603 257.028 119.12V61.6674C257.028 59.1845 255.009 57.1636 252.529 57.1636H214.579C212.099 57.1636 210.08 59.1845 210.08 61.6674V119.12C210.052 121.603 212.07 123.624 214.579 123.624Z" fill="#546193"/>
<path d="M212.68 114.782H254.437V60.2452L212.68 60.2452V114.782Z" fill="white" fill-opacity="0.1"/>
<path d="M215.445 71.4195H251.809V64.173H215.445V71.4195Z" fill="white" fill-opacity="0.1"/>
<path d="M236.862 109.821H251.829V74.2238H236.862V109.821Z" fill="white" fill-opacity="0.1"/>
<path d="M215.468 78.3556H234.068V74.2272H215.468V78.3556Z" fill="white" fill-opacity="0.1"/>
<path d="M215.468 85.474H234.068V81.3455H215.468V85.474Z" fill="white" fill-opacity="0.1"/>
<path d="M215.468 92.5929H234.068V88.4644H215.468V92.5929Z" fill="white" fill-opacity="0.1"/>
<path d="M215.468 109.832H234.068V95.6272H215.468V109.832Z" fill="white" fill-opacity="0.1"/>
<path d="M84.0321 252.04L67.7678 242.628V248.836H43.5444V255.245H67.7678V261.452L84.0321 252.04Z" fill="#747FA8"/>
<path d="M43.5449 231.398L59.838 240.81V234.602H84.0326V228.164H59.838V221.957L43.5449 231.398Z" fill="#747FA8"/>
<path d="M322.085 117.85L309.857 110.805V115.453H291.719V120.275H309.857V124.923L322.085 117.85Z" fill="white" fill-opacity="0.1"/>
<path d="M291.719 102.375L303.917 109.448V104.771H322.085V99.9787H303.917V95.3305L291.719 102.375Z" fill="white" fill-opacity="0.1"/>
<path d="M487.005 229.868C485.391 229.752 483.891 229.146 482.709 228.135C481.382 227.009 480.661 225.479 480.661 223.891C480.431 220.716 479.45 217.453 478.643 215.201C474.778 212.112 472.702 207.349 473.077 202.383C473.711 194.184 480.863 188.005 489.082 188.64C497.271 189.276 503.443 196.435 502.808 204.664C502.462 209.139 500.184 213.152 496.522 215.75C495.397 218.781 494.734 221.553 494.532 224.007C494.503 227.298 491.36 229.954 487.553 229.925C487.38 229.897 487.178 229.868 487.005 229.868ZM488.966 189.882C481.44 189.304 474.865 194.963 474.288 202.498C473.942 207.089 475.903 211.535 479.537 214.364L479.681 214.48L479.738 214.653C480.604 216.962 481.642 220.456 481.901 223.863V223.92C481.901 225.162 482.478 226.345 483.516 227.269C484.583 228.193 486.025 228.713 487.582 228.713C490.725 228.742 493.321 226.605 493.321 223.978V223.949V223.92C493.551 221.322 494.244 218.377 495.455 215.144L495.512 214.97L495.685 214.855C499.146 212.488 501.28 208.734 501.597 204.577C502.174 197.042 496.493 190.43 488.966 189.882Z" fill="white" fill-opacity="0.1"/>
<path d="M484.237 224.786L482.276 208.503L485.679 211.304L487.784 208.994L489.601 211.159L492.744 208.475L490.841 224.786L489.63 224.642L491.187 211.419L489.428 212.892L487.727 210.842L485.794 213.007L483.862 211.39L485.448 224.642L484.237 224.786Z" fill="white" fill-opacity="0.1"/>
<path d="M492.886 228.436L482.302 228.365L482.274 232.638L492.857 232.709L492.886 228.436Z" fill="white" fill-opacity="0.1"/>
<path d="M494.595 224.088L480.609 223.994L480.563 230.865L494.549 230.959L494.595 224.088Z" fill="white" fill-opacity="0.1"/>
<path d="M56.3193 180.759H129.509V134.306C129.509 132.487 128.038 131.015 126.221 131.015H59.6068C57.79 131.015 56.3193 132.487 56.3193 134.306V180.759Z" fill="#546193"/>
<path d="M58.3534 178.113H127.477V133.652H58.3534V178.113Z" fill="white" fill-opacity="0.1"/>
<path d="M52.8013 180.759H133.056V181.538C133.056 183.126 131.758 184.425 130.172 184.425H55.685C54.099 184.425 52.8013 183.126 52.8013 181.538V180.759Z" fill="white" fill-opacity="0.1"/>
<path d="M61.2523 143.062H124.521V136.884H61.2523V143.062Z" fill="white" fill-opacity="0.1"/>
<path d="M102.824 174.883H124.509V146.561H102.824V174.883Z" fill="white" fill-opacity="0.1"/>
<path d="M78.3695 174.883H100.055V146.561H78.3695V174.883Z" fill="white" fill-opacity="0.1"/>
<path d="M61.2505 150.605H74.4868V146.563H61.2505V150.605Z" fill="white" fill-opacity="0.1"/>
<path d="M61.2505 156.854H74.4868V152.812H61.2505V156.854Z" fill="white" fill-opacity="0.1"/>
<path d="M61.2505 174.867H74.4868V159.046H61.2505V174.867Z" fill="white" fill-opacity="0.1"/>
<path d="M330.852 484.189C330.852 484.189 331.371 488.375 332.034 490.223C332.726 492.071 336.417 496.344 334.86 500.443C333.159 504.889 325.776 500.616 322.777 499.26C319.778 497.903 320.441 495.449 320.124 492.417C319.807 489.415 318.336 489.328 318.884 487.192C319.432 485.055 322.72 481.013 322.72 481.013L330.852 484.189Z" fill="#35527A"/>
<path d="M324.133 478.819C324.133 478.819 322.229 481.475 322.287 481.533C322.345 481.619 330.39 486.499 330.938 484.911C331.371 483.64 331.573 481.822 331.573 481.822L324.133 478.819Z" fill="#EEA886"/>
<path d="M296.852 487.134C296.852 487.134 294.401 489.299 292.181 492.59C289.96 495.882 284.135 496.084 283.876 500.587C283.616 505.12 291.835 505.236 296.132 503.763C300.428 502.291 301.092 497.874 303.687 496.777C306.282 495.679 307.638 494.784 307.436 492.619C307.234 490.454 305.792 486.961 305.792 486.961C305.792 486.961 304.177 487.48 303.226 487.596C302.303 487.74 299.102 487.769 296.852 487.134Z" fill="#35527A"/>
<path d="M326.382 364.693C326.382 364.693 324.738 374.538 323.412 381.034C322.864 383.661 322.374 385.74 322.085 386.404C321.71 387.241 318.596 390.562 314.818 394.488C308.157 401.359 299.361 409.991 299.361 409.991L295.93 403.467C295.93 403.467 303.745 394.286 309.051 388.165C311.502 385.336 313.405 383.142 313.751 382.853C314.847 381.871 316.145 372.084 317.961 364.029C319.778 355.975 323.383 351.528 323.383 351.528L326.382 364.693Z" fill="#FFD670"/>
<path d="M314.789 394.459C308.128 401.33 299.333 409.963 299.333 409.963L295.901 403.438C295.901 403.438 303.716 394.257 309.022 388.136C310.637 388.945 313.607 390.821 314.789 394.459Z" fill="#EEA886"/>
<path d="M297.227 484.131L296.853 487.134C296.853 487.134 301.12 488.635 305.821 486.989L305.907 484.304L297.227 484.131Z" fill="#EEA886"/>
<path d="M357.901 408.635C358.161 409.501 312.626 408.635 312.626 408.635C312.626 408.635 325.228 399.454 326.036 397C326.843 394.546 322.835 379.851 322.316 375.058C321.883 371.218 320.845 354.098 323.354 351.471C325.978 348.728 335.466 345.87 335.466 345.87L349.308 346.389C349.308 346.389 351.586 346.88 353.23 347.631C354.873 348.382 364.188 351.731 365.716 356.379C367.244 361.056 356.402 376.068 356.402 376.068C356.402 376.068 356.373 376.733 356.344 377.858C356.315 379.331 356.229 381.583 356.171 384.008C356.084 387.155 356.027 390.619 356.027 393.16C356.056 399.078 357.642 407.768 357.901 408.635Z" fill="#FFD670"/>
<path d="M357.901 408.635C357.901 408.635 364.101 417.729 364.188 423.965C364.274 430.201 353.2 450.988 351.528 453.961C346.481 462.911 332.668 482.226 332.668 482.226C332.668 482.226 330.275 482.168 322.864 479.281C322.864 479.281 332.063 453.788 333.216 451.132C338.147 439.901 340.916 431.933 339.243 429.999C337.571 428.065 333.043 426.13 331.745 425.004C330.448 423.878 307.58 429.335 305.186 429.941C298.986 431.558 301.812 442.355 303.196 447.177C305.503 455.261 307.493 484.507 307.493 484.507C307.493 484.507 303.081 486.383 295.67 484.795C295.67 484.795 281.136 431.991 280.674 426.736C280.213 421.482 279.982 412.821 315.77 406.238L357.901 408.635Z" fill="#293F5E"/>
<path d="M339.272 315.816C339.272 315.816 327.276 313.102 330.016 328.23C332.755 343.358 335.639 344.542 342.877 341.424C350.115 338.306 349.481 328.605 349.827 323.842C350.202 319.078 343.108 315.96 339.272 315.816Z" fill="#EEA886"/>
<path d="M336.1 349.767C336.1 349.767 341.406 355.426 349.827 350.287C349.827 350.287 347.952 338.046 348.933 332.099C349.913 326.151 337.975 341.337 337.975 341.337C338.119 341.424 338.234 342.001 338.263 342.81C338.292 343.502 338.234 344.34 338.148 345.235C337.888 347.198 337.254 349.277 336.1 349.767Z" fill="#EEA886"/>
<path d="M349.25 331.608C349.25 331.608 348.933 326.844 347.202 326.7C345.472 326.555 345.184 328.461 345.184 328.461L343.425 328.778C343.425 328.778 343.973 324.592 342.242 323.87C340.512 323.149 330.996 326.18 329.612 324.939C328.227 323.726 328.862 315.238 331.4 314.083C333.908 312.928 340.887 310.33 345.991 313.795C345.991 313.795 349.971 313.333 350.547 316.566C351.153 319.742 350.346 329.211 349.25 331.608Z" fill="#3A3F47"/>
<path d="M338.119 345.206C346.799 342.521 347.433 337.295 347.462 337.209C344.607 342.117 338.263 342.781 338.263 342.781C338.263 343.474 338.234 344.34 338.119 345.206Z" fill="#A77860"/>
<path d="M353.373 347.718C353.373 347.718 347.029 360.363 336.763 359.555C326.497 358.746 335.004 346.014 335.494 345.899C335.984 345.754 345.991 343.271 353.373 347.718Z" fill="#EEA886"/>
<path d="M307.436 407.999C307.436 407.999 338.868 411.868 357.901 408.635L321.508 404.073C321.508 404.073 321.306 404.997 307.436 407.999Z" fill="#FFD670"/>
<path d="M330.938 402.658L328.603 403.842C328.603 403.842 329.122 407.566 330.419 408.692L333.044 408.028C333.044 408.028 332.496 403.929 330.938 402.658Z" fill="#EEA886"/>
<path d="M367.302 395.036C366.841 395.585 360.641 398.068 353.662 400.753C344.117 404.419 333.36 407.913 333.36 407.913L330.909 402.658C330.909 402.658 342.185 396.538 349.798 392.236C353.402 390.215 356.171 388.598 356.574 388.223C357.786 387.068 358.103 385.192 357.209 381.929C356.315 378.667 354.239 363.654 354.008 361.922C353.777 360.161 354.585 355.513 358.968 355.282C363.351 355.051 365.572 356.292 365.572 356.292C365.572 356.292 366.668 356.754 367.475 367.378C368.282 377.916 368.398 393.737 367.302 395.036Z" fill="#FFD670"/>
<path d="M356.344 377.858C356.315 379.331 356.229 381.583 356.171 384.008C351.903 373.528 354.383 365.184 354.412 365.04C353.951 367.869 356.315 377.714 356.344 377.858Z" fill="#8F773F"/>
<path d="M323.411 381.005C322.863 383.633 322.373 385.711 322.085 386.375C320.614 379.302 321.941 370.266 321.941 370.266C322.143 374.596 323.411 381.005 323.411 381.005Z" fill="#8F773F"/>
<path d="M353.662 400.753C344.117 404.419 333.014 408.028 333.014 408.028L330.909 402.658C330.909 402.658 342.185 396.538 349.798 392.236C349.798 392.207 352.566 393.564 353.662 400.753Z" fill="#EEA886"/>
<path d="M330.246 408.317L285.577 407.682L308.128 419.143L330.246 408.317Z" fill="#444C94"/>
<path d="M308.128 419.144L330.246 410.569V408.317L306.397 416.949L308.128 419.144Z" fill="#303669"/>
<path d="M329.093 403.929C329.093 403.929 326.295 403.496 324.363 403.034C322.864 402.687 319.172 403.178 318.221 404.131C317.269 405.084 314.27 411.782 313.693 412.186C313.117 412.59 313.982 413.543 314.991 413.052C314.991 413.052 315.914 415.968 318.163 414.871C320.413 413.774 321.97 411.377 323.152 410.973C324.334 410.569 331.226 408.433 331.226 408.433C331.226 408.433 330.88 403.207 329.093 403.929Z" fill="#EEA886"/>
<path d="M318.913 403.698C318.913 403.698 317.125 404.564 316.664 404.939C316.202 405.314 314.299 406.758 313.838 407.076C313.376 407.393 314.53 408.375 317.933 406.902C321.307 405.43 318.913 403.698 318.913 403.698Z" fill="#EEA886"/>
<path d="M308.128 419.143L294.863 382.824L252.01 383.517L264.67 416.978L308.128 419.143Z" fill="#303669"/>
<path d="M281.136 398.876C282.434 401.503 282.059 404.333 280.242 405.228C278.454 406.123 275.945 404.737 274.619 402.11C273.321 399.483 273.696 396.653 275.513 395.758C277.329 394.863 279.838 396.278 281.136 398.876Z" fill="#518AFA"/>
<path d="M345.241 326.44C345.385 325.112 348.039 324.621 348.24 326.613C348.442 328.605 347.029 332.127 346.049 331.781C345.039 331.434 345.011 328.259 345.241 326.44Z" fill="#EEA886"/>
</svg>
